<?xml version="1.0" standalone="no"?>
<!DOCTYPE svg PUBLIC "-//W3C//DTD SVG 1.0//EN" "http://www.w3.org/TR/2001/REC-SVG-20010904/DTD/svg10.dtd">
<svg xmlns="http://www.w3.org/2000/svg" xmlns:xlink="http://www.w3.org/1999/xlink" id="body_1" width="123" height="94">

<defs>
    <linearGradient transform="matrix(1 0 0 1 0 0)"  id="1" x1="594.64" y1="658.46" x2="594.64" y2="303.88">
        <stop stop-color="#808080" offset="0%"/>
        <stop stop-color="#808080" offset="100%"/>
    </linearGradient>
    <linearGradient transform="matrix(0.9656089 0.2599989 -0.2599989 0.9656089 131.32 -162.61)"  id="232" x1="711.17" y1="565.71" x2="711.17" y2="302.34">
        <stop stop-color="#808080" offset="0%"/>
        <stop stop-color="#808080" offset="100%"/>
    </linearGradient>
    <linearGradient transform="matrix(1 0 0 1 0 0)"  id="509" x1="320.65" y1="775.34" x2="320.65" y2="216.33">
        <stop stop-color="#808080" offset="0%"/>
        <stop stop-color="#808080" offset="100%"/>
    </linearGradient>
</defs>

<g transform="matrix(0.11974828 0 0 0.11974828 0.18349612 -0)">
    <path transform="matrix(1 0 0 1 -87.95 -61.51)"  d="M262.75 176.94C 257.27 183.59 255.16 192.94 252.8 201.73001C 233.8 272.57 186.98001 329.55002 133.66 370.25C 111.08 387.49 83.590004 410.61 88.53 441.52C 91.19 458.12 102.86 470.34 111.53 483.86C 129.72 512.17 135.62 550.64996 126.95 584.54C 117.09 623.1 89.53 659.07996 98.06 698.06995C 103.32 722.06995 121.18 739.14996 138.35 753.82996C 165.13667 776.7167 192.77667 798.1567 221.27 818.14996C 240.37001 831.55 260.69 844.58997 282.95 846.29C 302.55002 847.79 321.75 840.33997 340.36002 832.99C 356.62003 826.56 373.29 819.87 386.42 806.99C 394.99002 798.58 401.82 787.73 411.34003 780.85C 433.7 764.69 462.42004 774.93 488.06003 781.85C 548.56006 798.08997 613.31006 792.16 670.88 765.11C 759.19 723.61 826.5 636.45996 912.88 589.69995C 950.02 569.58997 990.42 557.1099 1024.81 531.20996C 1044.1848 516.46326 1060.835 498.44592 1074.01 477.96997C 1100.01 437.86 1114.0701 386.71997 1110.01 336.65997C 1105.95 286.59998 1083.2 238.35997 1047.47 210.09998C 1009.22 179.84998 960.91 174.19998 917.38995 156.03998C 872.47 137.26 832.49 105 788 84.89C 715.0388 51.984406 631.10583 53.862976 559.69 90C 511.24 114.5 462.15 171.66 408.19 176C 369.75 179 292.77 140.52 262.75 176.94z" stroke="none" fill="#3B82F6" fill-rule="nonzero" fill-opacity="0.09803922" />
    <path transform="matrix(1 0 0 1 -87.95 -61.51)"  d="M956.08 408.59C 956.08 408.59 941.52 359.13998 958.81 322.75C 966.16345 307.53088 968.3811 290.3369 965.13 273.75C 963.5241 265.88742 961.2011 258.1886 958.19 250.75" stroke="#535461" stroke-width="2" fill="none" />
    <path transform="matrix(1 0 0 1 -87.95 -61.51)"  d="M969 227.76C 969 233.81999 958 251.39 958 251.39C 958 251.39 947 233.82 947 227.76C 946.6956 223.64714 948.71735 219.70955 952.2371 217.56018C 955.75684 215.41083 960.1831 215.41083 963.7028 217.5602C 967.2226 219.70955 969.2443 223.64714 968.94 227.76L968.94 227.76L969 227.76z" stroke="none" fill="#3B82F6" fill-rule="nonzero" />
    <path transform="matrix(1 0 0 1 -87.95 -61.51)"  d="M987.09 261.32C 983.8 266.41 965 275.2 965 275.2C 965 275.2 965.34 254.49002 968.63 249.40001C 972.1019 244.7842 978.55255 243.6398 983.40045 246.77962C 988.2483 249.91943 989.84216 256.27393 987.05 261.33002L987.05 261.33002L987.09 261.32z" stroke="none" fill="#3B82F6" fill-rule="nonzero" />
    <path transform="matrix(1 0 0 1 -87.95 -61.51)"  d="M986.3 318.69C 980.89 321.42 960.3 319.53 960.3 319.53C 960.3 319.53 971.05 301.82 976.45996 299.09C 981.7809 296.88098 987.9049 299.1518 990.49927 304.2959C 993.0936 309.43997 991.27936 315.7144 986.33997 318.68L986.33997 318.68L986.3 318.69z" stroke="none" fill="#3B82F6" fill-rule="nonzero" />
    <path transform="matrix(1 0 0 1 -87.95 -61.51)"  d="M975.93 362C 971.06 365.6 950.39996 367.23 950.39996 367.23C 950.39996 367.23 957.99994 347.96002 962.87994 344.35C 967.7476 341.39218 974.06805 342.63947 977.4472 347.2247C 980.82635 351.80994 980.14636 358.2163 975.87994 361.99L975.87994 361.99L975.93 362z" stroke="none" fill="#3B82F6" fill-rule="nonzero" />
    <path transform="matrix(1 0 0 1 -87.95 -61.51)"  d="M942 276.37C 946.35 280.59 966.6 284.97 966.6 284.97C 966.6 284.97 961.6 264.86 957.29 260.63C 954.5488 257.55716 950.3209 256.27264 946.3336 257.30127C 942.3464 258.3299 939.2675 261.49936 938.3549 265.5148C 937.4424 269.53024 938.84894 273.7191 942 276.37z" stroke="none" fill="#3B82F6" fill-rule="nonzero" />
    <path transform="matrix(1 0 0 1 -87.95 -61.51)"  d="M930.51 327.13C 935.92 329.86002 956.51 327.97 956.51 327.97C 956.51 327.97 945.76 310.26 940.35004 307.53C 935.0291 305.32098 928.9051 307.5918 926.3107 312.7359C 923.7164 317.87997 925.53064 324.1544 930.47003 327.12L930.47003 327.12L930.51 327.13z" stroke="none" fill="#3B82F6" fill-rule="nonzero" />
    <path transform="matrix(1 0 0 1 -87.95 -61.51)"  d="M926.11 378C 930.98 381.6 951.64 383.23 951.64 383.23C 951.64 383.23 944.04004 363.96002 939.16003 360.35C 936.04083 357.59103 931.6311 356.83002 927.7676 358.38388C 923.9041 359.93777 921.24927 363.54013 920.909 367.6905C 920.56866 371.84082 922.60126 375.8275 926.16003 377.99L926.16003 377.99L926.11 378z" stroke="none" fill="#3B82F6" fill-rule="nonzero" />
    <path transform="matrix(1 0 0 1 -87.95 -61.51)"  d="M969 227.76C 969 233.81999 958 251.39 958 251.39C 958 251.39 947 233.82 947 227.76C 946.6956 223.64714 948.71735 219.70955 952.2371 217.56018C 955.75684 215.41083 960.1831 215.41083 963.7028 217.5602C 967.2226 219.70955 969.2443 223.64714 968.94 227.76L968.94 227.76L969 227.76z" stroke="none" fill="#3B82F6" fill-rule="nonzero" fill-opacity="0.09803922" />
    <path transform="matrix(1 0 0 1 -87.95 -61.51)"  d="M987.09 261.32C 983.8 266.41 965 275.2 965 275.2C 965 275.2 965.34 254.49002 968.63 249.40001C 972.1019 244.7842 978.55255 243.6398 983.40045 246.77962C 988.2483 249.91943 989.84216 256.27393 987.05 261.33002L987.05 261.33002L987.09 261.32z" stroke="none" fill="#3B82F6" fill-rule="nonzero" fill-opacity="0.09803922" />
    <path transform="matrix(1 0 0 1 -87.95 -61.51)"  d="M986.3 318.69C 980.89 321.42 960.3 319.53 960.3 319.53C 960.3 319.53 971.05 301.82 976.45996 299.09C 981.7809 296.88098 987.9049 299.1518 990.49927 304.2959C 993.0936 309.43997 991.27936 315.7144 986.33997 318.68L986.33997 318.68L986.3 318.69z" stroke="none" fill="#3B82F6" fill-rule="nonzero" fill-opacity="0.09803922" />
    <path transform="matrix(1 0 0 1 -87.95 -61.51)"  d="M975.93 362C 971.06 365.6 950.39996 367.23 950.39996 367.23C 950.39996 367.23 957.99994 347.96002 962.87994 344.35C 967.7476 341.39218 974.06805 342.63947 977.4472 347.2247C 980.82635 351.80994 980.14636 358.2163 975.87994 361.99L975.87994 361.99L975.93 362z" stroke="none" fill="#3B82F6" fill-rule="nonzero" fill-opacity="0.09803922" />
    <path transform="matrix(1 0 0 1 -87.95 -61.51)"  d="M942 276.37C 946.35 280.59 966.6 284.97 966.6 284.97C 966.6 284.97 961.6 264.86 957.29 260.63C 954.5488 257.55716 950.3209 256.27264 946.3336 257.30127C 942.3464 258.3299 939.2675 261.49936 938.3549 265.5148C 937.4424 269.53024 938.84894 273.7191 942 276.37z" stroke="none" fill="#3B82F6" fill-rule="nonzero" fill-opacity="0.09803922" />
    <path transform="matrix(1 0 0 1 -87.95 -61.51)"  d="M930.51 327.13C 935.92 329.86002 956.51 327.97 956.51 327.97C 956.51 327.97 945.76 310.26 940.35004 307.53C 935.0291 305.32098 928.9051 307.5918 926.3107 312.7359C 923.7164 317.87997 925.53064 324.1544 930.47003 327.12L930.47003 327.12L930.51 327.13z" stroke="none" fill="#3B82F6" fill-rule="nonzero" fill-opacity="0.09803922" />
    <path transform="matrix(1 0 0 1 -87.95 -61.51)"  d="M926.11 378C 930.98 381.6 951.64 383.23 951.64 383.23C 951.64 383.23 944.04004 363.96002 939.16003 360.35C 936.04083 357.59103 931.6311 356.83002 927.7676 358.38388C 923.9041 359.93777 921.24927 363.54013 920.909 367.6905C 920.56866 371.84082 922.60126 375.8275 926.16003 377.99L926.16003 377.99L926.11 378z" stroke="none" fill="#3B82F6" fill-rule="nonzero" fill-opacity="0.09803922" />
    <path transform="matrix(1 0 0 1 -87.95 -61.51)"  d="M1017.08 487.59C 1017.08 487.59 1002.52 438.13998 1019.81 401.75C 1027.1635 386.53088 1029.3811 369.3369 1026.13 352.75C 1024.5242 344.88742 1022.2011 337.1886 1019.19 329.75" stroke="#535461" stroke-width="2" fill="none" />
    <path transform="matrix(1 0 0 1 -87.95 -61.51)"  d="M1030 306.76C 1030 312.82 1019 330.39 1019 330.39C 1019 330.39 1008 312.82 1008 306.76C 1007.69543 302.64706 1009.71716 298.70932 1013.237 296.55984C 1016.7568 294.4104 1021.18317 294.4104 1024.703 296.55984C 1028.2228 298.70932 1030.2445 302.64706 1029.94 306.76L1029.94 306.76L1030 306.76z" stroke="none" fill="#3B82F6" fill-rule="nonzero" />
    <path transform="matrix(1 0 0 1 -87.95 -61.51)"  d="M1048.09 340.32C 1044.7999 345.41 1026.0399 354.19 1026.0399 354.19C 1026.0399 354.19 1026.3799 333.48 1029.6699 328.39C 1031.6589 324.78848 1035.4915 322.59802 1039.6041 322.7122C 1043.7169 322.82635 1047.422 325.22607 1049.2083 328.93237C 1050.9944 332.6387 1050.563 337.03198 1048.09 340.32z" stroke="none" fill="#3B82F6" fill-rule="nonzero" />
    <path transform="matrix(1 0 0 1 -87.95 -61.51)"  d="M1047.3 397.69C 1041.89 400.42 1021.30005 398.53 1021.30005 398.53C 1021.30005 398.53 1032.05 380.82 1037.4601 378.09C 1040.9954 375.96747 1045.4207 376.00027 1048.924 378.175C 1052.4272 380.34973 1054.42 384.3011 1054.0863 388.41098C 1053.7527 392.52087 1051.1484 396.09897 1047.3401 397.68L1047.3401 397.68L1047.3 397.69z" stroke="none" fill="#3B82F6" fill-rule="nonzero" />
    <path transform="matrix(1 0 0 1 -87.95 -61.51)"  d="M1036.93 441C 1032.06 444.6 1011.4 446.23 1011.4 446.23C 1011.4 446.23 1019 426.96002 1023.88 423.35C 1028.7477 420.39218 1035.0681 421.63947 1038.4473 426.2247C 1041.8264 430.80994 1041.1464 437.2163 1036.88 440.99L1036.88 440.99L1036.93 441z" stroke="none" fill="#3B82F6" fill-rule="nonzero" />
    <path transform="matrix(1 0 0 1 -87.95 -61.51)"  d="M1003 355.37C 1007.35 359.59 1027.6 363.97 1027.6 363.97C 1027.6 363.97 1022.6 343.86 1018.29 339.63C 1013.8745 335.9153 1007.33905 336.24396 1003.3185 340.38287C 999.29785 344.52182 999.1589 351.06403 1003 355.37z" stroke="none" fill="#3B82F6" fill-rule="nonzero" />
    <path transform="matrix(1 0 0 1 -87.95 -61.51)"  d="M991.51 406.13C 996.92 408.86002 1017.51 406.97 1017.51 406.97C 1017.51 406.97 1006.76 389.26 1001.35004 386.53C 996.0291 384.32098 989.9051 386.5918 987.3107 391.7359C 984.7164 396.87997 986.53064 403.1544 991.47003 406.12L991.47003 406.12L991.51 406.13z" stroke="none" fill="#3B82F6" fill-rule="nonzero" />
    <path transform="matrix(1 0 0 1 -87.95 -61.51)"  d="M987.11 457C 991.98 460.6 1012.64 462.23 1012.64 462.23C 1012.64 462.23 1005.04004 442.96002 1000.16003 439.35C 997.04083 436.59103 992.6311 435.83002 988.7676 437.38388C 984.9041 438.93777 982.24927 442.54013 981.909 446.6905C 981.56866 450.84082 983.60126 454.8275 987.16003 456.99L987.16003 456.99L987.11 457z" stroke="none" fill="#3B82F6" fill-rule="nonzero" />
    <path transform="matrix(1 0 0 1 -87.95 -61.51)"  d="M1030 306.76C 1030 312.82 1019 330.39 1019 330.39C 1019 330.39 1008 312.82 1008 306.76C 1007.69543 302.64706 1009.71716 298.70932 1013.237 296.55984C 1016.7568 294.4104 1021.18317 294.4104 1024.703 296.55984C 1028.2228 298.70932 1030.2445 302.64706 1029.94 306.76L1029.94 306.76L1030 306.76z" stroke="none" fill="#3B82F6" fill-rule="nonzero" fill-opacity="0.09803922" />
    <path transform="matrix(1 0 0 1 -87.95 -61.51)"  d="M1048.09 340.32C 1044.7999 345.41 1026.0399 354.19 1026.0399 354.19C 1026.0399 354.19 1026.3799 333.48 1029.6699 328.39C 1031.6589 324.78848 1035.4915 322.59802 1039.6041 322.7122C 1043.7169 322.82635 1047.422 325.22607 1049.2083 328.93237C 1050.9944 332.6387 1050.563 337.03198 1048.09 340.32z" stroke="none" fill="#3B82F6" fill-rule="nonzero" fill-opacity="0.09803922" />
    <path transform="matrix(1 0 0 1 -87.95 -61.51)"  d="M1047.3 397.69C 1041.89 400.42 1021.30005 398.53 1021.30005 398.53C 1021.30005 398.53 1032.05 380.82 1037.4601 378.09C 1040.9954 375.96747 1045.4207 376.00027 1048.924 378.175C 1052.4272 380.34973 1054.42 384.3011 1054.0863 388.41098C 1053.7527 392.52087 1051.1484 396.09897 1047.3401 397.68L1047.3401 397.68L1047.3 397.69z" stroke="none" fill="#3B82F6" fill-rule="nonzero" fill-opacity="0.09803922" />
    <path transform="matrix(1 0 0 1 -87.95 -61.51)"  d="M1036.93 441C 1032.06 444.6 1011.4 446.23 1011.4 446.23C 1011.4 446.23 1019 426.96002 1023.88 423.35C 1028.7477 420.39218 1035.0681 421.63947 1038.4473 426.2247C 1041.8264 430.80994 1041.1464 437.2163 1036.88 440.99L1036.88 440.99L1036.93 441z" stroke="none" fill="#3B82F6" fill-rule="nonzero" fill-opacity="0.09803922" />
    <path transform="matrix(1 0 0 1 -87.95 -61.51)"  d="M1003 355.37C 1007.35 359.59 1027.6 363.97 1027.6 363.97C 1027.6 363.97 1022.6 343.86 1018.29 339.63C 1013.8745 335.9153 1007.33905 336.24396 1003.3185 340.38287C 999.29785 344.52182 999.1589 351.06403 1003 355.37z" stroke="none" fill="#3B82F6" fill-rule="nonzero" fill-opacity="0.09803922" />
    <path transform="matrix(1 0 0 1 -87.95 -61.51)"  d="M991.51 406.13C 996.92 408.86002 1017.51 406.97 1017.51 406.97C 1017.51 406.97 1006.76 389.26 1001.35004 386.53C 996.0291 384.32098 989.9051 386.5918 987.3107 391.7359C 984.7164 396.87997 986.53064 403.1544 991.47003 406.12L991.47003 406.12L991.51 406.13z" stroke="none" fill="#3B82F6" fill-rule="nonzero" fill-opacity="0.09803922" />
    <path transform="matrix(1 0 0 1 -87.95 -61.51)"  d="M987.11 457C 991.98 460.6 1012.64 462.23 1012.64 462.23C 1012.64 462.23 1005.04004 442.96002 1000.16003 439.35C 997.04083 436.59103 992.6311 435.83002 988.7676 437.38388C 984.9041 438.93777 982.24927 442.54013 981.909 446.6905C 981.56866 450.84082 983.60126 454.8275 987.16003 456.99L987.16003 456.99L987.11 457z" stroke="none" fill="#3B82F6" fill-rule="nonzero" fill-opacity="0.09803922" />
    <path transform="matrix(0.9952783 -0.0970618 0.0970618 0.9952783 -140.71 1.38)"  d="M126.02997 573.77C 126.02997 529.8413 347.26398 494.23 620.17 494.23C 893.076 494.23 1114.31 529.8413 1114.31 573.77C 1114.31 617.6987 893.076 653.31 620.17 653.31C 347.26398 653.31 126.02997 617.6987 126.02997 573.77" stroke="none" fill="#3B82F6" fill-rule="nonzero" fill-opacity="0.09803922" />
    <path transform="matrix(1 0 0 1 -87.95 -61.51)"  d="M1069.18 532.76C 1087.67 494.86002 1083.8501 433.17 1081.88 412.23C 1081.45 407.65002 1081.11 405.02002 1081.11 405.02002C 1081.11 405.02002 1064.8099 402.45 1070.82 382.72003C 1073.7599 373.06003 1063.32 367.72003 1051.9199 364.79004C 1043.769 362.8407 1035.452 361.66547 1027.08 361.28003L1027.08 361.28003L869.18994 351.53003C 847.5399 317.17004 804.93994 322.69003 804.93994 322.69003C 804.93994 322.69003 766.93994 318.74002 739.99994 318.33005C 735.9113 314.72797 731.4297 311.59814 726.64 309C 723.78595 307.28497 720.7465 305.89944 717.58 304.87C 709.77344 302.61752 701.3614 304.19385 694.9 309.12C 693.3472 310.23712 692.08246 311.7076 691.21 313.41C 690.8742 314.18408 690.62274 314.99207 690.46 315.82C 690.0538 317.23206 689.72 318.6639 689.46 320.11002C 689.22546 320.8061 688.8884 321.46332 688.46 322.06003C 687.38 323.59003 685.52 324.74002 685.28 326.59003C 685.27435 326.69662 685.27435 326.80344 685.28 326.91003C 685.0824 327.26343 684.95026 327.64963 684.89 328.05005C 684.8179 328.87335 684.9956 329.69928 685.4 330.42004C 685.46 330.54004 685.53 330.65005 685.60004 330.76004C 684.27057 332.68484 683.1856 334.76752 682.37006 336.96005C 682.0001 337.16138 681.64276 337.38513 681.30005 337.63007L681.30005 337.63007L681.00006 337.85007L681.00006 338.46005L680.8301 338.59006L680.4601 348.44006L680.6701 348.60007C 681.2838 357.9207 686.32556 366.38312 694.2301 371.36008C 694.3601 371.99008 694.4801 372.63007 694.6001 373.30008C 695.14935 376.5301 695.3971 379.80417 695.3401 383.08008L695.3401 383.08008L695.1701 383.08008C 690.4701 381.08008 682.4301 384.02008 675.5201 387.45007L675.5201 387.45007L586 387.45007C 603.46 364.99008 624.82 347.57007 624.82 347.57007L624.82 347.57007L624.82 327.83C 609.56 327.06998 475.5 391.46997 446.11 405.69L446.11 405.69L444.81 406.32L293.76 411C 266.40002 410.83 242.48001 414.85 221.76001 421.4C 187.13574 432.27606 156.02156 452.1538 131.6 479C 113.76001 498.58 105.94 514.76 105.94 514.76L105.94 514.76L106.11 516.12L105.94 516.47L106.18 516.68L110.25 548.8L113.05 570.89996C 93.590004 583.48 118.8 588.51996 118.8 588.51996C 142.8 609.1 181.41 608.24994 181.41 608.24994C 190.84 621.11993 218.29001 619.39996 218.29001 619.39996L218.29001 619.39996L362.38 619.39996C 364.62418 606.1714 367.62927 593.08264 371.38 580.19995C 377.53 624.4899 412.48 658.4199 454.66 658.4199C 457.78867 658.41815 460.91425 658.2278 464.02 657.8499C 467.12573 658.2278 470.2513 658.41815 473.37997 658.4199C 516.05 658.4199 551.31 623.68994 556.86 578.6599L556.86 578.6599L563.91 578.6599C 562.5939 588.72076 560.3065 598.6301 557.07996 608.24994C 686.58997 570.50995 927.6 552.49994 927.6 552.49994C 928.6 542.99994 929.69995 533.81995 930.88995 525.00995C 940.81995 549.66 963.32996 566.86993 989.52997 566.86993C 991.91 566.8666 994.28766 566.7196 996.64996 566.42993C 999.01227 566.7196 1001.38995 566.8666 1003.76996 566.86993C 1034.88 566.86993 1060.77 542.5999 1066.61 510.41992C 1067.3833 516.0993 1067.8241 521.8191 1067.9299 527.5499C 1066.82 533.00995 1065.85 536.49994 1065.72 536.9899C 1066.5 535.56323 1067.24 534.1033 1067.94 532.6099C 1067.94 533.18994 1067.94 533.7899 1067.94 534.38995C 1067.7 535.38995 1067.5299 535.94995 1067.48 536.13995L1067.48 536.13995L1067.9199 535.31995C 1067.9199 535.75995 1067.9199 536.18994 1067.9199 536.62994C 1067.82 536.67 1068.35 535.23 1069.18 532.76z" stroke="none" fill="url(#1)" />
    <path d="M669.22 335.07L966.12 335.07L966.12 454.84L669.22 454.84z" stroke="none" fill="#6F7D95" fill-rule="nonzero" />
    <path d="M593.73 278.98L635.9 373.45L719.41 368.39L722.78 329.59L725.31 284.04L607.23 275.6L593.73 278.98L593.73 278.98" stroke="none" fill="#4B5C7A" fill-rule="nonzero" />
    <path transform="matrix(1 0 0 1 -87.95 -61.51)"  d="M681.68 340.49C 681.68 340.49 697.68 325.31 717.11 321.93C 736.54 318.55 801.45996 325.3 801.45996 325.3L801.45996 325.3L810.74 341.3L809 348.92L681.68 340.49z" stroke="none" fill="#FF4D52" fill-rule="nonzero" />
    <path d="M453.29 327.48L752.72 327.48L752.72 415.2L453.29 415.2z" stroke="none" fill="#4B5C7A" fill-rule="nonzero" />
    <path transform="matrix(1 0 0 1 -87.95 -61.51)"  d="M767 448.67C 774.91 422.22 759.14 404.84003 759.14 404.84003L759.14 404.84003L733 386.6C 732.97815 386.66205 732.95135 386.72223 732.92 386.78C 729.5202 382.79562 727.0869 378.07968 725.81 373C 725.73 372.68 725.66 372.35 725.58 372C 727.9696 370.2246 730.06226 368.0813 731.78 365.65C 736.04004 363.04 737.94 358.84 738.66003 354.65C 741.4005 350.58307 743.5833 346.16705 745.15 341.52C 745.4089 340.76843 745.62915 340.00406 745.81 339.22998C 746.3136 337.7889 746.5376 336.265 746.47 334.74C 746.2572 333.0418 745.6918 331.40683 744.81 329.94C 740.41 321.94 732.49 316.37 724.46 311.83002C 721.6531 310.14417 718.66394 308.7821 715.55005 307.77002C 707.87396 305.55728 699.6036 307.1075 693.25006 311.95C 691.7224 313.04877 690.4781 314.49527 689.62006 316.17C 689.28906 316.93115 689.04095 317.72574 688.88007 318.54C 688.49176 319.92957 688.1747 321.33813 687.93005 322.76C 687.71216 323.43936 687.39545 324.08295 686.99005 324.67C 685.92004 326.17 684.10004 327.30002 683.86005 329.13C 683.85425 329.2366 683.85425 329.3434 683.86005 329.45C 683.667 329.7974 683.53827 330.17682 683.48004 330.57C 683.40607 331.3794 683.5805 332.19214 683.98004 332.9C 684.04004 333.02 684.11005 333.13 684.18005 333.24C 682.8713 335.1336 681.8031 337.18265 681.00006 339.34C 680.63354 339.5381 680.27954 339.7585 679.94006 340L679.94006 340L679.6501 340.21L679.6501 340.81L679.4801 340.94L679.1101 350.63L679.3101 350.79C 679.9092 359.95807 684.86584 368.28366 692.64014 373.18C 692.77014 373.8 692.89014 374.43 693.0001 375.09C 693.604 378.57907 693.8453 382.12125 693.7201 385.66C 693.68066 385.3546 693.68066 385.0454 693.7201 384.74C 686.4901 381.47 670.7201 390.50998 664.3701 394.50998C 663.4076 394.96613 662.50977 395.54785 661.70013 396.24L661.70013 396.24L661.59015 396.31998C 657.22015 399.86 648.59015 409.69998 641.7402 434.99C 632.2402 470.28 633.23016 478.28 626.3102 486.46C 619.3902 494.63998 612.5202 552.27 612.5202 552.27L612.5202 552.27L626.4502 556.02L628.2302 550.30005C 644.7902 565.4 691.1602 572.67004 691.1602 572.67004L691.1602 572.67004L692.5802 568.2601C 699.6902 570.82007 711.5802 566.93005 711.5802 566.93005C 728.9602 560.79004 735.4702 545.2101 748.0802 524.66003C 760.6902 504.11 767 448.67 767 448.67zM696.9 555L729 455.43C 731.91 470.88998 719.07 495.24 717.93 511.16C 717.22 521.4 705.3 541.75 696.9 555z" stroke="none" fill="url(#232)" />
    <path transform="matrix(1 0 0 1 -87.95 -61.51)"  d="M737.06 343.9C 737.06 343.9 742.65 365.19 726.06 368.9C 709.47 372.61 720.4 359.33 720.4 359.33L720.4 359.33L736.4 343.74L737.06 343.9z" stroke="none" fill="#472727" fill-rule="nonzero" />
    <path transform="matrix(1 0 0 1 -87.95 -61.51)"  d="M667.7 394.64C 667.7 394.64 655.36 399.64 646.29004 433.32C 637.2201 467 638.12006 474.6 631.59 482.43C 625.06 490.25998 618.37006 545.2 618.37006 545.2L618.37006 545.2L631.43005 548.72003L642.8 512L674.07 415L667.7 394.64z" stroke="none" fill="#DDE0E4" fill-rule="nonzero" />
    <path transform="matrix(1 0 0 1 -87.95 -61.51)"  d="M667.7 394.64C 667.7 394.64 655.36 399.64 646.29004 433.32C 637.2201 467 638.12006 474.6 631.59 482.43C 625.06 490.25998 618.37006 545.2 618.37006 545.2L618.37006 545.2L631.43005 548.72003L642.8 512L674.07 415L667.7 394.64z" stroke="none" fill="#000000" fill-rule="nonzero" fill-opacity="0.047058824" />
    <path transform="matrix(1 0 0 1 -87.95 -61.51)"  d="M736.22 390.84C 736.22 390.84 684.56 417.1 692.12 399.97C 695.86 391.51 695.72 382.74 694.63 375.97C 694.00793 371.98224 692.91705 368.08188 691.38 364.35C 691.38 364.35 726.5 336.57 724.44 359.25C 723.9468 364.1316 724.2849 369.06143 725.44 373.83C 728.48 385.86 736.22 390.84 736.22 390.84z" stroke="none" fill="#DB8B8B" fill-rule="nonzero" />
    <path transform="matrix(1 0 0 1 -87.95 -61.51)"  d="M725.44 373.87C 718.70135 379.28183 709.7792 381.14062 701.44 378.87C 699.0356 378.2234 696.7309 377.25104 694.59 375.97998C 693.96796 371.9922 692.8771 368.09186 691.34 364.36C 691.34 364.36 726.46 336.58 724.4 359.25998C 723.9165 364.15375 724.2682 369.09412 725.44 373.87z" stroke="none" fill="#000000" fill-rule="nonzero" fill-opacity="0.09803922" />
    <path transform="matrix(0.2599989 -0.96560895 0.96560895 0.2599989 97.29 883.04)"  d="M735.92 351.42C 735.92004 358.88693 733.2801 365.2603 728.0002 370.5402C 722.7203 375.82007 716.3469 378.46002 708.88 378.46002C 701.41315 378.46002 695.0398 375.82007 689.7598 370.5402C 684.48 365.2603 681.84 358.88693 681.84 351.42C 681.84 343.95312 684.48 337.5797 689.7598 332.29984C 695.0398 327.01996 701.41315 324.38 708.88 324.38C 716.3469 324.38 722.7203 327.01996 728.0002 332.29984C 733.2801 337.5797 735.92004 343.95312 735.92 351.42C 735.92004 351.73468 735.91455 352.04926 735.90356 352.3637" stroke="none" fill="#DB8B8B" fill-rule="nonzero" />
    <path transform="matrix(1 0 0 1 -87.95 -61.51)"  d="M695.3 338.23C 693.8011 339.14575 691.9935 339.41055 690.29486 338.96326C 688.59625 338.51596 687.1535 337.39523 686.3 335.86002C 685.929 335.1823 685.76886 334.4093 685.83997 333.64C 686.06995 331.90002 687.79 330.82 688.83997 329.38C 690.47 327.05002 690.16 323.86002 691.33997 321.27002C 692.15234 319.6882 693.32355 318.3184 694.75995 317.27002C 700.68805 312.63583 708.47614 311.1191 715.70996 313.19003C 718.6279 314.14203 721.4264 315.42715 724.05 317.02002C 731.57 321.31003 738.98 326.56003 743.05 334.19003C 743.8745 335.59015 744.399 337.14642 744.58997 338.76004C 744.635 340.5032 744.3289 342.23764 743.68994 343.86005C 742.18585 348.3416 740.09076 352.60254 737.45996 356.53006C 736.5801 355.43732 735.475 354.5471 734.22 353.92007C 732.9205 353.30585 731.37384 353.59183 730.37994 354.63007C 729.50995 355.74005 728.9799 357.86008 727.66 357.36008C 726.8 357.04007 726.81 355.85007 726.85 354.93008C 727.02997 350.93008 724.85 347.1601 721.92 344.46008C 718.99 341.76007 715.36 339.98007 711.77997 338.23007C 709.20996 336.97006 705.77997 334.08008 702.95996 333.57007C 699.46 332.92 697.81 336.68 695.3 338.23z" stroke="none" fill="#000000" fill-rule="nonzero" fill-opacity="0.09803922" />
    <path transform="matrix(1 0 0 1 -87.95 -61.51)"  d="M695.67 336.86C 694.1711 337.77576 692.3635 338.04056 690.66486 337.59326C 688.96625 337.14597 687.5235 336.02524 686.67 334.49C 686.299 333.81232 686.13885 333.0393 686.20996 332.27C 686.43994 330.53 688.16 329.44998 689.20996 328.00998C 690.83997 325.68 690.52997 322.49 691.70996 319.9C 692.52234 318.31818 693.69354 316.94836 695.12994 315.9C 701.05804 311.26578 708.8461 309.74905 716.07996 311.82C 718.9979 312.77197 721.7964 314.0571 724.42 315.65C 731.94 319.94 739.35 325.19 743.42 332.82C 744.2445 334.22012 744.769 335.7764 744.95996 337.39C 745.005 339.13315 744.6989 340.86758 744.05994 342.49002C 742.55585 346.97156 740.46075 351.23248 737.82996 355.16003C 736.9501 354.0673 735.845 353.17706 734.58997 352.55005C 733.29047 351.9358 731.74384 352.22177 730.74994 353.26004C 729.87994 354.37003 729.3499 356.49005 728.02997 355.99005C 727.17 355.67004 727.18 354.48004 727.22 353.56006C 727.39996 349.56006 725.22 345.79007 722.29 343.09006C 719.36 340.39005 715.73 338.61005 712.14996 336.86005C 709.57996 335.60004 706.14996 332.71005 703.32996 332.20004C 699.83 331.54 698.18 335.31 695.67 336.86z" stroke="none" fill="#472727" fill-rule="nonzero" />
    <path transform="matrix(1 0 0 1 -87.95 -61.51)"  d="M709.83 394.42C 709.83 394.42 731.22003 390.23 732.15 386.80002L732.15 386.80002L756.61005 404.07C 756.61005 404.07 771.33 420.56 763.80005 445.80002C 763.80005 445.80002 757.67004 498.69 745.75006 518.32C 733.8301 537.95 726.98004 563.38 710.6501 569.32C 710.6501 569.32 694.9501 559.2 689.7701 559.32C 689.7701 559.32 716.3601 520.79004 717.50006 505.62C 718.64 490.44995 730.79004 467.19 728.13007 452.47L728.13007 452.47L692.13007 564.37C 692.13007 564.37 634.13007 555.37 628.25006 536.12C 628.25006 536.12 633.25006 528.61 632.32007 521C 631.3901 513.39 654.2001 456.14 654.2001 456.14L654.2001 456.14L665.12006 396.44C 665.12006 396.44 686.72003 381.35 695.32007 385.27C 695.28 385.21 693.72 392.66 709.83 394.42z" stroke="none" fill="#DDE0E4" fill-rule="nonzero" />
	<g>
        <path transform="matrix(1 0 0 1 -87.95 -61.51)"  d="M717.62 348C 712.33997 340.8 702.27 346.71 700.62 347.74L700.62 347.74L698.02997 347.47998C 695.76996 345.02 688.83997 338.47998 682.32996 343.28998L682.32996 343.28998L682.0499 343.49997L681.6599 352.72998L681.93994 352.94998C 683.8204 354.40167 685.9528 355.49335 688.2299 356.16998C 689.6717 356.5938 691.1934 356.6692 692.6699 356.38998C 694.88184 355.87967 696.7534 354.4146 697.7799 352.38998L697.7799 352.38998L699.1299 352.47998L700.1299 352.28998C 700.5347 354.44138 701.84644 356.3142 703.72986 357.43C 708.1998 359.96 714.72986 357.43 714.9999 357.38L714.9999 357.38L715.3399 357.25L717.7399 348.32L717.62 348zM714.23 356.12C 712.89996 356.57 707.88 358.05 704.51 356.12C 702.8093 355.05402 701.7007 353.2581 701.51 351.26L701.51 351.26L701.39 350.53L699.2 350.98L697 350.9L696.79 351.32C 695.97644 353.16104 694.35474 354.52042 692.4 355C 688.63 355.81 684.27 352.89 683.13 352.06L683.13 352.06L683.46 344.26C 689.12 340.45 695.36005 346.63 697.16003 348.65002L697.16003 348.65002L697.35004 348.86002L701.00006 349.22L701.22003 349.07C 701.32 349.01 710.39 342.92 715.56006 347.82C 715.81647 348.05774 716.0539 348.3152 716.2701 348.59z" stroke="none" fill="#000000" fill-rule="nonzero" fill-opacity="0.09803922" />
        <path transform="matrix(1 0 0 1 -87.95 -61.51)"  d="M734 352.64L717 351.23L715.6 350.96002L716.23 348.60004C 716.01385 348.3252 715.7764 348.06775 715.51996 347.83005L715.51996 347.83005L717.57996 348.03006L731.4899 349.39005L734 352.64z" stroke="none" fill="#000000" fill-rule="nonzero" fill-opacity="0.09803922" />
	</g>
    <path transform="matrix(1 0 0 1 -87.95 -61.51)"  d="M717.8 347.36C 712.51996 340.15997 702.45 346.06998 700.8 347.09998L700.8 347.09998L698.20996 346.83997C 695.94995 344.37997 689.01996 337.83997 682.50995 342.64996L682.50995 342.64996L682.2299 342.85995L681.8399 352.08997L682.11993 352.30997C 684.0003 353.76166 686.13275 354.85333 688.4099 355.52997C 689.8516 355.9538 691.37335 356.02917 692.8499 355.74997C 695.0618 355.23965 696.9334 353.7746 697.9599 351.74997L697.9599 351.74997L699.3099 351.83997L700.3099 351.64996C 700.7147 353.80136 702.0264 355.6742 703.90985 356.78998C 708.3798 359.31998 714.90985 356.78998 715.1799 356.74L715.1799 356.74L715.5199 356.61L717.9199 347.68L717.8 347.36zM714.41 355.47998C 713.07996 355.93 708.06 357.40997 704.69 355.47998C 702.9893 354.414 701.8807 352.61807 701.69 350.62L701.69 350.62L701.57 349.88998L699.38 350.34L697.21 350.19998L697 350.62C 696.2005 352.47165 694.5856 353.84637 692.63 354.34C 688.86 355.15 684.5 352.23 683.36 351.4L683.36 351.4L683.69 343.6C 689.35 339.79 695.59 345.97 697.39 347.99002L697.39 347.99002L697.58 348.2L701.23004 348.56L701.45 348.41C 701.55 348.35 710.62 342.26 715.79004 347.16C 716.04645 347.3977 716.2839 347.65515 716.50006 347.93z" stroke="none" fill="#472727" fill-rule="nonzero" />
    <path transform="matrix(1 0 0 1 -87.95 -61.51)"  d="M734.16 352L717.22 350.59L715.81995 350.32L716.44995 347.96002C 716.2338 347.68518 715.9964 347.42773 715.7399 347.19003L715.7399 347.19003L717.7999 347.39005L731.7099 348.75003L734.16 352z" stroke="none" fill="#472727" fill-rule="nonzero" />
    <path d="M233.14 395.8L530.04 395.8L530.04 515.57L233.14 515.57z" stroke="none" fill="#6F7D95" fill-rule="nonzero" />
    <path d="M286.16998 503.33997C 286.16998 453.2643 323.26318 412.66998 369.02 412.66998C 414.7768 412.66998 451.87 453.2643 451.87 503.33997C 451.87 553.41565 414.7768 594.00995 369.02 594.00995C 323.26318 594.00995 286.16998 553.41565 286.16998 503.33997" stroke="none" fill="#4B5C7A" fill-rule="nonzero" />
    <path d="M286.16998 503.33997C 286.16998 453.2643 323.26318 412.66998 369.02 412.66998C 414.7768 412.66998 451.87 453.2643 451.87 503.33997C 451.87 553.41565 414.7768 594.00995 369.02 594.00995C 323.26318 594.00995 286.16998 553.41565 286.16998 503.33997" stroke="none" fill="#000000" fill-rule="nonzero" fill-opacity="0.047058824" />
    <path d="M304.58 503.33997C 304.58 453.2643 341.6732 412.66998 387.43 412.66998C 433.1868 412.66998 470.28 453.2643 470.28 503.33997C 470.28 553.41565 433.1868 594.00995 387.43 594.00995C 341.6732 594.00995 304.58 553.41565 304.58 503.33997" stroke="none" fill="#4B5C7A" fill-rule="nonzero" />
    <path d="M422.41 503.8C 422.41003 513.9676 418.81525 522.6461 411.62567 529.83563C 404.43613 537.0252 395.75757 540.62 385.59 540.62C 375.42242 540.62 366.7439 537.0252 359.55432 529.83563C 352.36478 522.6461 348.77002 513.9676 348.77 503.8C 348.77002 493.63245 352.36478 484.95386 359.55432 477.7643C 366.7439 470.57477 375.42242 466.98 385.59 466.97998C 395.75757 466.98 404.43613 470.57477 411.62567 477.7643C 418.81525 484.95386 422.41003 493.63245 422.41 503.8C 422.41003 504.22845 422.40256 504.6568 422.38757 505.085" stroke="none" fill="#000000" fill-rule="nonzero" fill-opacity="0.047058824" />
    <path d="M396.63998 503.8C 396.64 506.85138 395.5612 509.45587 393.40353 511.61353C 391.2459 513.7712 388.6414 514.85 385.59 514.85C 382.53864 514.85 379.93414 513.7712 377.77646 511.61353C 375.61884 509.45587 374.54 506.85138 374.54 503.8C 374.54 500.74866 375.61884 498.14413 377.77646 495.98645C 379.93414 493.82883 382.53864 492.75 385.59 492.75C 388.6414 492.75 391.2459 493.82883 393.40353 495.98645C 395.5612 498.14413 396.64 500.74866 396.63998 503.8C 396.64 503.9286 396.63776 504.05713 396.63327 504.18564" stroke="#6F7D95" stroke-width="2" fill="none" />
    <path d="M388.35 484.47C 388.35004 485.23218 388.08057 485.8827 387.54163 486.42163C 387.0027 486.96057 386.35214 487.23 385.59 487.23C 384.82785 487.23 384.1773 486.96057 383.63837 486.42163C 383.09946 485.8827 382.83002 485.23218 382.83 484.47C 382.83002 483.7079 383.09946 483.0573 383.63837 482.51837C 384.1773 481.9795 384.82785 481.71002 385.59 481.71C 386.35214 481.71002 387.0027 481.9795 387.54163 482.51837C 388.08057 483.0573 388.35004 483.7079 388.35 484.47C 388.35004 484.50214 388.3495 484.53424 388.34833 484.5663" stroke="none" fill="#6F7D95" fill-rule="nonzero" />
    <path transform="matrix(0.7660444 -0.6427877 0.6427877 0.7660444 -328.01 381.57)"  d="M491.41 551.31C 491.41003 552.0722 491.14056 552.7227 490.60162 553.2616C 490.06268 553.80054 489.41214 554.07 488.65 554.07C 487.88785 554.07 487.2373 553.80054 486.69836 553.2616C 486.15945 552.7227 485.89 552.0722 485.88998 551.31C 485.89 550.54785 486.15945 549.89734 486.69836 549.3584C 487.2373 548.81946 487.88785 548.55005 488.65 548.55C 489.41214 548.55005 490.06268 548.81946 490.60162 549.3584C 491.14056 549.89734 491.41003 550.54785 491.41 551.31C 491.41003 551.3421 491.4095 551.3742 491.40833 551.4063" stroke="none" fill="#6F7D95" fill-rule="nonzero" />
    <path transform="matrix(0.17364809 -0.9848078 0.9848078 0.17364809 -237.21 893.24)"  d="M497.05002 566.32C 497.05005 567.08215 496.78058 567.7327 496.24164 568.2716C 495.7027 568.81055 495.05215 569.08 494.29 569.08C 493.52786 569.08 492.87732 568.81055 492.33838 568.2716C 491.79947 567.7327 491.53003 567.08215 491.53 566.32C 491.53003 565.55786 491.79947 564.90735 492.33838 564.3684C 492.87732 563.82947 493.52786 563.56 494.29 563.56C 495.05215 563.56 495.7027 563.82947 496.24164 564.3684C 496.78058 564.90735 497.05005 565.55786 497.05002 566.32C 497.05005 566.3522 497.0495 566.3843 497.04834 566.4163" stroke="none" fill="#6F7D95" fill-rule="nonzero" />
    <path transform="matrix(0.8660254 -0.50000006 0.50000006 0.8660254 -312.93 259.44)"  d="M489.17 580.27C 489.17 581.0322 488.90057 581.68274 488.36163 582.2216C 487.8227 582.7606 487.17218 583.03 486.41 583.03C 485.6479 583.03 484.9973 582.7606 484.45837 582.2216C 483.9195 581.68274 483.65002 581.0322 483.65 580.27C 483.65002 579.5079 483.9195 578.85736 484.45837 578.3184C 484.9973 577.7795 485.6479 577.51 486.41 577.51C 487.17218 577.51 487.8227 577.7795 488.36163 578.3184C 488.90057 578.85736 489.17 579.5079 489.17 580.27C 489.17 580.3021 489.16946 580.3342 489.16833 580.36633" stroke="none" fill="#6F7D95" fill-rule="nonzero" />
    <path transform="matrix(0.34202012 -0.9396927 0.9396927 0.34202012 -326.31 764.51)"  d="M473.42 583.21C 473.42 583.97217 473.15057 584.62274 472.61163 585.1616C 472.0727 585.70056 471.42218 585.97003 470.66 585.97003C 469.8979 585.97003 469.2473 585.70056 468.70837 585.1616C 468.1695 584.62274 467.90002 583.97217 467.9 583.21C 467.90002 582.4479 468.1695 581.79736 468.70837 581.2584C 469.2473 580.7195 469.8979 580.45 470.66 580.45C 471.42218 580.45 472.0727 580.7195 472.61163 581.2584C 473.15057 581.79736 473.42 582.4479 473.42 583.21C 473.42 583.2422 473.41946 583.2743 473.41833 583.30634" stroke="none" fill="#6F7D95" fill-rule="nonzero" />
    <path transform="matrix(0.93969256 -0.34202018 0.34202018 0.93969256 -256.31 129.79)"  d="M461.04 573.04C 461.04004 573.8021 460.77057 574.4527 460.23163 574.9916C 459.69272 575.5305 459.04218 575.8 458.28 575.8C 457.51788 575.8 456.86734 575.5305 456.32837 574.9916C 455.78946 574.4527 455.52 573.8021 455.52 573.04C 455.52 572.27783 455.78946 571.6273 456.32837 571.0884C 456.86734 570.54944 457.51788 570.27997 458.28 570.27997C 459.04218 570.27997 459.69272 570.54944 460.23163 571.0884C 460.77057 571.6273 461.04004 572.27783 461.04 573.04C 461.04004 573.07214 461.03946 573.10425 461.03833 573.1363" stroke="none" fill="#6F7D95" fill-rule="nonzero" />
    <path transform="matrix(0.49999997 -0.86602545 0.86602545 0.49999997 -341.28 613.74)"  d="M460.88 557.01C 460.88004 557.7722 460.61057 558.4227 460.07162 558.9616C 459.53268 559.50055 458.88214 559.77 458.12 559.77C 457.35785 559.77 456.7073 559.50055 456.16837 558.9616C 455.62946 558.4227 455.36 557.7722 455.36 557.01C 455.36 556.24786 455.62946 555.5973 456.16837 555.0584C 456.7073 554.5195 457.35785 554.25 458.12 554.25C 458.88214 554.25 459.53268 554.5195 460.07162 555.0584C 460.61057 555.5973 460.88004 556.24786 460.88 557.01C 460.88004 557.0421 460.87946 557.0742 460.87833 557.1063" stroke="none" fill="#6F7D95" fill-rule="nonzero" />
    <path transform="matrix(1 0 0 1 -87.95 -61.51)"  d="M1070.69 494.78L1070.69 494.78C 1067.86 514.32 1059.99 535.71 1059.99 535.71C 1060.0433 534.3767 1060.0767 533.06006 1060.09 531.76C 1060.09 530.08 1060.09 528.42 1060.09 526.76C 1059.09 472.90002 1029.74 439.67 1010.80994 423.76C 1005.88995 419.56744 1000.598 415.83197 995 412.6L995 412.6L1046.45 412.6C 1046.45 412.6 1066.69 453.93 1070.9099 474.17C 1072.13 479.85 1071.79 487.18 1070.69 494.78z" stroke="none" fill="#FF4D52" fill-rule="nonzero" />
    <path transform="matrix(1 0 0 1 -87.95 -61.51)"  d="M1070.69 494.78L1070.69 494.78C 1067.86 514.32 1059.99 535.71 1059.99 535.71C 1060.0433 534.3767 1060.0767 533.06006 1060.09 531.76C 1060.09 530.08 1060.09 528.42 1060.09 526.76C 1059.09 472.90002 1029.74 439.67 1010.80994 423.76C 1005.88995 419.56744 1000.598 415.83197 995 412.6L995 412.6L1046.45 412.6C 1046.45 412.6 1066.69 453.93 1070.9099 474.17C 1072.13 479.85 1071.79 487.18 1070.69 494.78z" stroke="none" fill="#000000" fill-rule="nonzero" fill-opacity="0.047058824" />
    <path d="M832.01 435.02C 832.01 396.93445 860.2206 366.06 895.02 366.06C 929.81946 366.06 958.03 396.93445 958.03 435.02C 958.03 473.10553 929.81946 503.97998 895.02 503.97998C 860.2206 503.97998 832.01 473.10553 832.01 435.02" stroke="none" fill="#4B5C7A" fill-rule="nonzero" />
    <path d="M832.01 435.02C 832.01 396.93445 860.2206 366.06 895.02 366.06C 929.81946 366.06 958.03 396.93445 958.03 435.02C 958.03 473.10553 929.81946 503.97998 895.02 503.97998C 860.2206 503.97998 832.01 473.10553 832.01 435.02" stroke="none" fill="#000000" fill-rule="nonzero" fill-opacity="0.047058824" />
    <path d="M846.01 435.02C 846.01 396.93445 874.2206 366.06 909.02 366.06C 943.81946 366.06 972.03 396.93445 972.03 435.02C 972.03 473.10553 943.81946 503.97998 909.02 503.97998C 874.2206 503.97998 846.01 473.10553 846.01 435.02" stroke="none" fill="#4B5C7A" fill-rule="nonzero" />
    <path d="M935.62 435.37C 935.62006 443.102 932.88635 449.70166 927.419 455.16898C 921.95166 460.63632 915.35205 463.37 907.62 463.37C 899.88806 463.37 893.2883 460.63632 887.821 455.16898C 882.35364 449.70166 879.62 443.102 879.62 435.37C 879.62 427.638 882.35364 421.03836 887.821 415.571C 893.2883 410.1037 899.88806 407.37003 907.62 407.37C 915.35205 407.37003 921.95166 410.1037 927.419 415.571C 932.88635 421.03836 935.62006 427.638 935.62 435.37C 935.62006 435.69586 935.6144 436.02158 935.60297 436.34717" stroke="none" fill="#000000" fill-rule="nonzero" fill-opacity="0.047058824" />
    <path d="M916.02 435.37C 916.0201 437.68964 915.19995 439.66953 913.5597 441.3097C 911.9195 442.94992 909.9396 443.77002 907.62 443.77C 905.3004 443.77002 903.32056 442.94992 901.6803 441.3097C 900.0401 439.66953 899.22 437.68964 899.22 435.37C 899.22 433.0504 900.0401 431.0705 901.6803 429.4303C 903.32056 427.7901 905.3004 426.97 907.62 426.97C 909.9396 426.97 911.9195 427.7901 913.5597 429.4303C 915.19995 431.0705 916.0201 433.0504 916.02 435.37C 916.0201 435.46777 916.0184 435.5655 916.0149 435.66315" stroke="#6F7D95" stroke-width="2" fill="none" />
    <path d="M909.72 420.67C 909.72 421.24994 909.51495 421.7449 909.1049 422.15494C 908.6949 422.565 908.19995 422.77002 907.62 422.77002C 907.04016 422.77002 906.54517 422.565 906.1351 422.15494C 905.7251 421.7449 905.5201 421.24994 905.52 420.67C 905.5201 420.09015 905.7251 419.59515 906.1351 419.1851C 906.54517 418.77505 907.04016 418.57004 907.62 418.57C 908.19995 418.57004 908.6949 418.77505 909.1049 419.1851C 909.51495 419.59515 909.72 420.09015 909.72 420.67C 909.72 420.69446 909.71954 420.7189 909.7187 420.74332" stroke="none" fill="#6F7D95" fill-rule="nonzero" />
    <path transform="matrix(0.7660444 -0.6427877 0.6427877 0.7660444 -164.89 699.58)"  d="M1009.17 486.23C 1009.17004 486.80994 1008.965 487.3049 1008.55493 487.71494C 1008.14496 488.125 1007.64996 488.33002 1007.07 488.33002C 1006.4901 488.33002 1005.9951 488.125 1005.5851 487.71494C 1005.17505 487.3049 1004.9701 486.80994 1004.97003 486.23C 1004.9701 485.65015 1005.17505 485.15515 1005.5851 484.7451C 1005.9951 484.33505 1006.4901 484.13004 1007.07 484.13C 1007.64996 484.13004 1008.14496 484.33505 1008.55493 484.7451C 1008.965 485.15515 1009.17004 485.65015 1009.17 486.23C 1009.17004 486.25446 1009.1696 486.2789 1009.1687 486.3033" stroke="none" fill="#6F7D95" fill-rule="nonzero" />
    <path transform="matrix(0.17364809 -0.9848078 0.9848078 0.17364809 257.7 1345.71)"  d="M1013.44995 497.64C 1013.44995 498.2199 1013.24493 498.7149 1012.8349 499.12494C 1012.42487 499.53503 1011.92993 499.74005 1011.35 499.74002C 1010.77014 499.74005 1010.27515 499.53503 1009.86505 499.12494C 1009.4551 498.7149 1009.25006 498.2199 1009.25 497.64C 1009.25006 497.06012 1009.4551 496.56516 1009.86505 496.1551C 1010.27515 495.74506 1010.77014 495.54004 1011.35 495.54C 1011.92993 495.54004 1012.42487 495.74506 1012.8349 496.1551C 1013.24493 496.56516 1013.44995 497.06012 1013.44995 497.64C 1013.44995 497.66446 1013.4495 497.6889 1013.44867 497.71332" stroke="none" fill="#6F7D95" fill-rule="nonzero" />
    <path transform="matrix(0.8660254 -0.50000006 0.50000006 0.8660254 -207.39 509.27)"  d="M1007.45996 508.26C 1007.46 508.83994 1007.255 509.3349 1006.8449 509.74493C 1006.43494 510.155 1005.93994 510.36005 1005.36 510.36002C 1004.7801 510.36005 1004.28516 510.155 1003.87506 509.74493C 1003.4651 509.3349 1003.26 508.83994 1003.26 508.26C 1003.26 507.68015 1003.4651 507.18518 1003.87506 506.7751C 1004.28516 506.36505 1004.7801 506.16 1005.36 506.16C 1005.93994 506.16 1006.43494 506.36505 1006.8449 506.7751C 1007.255 507.18518 1007.46 507.68015 1007.45996 508.26C 1007.46 508.28445 1007.4596 508.3089 1007.4587 508.3333" stroke="none" fill="#6F7D95" fill-rule="nonzero" />
    <path transform="matrix(0.34202012 -0.9396927 0.9396927 0.34202012 85.96 1207.86)"  d="M995.48 510.5C 995.48 511.0799 995.27496 511.5749 994.8649 511.98492C 994.4549 512.395 993.95996 512.6 993.38 512.6C 992.8002 512.6 992.3052 512.395 991.8951 511.98492C 991.4851 511.5749 991.2801 511.0799 991.28 510.5C 991.2801 509.9201 991.4851 509.42514 991.8951 509.01508C 992.3052 508.60504 992.8002 508.40002 993.38 508.4C 993.95996 508.40002 994.4549 508.60504 994.8649 509.01508C 995.27496 509.42514 995.48 509.9201 995.48 510.5C 995.48 510.52448 995.47955 510.5489 995.4787 510.5733" stroke="none" fill="#6F7D95" fill-rule="nonzero" />
    <path transform="matrix(0.93969256 -0.34202018 0.34202018 0.93969256 -200.57 305.35)"  d="M986.06995 502.75C 986.07 503.32993 985.865 503.8249 985.4549 504.23492C 985.0449 504.645 984.5499 504.85004 983.97 504.85C 983.3901 504.85004 982.89514 504.645 982.48505 504.23492C 982.0751 503.8249 981.87 503.32993 981.87 502.75C 981.87 502.17014 982.0751 501.67517 982.48505 501.26508C 982.89514 500.85504 983.3901 500.65 983.97 500.65C 984.5499 500.65 985.0449 500.85504 985.4549 501.26508C 985.865 501.67517 986.07 502.17014 986.06995 502.75C 986.07 502.77444 986.0696 502.7989 986.06866 502.8233" stroke="none" fill="#6F7D95" fill-rule="nonzero" />
    <path transform="matrix(0.49999997 -0.86602545 0.86602545 0.49999997 -20.87 1035.81)"  d="M985.94995 490.57C 985.94995 491.14993 985.745 491.6449 985.3349 492.05493C 984.9249 492.465 984.42993 492.67004 983.85 492.67C 983.2701 492.67004 982.7751 492.465 982.36505 492.05493C 981.955 491.6449 981.75 491.14993 981.75 490.57C 981.75 489.99014 981.955 489.49518 982.36505 489.08508C 982.7751 488.67505 983.2701 488.47 983.85 488.47C 984.42993 488.47 984.9249 488.67505 985.3349 489.08508C 985.745 489.49518 985.94995 489.99014 985.94995 490.57C 985.94995 490.59445 985.9496 490.6189 985.94867 490.6433" stroke="none" fill="#6F7D95" fill-rule="nonzero" />
    <path transform="matrix(1 0 0 1 -87.95 -61.51)"  d="M121.62 574.13L114 514.24L204.25 514.24L250.64 555.57L227.87 608.71C 227.87 608.71 136 593.53 121.62 574.13z" stroke="none" fill="#FF4D52" fill-rule="nonzero" />
    <path transform="matrix(1 0 0 1 -87.95 -61.51)"  d="M250.67 555.57L227.9 608.71C 227.9 608.71 136 593.53 121.62 574.13L121.62 574.13L121.29 571.52L114.29 516.14L114.22 515.59L114.05 514.25L204.3 514.25L250.67 555.57z" stroke="none" fill="#000000" fill-rule="nonzero" fill-opacity="0.047058824" />
    <path transform="matrix(1 0 0 1 -87.95 -61.51)"  d="M624.33 330.37L624.33 349.77C 624.33 349.77 577.69 387.77 566.59 423.62C 564.65247 429.44144 563.9209 435.59653 564.44 441.71C 568.66 481.35 443 409.65 443 409.65L443 409.65L448.59 406.93C 477.48 393 609.32 329.61 624.33 330.37z" stroke="none" fill="#7597CE" fill-rule="nonzero" />
    <path transform="matrix(1 0 0 1 -87.95 -61.51)"  d="M730.61 424C 730.61 424 774.29 402.54 781.3 386.66C 782.24 384.53 783.13 382.38 784.17 380.29C 788.5 371.58002 797.6 351.15002 793.01996 341.34C 787.11993 328.69 807.36 343.03 807.36 343.03L807.36 343.03L795.55 402.9L766.87 418.9L729.76 424" stroke="none" fill="#FF4D52" fill-rule="nonzero" />
    <path transform="matrix(1 0 0 1 -87.95 -61.51)"  d="M730.61 424C 730.61 424 774.29 402.54 781.3 386.66C 782.24 384.53 783.13 382.38 784.17 380.29C 788.5 371.58002 797.6 351.15002 793.01996 341.34C 787.11993 328.69 807.36 343.03 807.36 343.03L807.36 343.03L795.55 402.9L766.87 418.9L729.76 424" stroke="none" fill="#000000" fill-rule="nonzero" fill-opacity="0.047058824" />
    <path transform="matrix(1 0 0 1 -87.95 -61.51)"  d="M250.67 555.57L227.9 608.71C 227.9 608.71 136 593.53 121.62 574.13L121.62 574.13L121.29 571.52C 121.66 571.27 122.05 571.01 122.46 570.76C 122.46 570.76 150.29 592.69 213.56 597.76C 213.56 597.76 251.56 567.39 189.94 533.66003C 189.94 533.66003 136.34 535.34 114.26 516.15L114.26 516.15L114.020004 515.95L114.19 515.60004C 114.33667 515.3134 114.57334 514.8667 114.9 514.26L114.9 514.26L204.27 514.26L250.67 555.57z" stroke="none" fill="#000000" fill-rule="nonzero" fill-opacity="0.047058824" />
    <path transform="matrix(1 0 0 1 -87.95 -61.51)"  d="M564.44 441.7C 568.66 481.35 443 409.65 443 409.65L443 409.65L448.59 406.93C 452.29 410.87 467.06 424.16 496.59 422.72C 515.58997 421.79 544.44 422.64 566.64 423.61002C 564.6856 429.42798 563.9371 435.5832 564.44 441.7z" stroke="none" fill="#000000" fill-rule="nonzero" fill-opacity="0.047058824" />
    <path transform="matrix(1 0 0 1 -87.95 -61.51)"  d="M618 457.31L618 577.08L562.84 577.08C 566.48004 549.22003 564.38 508.61002 529 485.33002C 502.09488 467.74365 467.60425 466.71628 439.7 482.67C 416.51 495.91 390.58002 522.83 374.1 577.08L374.1 577.08L321.1 577.08L321.1 457.31L618 457.31z" stroke="none" fill="#000000" fill-rule="nonzero" fill-opacity="0.047058824" />
    <path transform="matrix(1 0 0 1 -87.95 -61.51)"  d="M1070.69 494.78L1070.69 494.78C 1068.61 508 1065.2699 520.84 1060.1 531.78C 1059.4333 533.2534 1058.7067 534.69006 1057.9199 536.09C 1058.0499 535.60004 1058.9999 532.18005 1060.1 526.80005C 1065.46 500.60004 1074.63 428.10004 1013.19 423.96005C 1012.39 423.91006 1011.6 423.86005 1010.81 423.83005C 1005.8929 419.61322 1000.6008 415.85425 995 412.6L995 412.6L1046.45 412.6C 1046.45 412.6 1066.69 453.93 1070.9099 474.17C 1072.13 479.85 1071.79 487.18 1070.69 494.78z" stroke="none" fill="#000000" fill-rule="nonzero" fill-opacity="0.047058824" />
    <path transform="matrix(1 0 0 1 -87.95 -61.51)"  d="M1059.59 535.27C 1060.39 532.38 1088.89 428.14 1014.86 423.15002C 939.79 418.09003 930.51 474.60004 922.07996 551.36005C 922.07996 551.36005 685.07996 569.07007 557.69995 606.19006C 557.69995 606.19006 588.27997 522.3901 530.69995 484.49005C 503.79483 466.9037 469.3042 465.8763 441.39996 481.83005C 412.99997 498.05005 380.46997 534.8301 366.23996 617.15L366.23996 617.15L224.52 617.15C 224.52 617.15 197.52 618.84 188.25 606.15C 188.25 606.15 150.25 606.99005 126.68 586.75C 126.68 586.75 101.380005 581.69 121.62 569.04C 121.62 569.04 150.3 590.97 213.56 596.04C 213.56 596.04 251.56 565.67 189.94 531.94C 189.94 531.94 135.94 533.63 114.03 514.23C 114.03 514.23 121.72 498.31998 139.27 479.06998C 163.27411 452.66525 193.85986 433.10876 227.9 422.39996C 250.83687 415.3091 274.7442 411.86053 298.75 412.17996L298.75 412.17996L447.62 407.53995C 447.62 407.53995 462 426.1 496.54 424.41C 531.08 422.72 598.6 426.94 598.6 426.94L598.6 426.94L599.26996 426.94L738.18994 420.65C 742.179 420.0868 746.1249 419.25153 750 418.15C 770.14 412.68 808.34 396.09 801.45 349.76L801.45 349.76L1019.91003 363.26C 1028.1438 363.63843 1036.3235 364.79352 1044.3401 366.71002C 1055.56 369.59003 1065.8201 374.85004 1062.93 384.35004C 1057.03 403.75003 1073.05 406.28003 1073.05 406.28003C 1073.05 406.28003 1073.39 408.87003 1073.81 413.37003C 1075.81 434.59 1079.74 498.39 1059.59 535.27z" stroke="none" fill="#FF4D52" fill-rule="nonzero" />
    <path transform="matrix(1 0 0 1 -87.95 -61.51)"  d="M391.53 442.55C 391.53 442.55 300.43 443.38998 240.53 496.55L240.53 496.55L274.27 496.55C 274.27 496.55 368.74 472.09 391.50998 452.69L391.50998 452.69L391.53 442.55z" stroke="none" fill="#000000" fill-rule="nonzero" fill-opacity="0.047058824" />
    <path transform="matrix(1 0 0 1 -87.95 -61.51)"  d="M390.68 441.7C 390.68 441.7 299.58 442.54 239.68 495.7L239.68 495.7L273.41998 495.7C 273.41998 495.7 367.88998 471.24002 390.65997 451.84003L390.65997 451.84003L390.68 441.7z" stroke="none" fill="#FFEC9F" fill-rule="nonzero" />
    <path transform="matrix(1 0 0 1 -87.95 -61.51)"  d="M228.74 423.25L228.74 445.92L152 481.35L140.12 479.92C 164.12135 453.51675 194.70348 433.9604 228.74 423.25z" stroke="none" fill="#000000" fill-rule="nonzero" fill-opacity="0.047058824" />
    <path transform="matrix(1 0 0 1 -87.95 -61.51)"  d="M227.89 422.41L227.89 445.08002L151.14 480.5L139.26 479.07C 163.26532 452.66888 193.85092 433.11594 227.89 422.41z" stroke="none" fill="#FFEC9F" fill-rule="nonzero" />
    <path transform="matrix(1 0 0 1 -87.95 -61.51)"  d="M336.7 525.21C 336.7 525.21 295.37 550.51 291.15002 606.21L291.15002 606.21L314.77002 606.21C 314.77002 606.21 324.05002 545.48004 351.04 525.21L351.04 525.21L336.7 525.21z" stroke="none" fill="none" />
    <path transform="matrix(1 0 0 1 -87.95 -61.51)"  d="M336.7 525.21C 336.7 525.21 295.37 550.51 291.15002 606.21L291.15002 606.21L314.77002 606.21C 314.77002 606.21 324.05002 545.48004 351.04 525.21L351.04 525.21L336.7 525.21z" stroke="none" fill="#000000" fill-rule="nonzero" fill-opacity="0.047058824" />
    <path transform="matrix(1 0 0 1 -87.95 -61.51)"  d="M825.08 526.9L610.83 552.2C 610.83 552.2 596.66 462 599.28 426.91L599.28 426.91L738.2 420.62C 742.1849 420.06625 746.1275 419.24097 750 418.15L750 418.15L750 426.52L854.58997 401.22C 854.58997 401.22 872.31 427.36 825.08 526.9z" stroke="none" fill="none" />
    <path transform="matrix(1 0 0 1 -87.95 -61.51)"  d="M825.08 526.9L610.83 552.2C 610.83 552.2 596.66 462 599.28 426.91L599.28 426.91L738.2 420.62C 742.1849 420.06625 746.1275 419.24097 750 418.15L750 418.15L750 426.52L854.58997 401.22C 854.58997 401.22 872.31 427.36 825.08 526.9z" stroke="none" fill="#000000" fill-rule="nonzero" fill-opacity="0.047058824" />
    <path transform="matrix(1 0 0 1 -87.95 -61.51)"  d="M801.46 325.3C 801.46 325.3 847.01 319.4 867.25 358.19998L867.25 358.19998L802.11 355.68997L801.46 325.3z" stroke="none" fill="#FF4D52" fill-rule="nonzero" />
    <path transform="matrix(1 0 0 1 -87.95 -61.51)"  d="M864.09 371.8C 862.30005 377.40997 863.65 383.58 874.02 387.84998C 882.65 391.40997 892.77 387.28998 895.72003 378.43997C 897.44 373.27997 896.26 367.43997 886.96 362.68997C 877.66003 357.93997 867.22 362 864.09 371.8z" stroke="none" fill="none" />
    <path transform="matrix(1 0 0 1 -87.95 -61.51)"  d="M864.09 371.8C 862.30005 377.40997 863.65 383.58 874.02 387.84998C 882.65 391.40997 892.77 387.28998 895.72003 378.43997C 897.44 373.27997 896.26 367.43997 886.96 362.68997C 877.66003 357.93997 867.22 362 864.09 371.8z" stroke="none" fill="#000000" fill-rule="nonzero" fill-opacity="0.047058824" />
    <path transform="matrix(1 0 0 1 -87.95 -61.51)"  d="M115.63 526.88C 115.63 526.88 169.69 554.88 208.48999 544.28" stroke="#FF4D52" stroke-width="1" fill="none" />
    <path transform="matrix(1 0 0 1 -87.95 -61.51)"  d="M117.54 542C 117.54 542 152.47 568.94 223.07 562.68" stroke="#FF4D52" stroke-width="1" fill="none" />
    <path transform="matrix(1 0 0 1 -87.95 -61.51)"  d="M119.15 554.69C 119.15 554.69 153.8 584.76 225 575.23" stroke="#FF4D52" stroke-width="1" fill="none" />
    <path transform="matrix(1 0 0 1 -87.95 -61.51)"  d="M864.64 353.67C 864.64 353.67 836.46 378 810.74 389C 810.74 389 849.8 395.95 864.64 353.67z" stroke="none" fill="#000000" fill-rule="nonzero" fill-opacity="0.047058824" />
    <path transform="matrix(1 0 0 1 -87.95 -61.51)"  d="M566.1 425.28C 566.1 425.28 699.81995 437.91 750.42 426.1C 750.42 426.1 753.12 427.89 737.01 420.67L737.01 420.67L566.1 425.28z" stroke="none" fill="#000000" fill-rule="nonzero" fill-opacity="0.09803922" />
    <path transform="matrix(1 0 0 1 -87.95 -61.51)"  d="M1073.82 413.37C 1065.49 407.9 1052.2799 396.55 1054.08 383.91998C 1054.98 377.59 1050.5 371.66998 1044.35 366.69998C 1055.57 369.58 1065.83 374.84 1062.94 384.33997C 1057.0399 403.73996 1073.0599 406.26996 1073.0599 406.26996C 1073.0599 406.26996 1073.39 408.87 1073.82 413.37z" stroke="none" fill="#000000" fill-rule="nonzero" fill-opacity="0.047058824" />
    <path transform="matrix(1 0 0 1 -87.95 -61.51)"  d="M401.73 501.41C 401.81 498.07 401.73 494.6 401.48 491.41C 401.48 490.80002 401.38 490.21 401.32 489.63C 403.2 491.05002 404.32 492.13 404.32 492.13L404.32 492.13L402.67 405.29L393.57 359.80002C 393.57 327.54 376.2 318.45 376.2 318.45C 376.2 318.45 367.1 314.31 364.62003 308.53C 362.14005 302.75 340.16003 290.53 340.15002 290.53C 339.9759 288.4248 339.90912 286.31198 339.95 284.2C 339.95 283.65002 339.95 283.08002 340 282.51C 351.39664 274.9532 355.4443 260.1303 349.47 247.83002C 350.69 247.83002 351.68 247.32002 352.14 245.51001C 353.6 239.78001 352.19 231.15001 348.87003 226.57C 348.1602 225.61209 347.3598 224.72467 346.48 223.92001C 345.44962 222.88622 344.36472 221.90813 343.23 220.99002C 340.39 218.63002 337.23 216.15002 333.71002 216.35002C 331.7131 216.61136 329.79428 217.293 328.08002 218.35002C 319.28668 222.9767 310.5167 227.64337 301.77002 232.35002C 298.54 234.10002 295.21002 235.94002 292.95 239.08002C 290.69 242.22002 289.78 246.24002 289.15002 250.19002C 288.62027 252.8662 288.49554 255.60677 288.78003 258.32C 289.04446 260.789 290.1746 263.08466 291.97003 264.80002C 292.33203 265.23752 292.74496 265.6303 293.20004 265.97003C 294.98004 267.27002 297.27005 267.59003 299.13004 268.64005C 300.536 272.72284 302.89044 276.41385 306 279.41C 306 279.92 305.93 280.41 305.89 280.97C 305.78003 282.4 305.61002 283.97 305.39 285.56C 305.39 285.56 299.28003 285.4 290.18002 297.8C 281.08002 310.19998 261.23 311.86 261.23 311.86C 261.23 311.86 253.79001 308.55 245.52 345.77C 237.25 382.99 234.77 407.77 238.90001 411.93C 240.65384 413.44366 242.63034 414.67813 244.76001 415.59C 251.77051 419.1286 259.314 421.49332 267.09 422.59C 267.189 422.88815 267.35687 423.15878 267.58 423.38L267.58 423.38L268.16998 430.59C 268.66998 445.81 269.24997 476.34 266.16998 483.11C 262.02997 492.21 266.99997 498 266.99997 498L266.99997 498L267.99997 497.93C 268.18472 498.2445 268.39194 498.5453 268.61996 498.83L268.61996 498.83L272.61996 498.56C 272.32996 515.56 271.54996 539.14 269.48996 544.32C 266.17996 552.59 269.48996 598.08 269.48996 598.08L269.48996 598.08L263.69995 679.96C 263.69995 679.96 260.52994 722.7 263.49994 727.65C 261.87994 736.54004 258.96994 753.48004 259.56995 757.7C 260.39993 763.49 279.41995 771.76 279.41995 771.76C 279.41995 771.76 301.74994 776.76 312.49994 775.07C 318.11993 774.2 320.34995 770.4 320.36993 767.07C 327.65994 768.24 337.14993 769.36 343.09995 768.44C 353.84995 766.79 352.19995 754.38 346.40994 755.21C 340.61993 756.04004 334 744.4 329.08 738.61C 326.58 735.69 324.5 730.47 323.08 726C 324.12592 725.84235 325.08606 725.3305 325.8 724.55C 328.28 720.41 332.41998 682.37 332.41998 682.37L332.41998 682.37L343.16998 616.20996C 343.16998 616.20996 348.96 583.94995 353.91998 576.50995C 357.66998 570.88995 362.36 528.94995 364.43 508.74994L364.43 508.74994L364.61 508.74994L364.66998 508.74994L364.88998 508.03995L368 498C 369.66 500.93 373.84 502.38 378.71 503C 378.19 505.12 377.75998 506.85 377.50998 507.84C 376.27 512.83997 394.34998 521.07 398.71 516.94C 400.53998 515.21 401.49 508.94 401.71 502.08002L401.71 502.08002L401.86 502.08002L401.73 501.41zM293.07 726.95C 292.79 728.56 292.51 730.24 292.23 731.95C 291.6 729.95 291.1 728.15 290.76 726.82C 291.58 726.85 292.35 726.89 293.07 726.95z" stroke="none" fill="url(#509)" />
    <path transform="matrix(1 0 0 1 -87.95 -61.51)"  d="M320.8 709.71C 320.8 709.71 323.99 724.05005 328.8 729.62C 333.61 735.18994 339.94998 746.33997 345.52 745.55C 351.09 744.76 352.69 756.7 342.33 758.29C 331.96997 759.87994 310.46997 755.1 310.46997 755.1C 310.46997 755.1 292.14996 747.1 291.36 741.56C 290.57 736.02 296.13998 707.31 296.13998 707.31L296.13998 707.31L320.8 709.71z" stroke="none" fill="#53526B" fill-rule="nonzero" />
    <path transform="matrix(1 0 0 1 -87.95 -61.51)"  d="M320.8 709.71C 320.8 709.71 323.99 724.05005 328.8 729.62C 333.61 735.18994 339.94998 746.33997 345.52 745.55C 351.09 744.76 352.69 756.7 342.33 758.29C 331.96997 759.87994 310.46997 755.1 310.46997 755.1C 310.46997 755.1 292.14996 747.1 291.36 741.56C 290.57 736.02 296.13998 707.31 296.13998 707.31L296.13998 707.31L320.8 709.71z" stroke="none" fill="#000000" fill-rule="nonzero" fill-opacity="0.047058824" />
    <path transform="matrix(1 0 0 1 -87.95 -61.51)"  d="M291.33 716.08C 291.33 716.08 294.52 730.42004 299.33 735.99C 304.13998 741.55994 310.47998 752.70996 316.05 751.92C 321.62 751.13 323.22 763.07 312.86 764.66C 302.49997 766.24994 281 761.48 281 761.48C 281 761.48 262.68 753.48 261.89 747.94C 261.10004 742.4 266.67 713.69 266.67 713.69L266.67 713.69L291.33 716.08z" stroke="none" fill="#53526B" fill-rule="nonzero" />
    <path transform="matrix(1 0 0 1 -87.95 -61.51)"  d="M363.81 497.86C 363.81 497.86 357.44 566.35 352.66 573.52C 347.88 580.69006 342.31 611.75 342.31 611.75L342.31 611.75L331.96 675.46C 331.96 675.46 327.96 712.10004 325.59 716.08C 323.22 720.06 293.66 718.35004 293.66 718.35004L293.66 718.35004L312 507.42L363.81 497.86z" stroke="none" fill="#5F5D7E" fill-rule="nonzero" />
    <path transform="matrix(1 0 0 1 -87.95 -61.51)"  d="M363.81 497.86C 363.81 497.86 357.44 566.35 352.66 573.52C 347.88 580.69006 342.31 611.75 342.31 611.75L342.31 611.75L331.96 675.46C 331.96 675.46 327.96 712.10004 325.59 716.08C 323.22 720.06 293.66 718.35004 293.66 718.35004L293.66 718.35004L312 507.42L363.81 497.86z" stroke="none" fill="#000000" fill-rule="nonzero" fill-opacity="0.047058824" />
    <path transform="matrix(1 0 0 1 -87.95 -61.51)"  d="M376.55 465.21L374.47 471.81998L363.22 507.52997L363 508.20996L362.94 508.20996C 361.43 508.54996 329.55 515.87994 322.67 518.12994C 322.2988 518.24475 321.9348 518.38165 321.58002 518.5399C 318.39 520.12994 314.41 577.4699 314.41 577.4699C 314.41 577.4699 312.02 631.6299 310.41 635.6099C 308.80002 639.58997 302.41 721.6099 298.46 719.2299C 294.50998 716.8499 265.81 719.2299 265.81 719.2299C 262.62 716.0399 265.81 673.0399 265.81 673.0399L265.81 673.0399L271.38 594.18994C 271.38 594.18994 268.19 550.38995 271.38 542.4199C 274.57 534.4499 274.57 481.0999 274.57 481.0999L274.57 481.0999L339.8 471L346.09998 470L376.55 465.21z" stroke="none" fill="#5F5D7E" fill-rule="nonzero" />
    <path transform="matrix(1 0 0 1 -87.95 -61.51)"  d="M374.47 471.82L363.22 507.53L362.95 508.23C 361.44 508.57 329.56 515.9 322.68002 518.15L322.68002 518.15L321.99002 518.15L339.8 471L340.31 469.64L346.1 470.01L374.47 471.82z" stroke="none" fill="#000000" fill-rule="nonzero" fill-opacity="0.019607844" />
    <path transform="matrix(1 0 0 1 -87.95 -61.51)"  d="M300.09 305.93C 300.09 305.93 329.56 337.78998 347.88 311.5L347.88 311.5L365.4 323.45L362.21 341.77002L372.56 480.35004C 372.56 480.35004 345.48 479.55005 326.37 485.92004C 315.50336 489.77466 303.38748 486.97778 295.31 478.75003L295.31 478.75003L298.5 356.9L291.33 319.47L300.09 305.93z" stroke="none" fill="#000000" fill-rule="nonzero" fill-opacity="0.09803922" />
    <path transform="matrix(1 0 0 1 -87.95 -61.51)"  d="M300.09 303.54C 300.09 303.54 329.56 335.40002 347.88 309.11002L347.88 309.11002L365.4 321.06003L362.21 339.38004L372.57 478C 372.57 478 345.49002 477.2 326.38 483.57C 315.51337 487.42462 303.3975 484.62775 295.32 476.4L295.32 476.4L298.51 354.55L291.34 317.12L300.09 303.54z" stroke="none" fill="#53526B" fill-rule="nonzero" />
	<g>
		<g>
            <path d="M270.96 383.91L270.96 388.92L272.57 388.92L272.57 385.58L278.42 385.58L278.42 388.92L280.03 388.92L280.03 383.92L270.96 383.91" stroke="none" fill="#E82127" fill-rule="nonzero" />
            <path transform="matrix(1 0 0 1 -87.95 -61.51)"  d="M360.35 443.8L366.53 443.8C 367.35526 443.60242 368.00253 442.96283 368.21 442.13998L368.21 442.13998L358.68 442.13998C 358.88947 442.96167 359.53586 443.60034 360.36 443.8" stroke="none" fill="#E82127" fill-rule="nonzero" />
		</g>
		<g>
            <path transform="matrix(1 0 0 1 -87.95 -61.51)"  d="M354.05 450.43C 354.76126 450.1541 355.28943 449.54352 355.46 448.8L355.46 448.8L348.25 448.8L348.25 442.13998L346.63 442.13998L346.63 450.43L354.04 450.43" stroke="none" fill="#E82127" fill-rule="nonzero" />
		</g>
		<g>
            <path transform="matrix(1 0 0 1 -87.95 -61.51)"  d="M334.63 443.77L340.34 443.77C 341.16605 443.562 341.82935 442.9477 342.1 442.13998L342.1 442.13998L333 442.13998L333 447L340.42 447L340.42 448.72L334.6 448.72C 333.7015 448.95822 332.948 449.56973 332.53 450.4L332.53 450.4L342 450.4L342 445.4L334.59 445.4L334.59 443.75998" stroke="none" fill="#E82127" fill-rule="nonzero" />
		</g>
		<g>
            <path transform="matrix(1 0 0 1 -87.95 -61.51)"  d="M320.54 443.79L326.72 443.79C 327.54526 443.59247 328.19254 442.95288 328.4 442.13L328.4 442.13L318.87 442.13C 319.07947 442.95172 319.72586 443.5904 320.55 443.79" stroke="none" fill="#E82127" fill-rule="nonzero" />
            <path transform="matrix(1 0 0 1 -87.95 -61.51)"  d="M320.54 447.06L326.72 447.06C 327.54642 446.86444 328.1946 446.224 328.4 445.4L328.4 445.4L318.87 445.4C 319.07947 446.22168 319.72586 446.86035 320.55 447.06" stroke="none" fill="#E82127" fill-rule="nonzero" />
            <path transform="matrix(1 0 0 1 -87.95 -61.51)"  d="M320.54 450.43L326.72 450.43C 327.54526 450.23242 328.19254 449.59283 328.4 448.77L328.4 448.77L318.87 448.77C 319.07947 449.59167 319.72586 450.23035 320.55 450.43" stroke="none" fill="#E82127" fill-rule="nonzero" />
		</g>
		<g>
            <path transform="matrix(1 0 0 1 -87.95 -61.51)"  d="M304.47 442.15C 304.68488 442.96292 305.32452 443.5949 306.14 443.8L306.14 443.8L308.74002 443.8L308.87003 443.84998L308.87003 450.40997L310.49002 450.40997L310.49002 443.84998L310.64 443.8L313.24002 443.8C 314.05228 443.5892 314.68948 442.95963 314.91003 442.15L314.91003 442.15L304.47 442.15" stroke="none" fill="#E82127" fill-rule="nonzero" />
		</g>
	</g>
	<g>
        <path transform="matrix(1 0 0 1 -87.95 -61.51)"  d="M336.34 425.75L344.44998 380.12C 352.18 380.12 354.62 380.97 354.97998 384.43C 354.97998 384.43 360.16998 382.5 362.77997 378.57C 356.3208 375.67035 349.3804 373.99207 342.30997 373.62L342.30997 373.62L336.30997 380.91L330.30997 373.62C 323.2395 373.99182 316.2991 375.67014 309.83997 378.57C 312.44995 382.5 317.63995 384.43 317.63995 384.43C 317.98996 380.97 320.42996 380.12 328.10995 380.11L328.10995 380.11L336.28995 425.75" stroke="none" fill="#E82127" fill-rule="nonzero" />
        <path transform="matrix(1 0 0 1 -87.95 -61.51)"  d="M336.34 371.51C 345.74802 371.39355 355.07468 373.2643 363.71 377C 364.34662 375.9277 364.89188 374.80374 365.34 373.64C 346.74072 366.10565 325.93927 366.10565 307.34 373.64C 307.8178 374.79578 308.37238 375.91827 309 377C 317.6353 373.2643 326.96198 371.39355 336.37 371.51" stroke="none" fill="#E82127" fill-rule="nonzero" />
	</g>
    <path transform="matrix(1 0 0 1 -87.95 -61.51)"  d="M361.42 468.39C 361.42 468.39 361.42 489.1 366.2 497.86002C 370.98 506.62003 398.85 501.86002 398.85 501.86002L398.85 501.86002L393.28 472.39L361.42 468.39z" stroke="none" fill="#D39999" fill-rule="nonzero" />
    <path transform="matrix(1 0 0 1 -87.95 -61.51)"  d="M395.82 516.18C 391.62 520.18 374.21002 512.18 375.41 507.41998C 376.25 504.05 379.19 491.99 380.86002 485.15L380.86002 485.15L382.02002 480.34C 382.02002 480.34 392.22003 477.15 395.82 480.34C 397.13 481.5 398.05002 486.07 398.48 491.59C 399.22 501.18 398.49 513.65 395.82 516.18z" stroke="none" fill="#FDC2CC" fill-rule="nonzero" />
    <path transform="matrix(1 0 0 1 -87.95 -61.51)"  d="M357.43 317.87L329.56 339.37C 329.56 339.37 288.15 336.97998 298.5 317.07C 303.0067 308.31345 305.72617 298.74774 306.5 288.93C 306.83664 285.3078 306.83664 281.66217 306.5 278.03998C 306.5 278.03998 344.73 243.03998 339.95 282.81998C 339.5733 285.87335 339.35303 288.9441 339.29 292.02C 338.76 321.88 357.43 317.87 357.43 317.87z" stroke="none" fill="#FDC2CC" fill-rule="nonzero" />
    <path transform="matrix(1 0 0 1 -87.95 -61.51)"  d="M339.91 282.83C 339.53333 285.88336 339.31305 288.9541 339.25 292.03C 334.96 294.87146 329.92572 296.38138 324.78 296.37C 317.65 296.37 312.4 289.43 307.66 284.82C 308.19 278.21002 306.47 278.05002 306.47 278.05002C 306.47 278.05002 344.69 243 339.91 282.83z" stroke="none" fill="#000000" fill-rule="nonzero" fill-opacity="0.09803922" />
    <path d="M263.11002 206.98C 263.11002 214.23701 260.54425 220.43127 255.41277 225.56276C 250.28128 230.69426 244.08704 233.26001 236.83 233.26C 229.573 233.26001 223.37874 230.69426 218.24724 225.56276C 213.11575 220.43127 210.55 214.23701 210.55 206.98C 210.55 199.72298 213.11575 193.52872 218.24724 188.39723C 223.37874 183.26575 229.573 180.7 236.83 180.7C 244.08704 180.7 250.28128 183.26575 255.41277 188.39723C 260.54425 193.52872 263.11002 199.72298 263.11002 206.98C 263.11002 207.28581 263.10468 207.59154 263.094 207.89716" stroke="none" fill="#FDC2CC" fill-rule="nonzero" />
    <path transform="matrix(1 0 0 1 -87.95 -61.51)"  d="M306.07 293.58C 306.07 293.58 301.69 293.97998 292.93 305.91998C 284.16998 317.86 265 319.46 265 319.46C 265 319.46 257.83 316.27 249.87 352.11C 241.91 387.94998 239.51999 411.84 243.5 415.81998C 247.48001 419.79996 263.41 425.37997 271.37 425.37997C 271.37 425.37997 273.76 475.55 269.78 484.30997C 265.8 493.06995 270.58 498.64996 270.58 498.64996L270.58 498.64996L305.58 496.25995C 305.58 496.25995 317.53 481.12994 319.91998 454.84995C 322.30997 428.56995 330.27 353.69995 326.28998 344.93994C 322.30997 336.17993 304.78998 313.87994 305.58 311.48993C 306.37 309.0999 306.07 293.58 306.07 293.58z" stroke="none" fill="#000000" fill-rule="nonzero" fill-opacity="0.09803922" />
    <path transform="matrix(1 0 0 1 -87.95 -61.51)"  d="M306 293.34C 306 293.34 300.11 293.18 291.35 305.13C 282.59003 317.08002 263.48 318.67 263.48 318.67C 263.48 318.67 256.31 315.48 248.35 351.32C 240.39001 387.16 238 411.05 242 415C 246 418.95 261.91 424.56 269.87 424.56C 269.87 424.56 272.26 474.72998 268.28 483.49C 264.3 492.25 269.08 497.83 269.08 497.83L269.08 497.83L304.08 495.43997C 304.08 495.43997 316.03 480.30997 318.41998 454.02997C 320.80997 427.74997 328.77 352.87997 324.78998 344.11996C 320.80997 335.35995 303.28998 313.05997 304.08 310.66995C 304.87 308.27994 306 293.34 306 293.34z" stroke="none" fill="#D39999" fill-rule="nonzero" />
    <path transform="matrix(1 0 0 1 -87.95 -61.51)"  d="M285 395.92C 285 395.92 324.85 350.22 319.25 381.58002C 315.25 403.88 300.14 415.83002 292.97 418.22003C 285.8 420.61005 285 395.92 285 395.92z" stroke="none" fill="#FDC2CC" fill-rule="nonzero" />
    <path transform="matrix(1 0 0 1 -87.95 -61.51)"  d="M398.48 491.59C 394.67 488.68 387.48 484.15 380.86002 485.15L380.86002 485.15L382.02002 480.34C 382.02002 480.34 392.22003 477.15 395.82 480.34C 397.14 481.5 398.05 486.07 398.48 491.59z" stroke="none" fill="#000000" fill-rule="nonzero" fill-opacity="0.09803922" />
    <path transform="matrix(1 0 0 1 -87.95 -61.51)"  d="M339.51 298.36C 339.51 298.36 359.82 311.5 362.21002 317.08C 364.60004 322.65997 373.36002 326.63998 373.36002 326.63998C 373.36002 326.63998 390.08002 335.4 390.08002 366.46L390.08002 366.46L398.84003 410.25998L359 466C 359 466 354.22 410.25 351.83 396.71C 349.43997 383.16998 346.25998 357.71 346.25998 357.71C 346.25998 357.71 334.30997 342.58 335.90997 338.59998C 337.50998 334.61996 339.51 298.36 339.51 298.36z" stroke="none" fill="#000000" fill-rule="nonzero" fill-opacity="0.09803922" />
    <path transform="matrix(1 0 0 1 -87.95 -61.51)"  d="M339.44 298.12C 339.44 298.12 360.62 309.91 363 315.47998C 365.38 321.04996 374.16 325 374.16 325C 374.16 325 390.88 333.76 390.88 364.82L390.88 364.82L399.64 408.62L401.23 492.24C 401.23 492.24 386.89 478.69998 376.54 485.06998C 366.19 491.43997 359.82 464.36 359.82 464.36C 359.82 464.36 355.04 408.61 352.65 395.06998C 350.25998 381.52997 347.08 356.06998 347.08 356.06998C 347.08 356.06998 335.13 341 336.73 337C 338.33002 333 339.44 298.12 339.44 298.12z" stroke="none" fill="#D39999" fill-rule="nonzero" />
    <path transform="matrix(1 0 0 1 -87.95 -61.51)"  d="M347.85 236.53C 346.50162 234.81468 344.9427 233.27592 343.21 231.95C 340.47 229.67 337.44 227.29 334.03998 227.48999C 332.11642 227.74608 330.2691 228.4073 328.61996 229.43C 320.15332 233.89 311.70996 238.39667 303.28998 242.95C 300.18 244.62999 296.96997 246.41 294.8 249.43C 292.63 252.44998 291.75 256.33 291.13998 260.13C 290.6295 262.704 290.50815 265.34 290.78 267.95C 291.02795 270.5088 292.2704 272.86798 294.24 274.52002C 296.50998 276.17 299.62 276.18002 301.52 278.34003C 302.62 279.59003 303.09998 281.34003 303.87997 282.86002C 304.65997 284.38 306.00998 285.86002 307.55 285.59003C 309.09 285.32004 310.02 283.69003 310.24 282.04004C 310.33795 280.36777 310.24063 278.68976 309.94998 277.04004C 309.65 274.04004 310.02997 270.86005 311.77 268.63004C 312.97 267.11005 314.69 266.19003 315.84998 264.63004C 318.62997 260.87003 317.36 254.63004 320.40997 251.10004C 322.21295 249.22154 324.88672 248.45761 327.40997 249.10004C 329.87997 249.62004 332.13998 250.96004 334.40997 252.10004C 337.4766 253.64706 340.68893 254.88644 343.99997 255.80003C 346.77997 256.56003 349.99997 258.38004 350.94998 254.68004C 352.4 249.25 351 240.94 347.85 236.53z" stroke="none" fill="#000000" fill-rule="nonzero" fill-opacity="0.09803922" />
    <path transform="matrix(1 0 0 1 -87.95 -61.51)"  d="M347.05 235.73C 345.7016 234.0147 344.14267 232.47594 342.40997 231.15C 339.66998 228.87 336.63998 226.48999 333.23996 226.68999C 331.31644 226.94608 329.46912 227.6073 327.81995 228.62999C 319.35995 233.09 312.32996 228.87 302.48996 242.15C 300.38995 244.98999 296.16995 245.61 293.99997 248.62999C 291.83 251.64998 290.94998 255.52998 290.33997 259.33C 289.82947 261.904 289.70813 264.53998 289.97998 267.15C 290.2279 269.70874 291.47034 272.06793 293.43997 273.72C 295.70996 275.37 298.81998 275.38 300.71997 277.54C 301.81998 278.79 302.29996 280.54 303.07996 282.06C 303.85995 283.58 305.20996 285.06 306.74997 284.79C 308.28998 284.52002 309.21997 282.89 309.43997 281.24002C 309.53796 279.56775 309.44064 277.88974 309.14996 276.24002C 308.84998 273.24002 309.22995 270.06003 310.96997 267.83002C 312.16998 266.31003 313.88998 265.39 315.04996 263.83002C 317.82996 260.07 316.55997 253.83002 319.60995 250.30002C 321.41293 248.42152 324.0867 247.6576 326.60995 248.30002C 329.07996 248.82002 331.33997 250.16002 333.60995 251.30002C 336.6766 252.84705 339.88895 254.08643 343.19995 255.00002C 345.97995 255.76001 349.19995 257.58002 350.14996 253.88002C 351.61 248.45 350.25 240.14 347.05 235.73z" stroke="none" fill="#865A61" fill-rule="nonzero" />
    <path transform="matrix(1 0 0 1 -87.95 -61.51)"  d="M275.4 353.71C 275.4 353.71 274.6 383.18 270.62 387.16C 266.63998 391.14 273.01 395.92 273.01 395.92L273.01 395.92L288.94 391.92C 288.94 391.92 284.94 418.2 301.68 415.02002C 301.68 415.02002 290.53 425.37003 279.38 426.97003C 268.23 428.57004 269 424.59 269 424.59L269 424.59L252.28 404.68L275.4 353.71z" stroke="none" fill="#D39999" fill-rule="nonzero" />
    <path transform="matrix(1 0 0 1 -87.95 -61.51)"  d="M275.27 357.29C 275.27 357.29 264.65 384.37 272.62 395.52002L272.62 395.52002L290.13998 391.52002C 290.13998 391.52002 274.21 396.30002 276.59998 386.74002C 278.98996 377.18002 275.27 357.29 275.27 357.29z" stroke="none" fill="#000000" fill-rule="nonzero" fill-opacity="0.09803922" />
    <path transform="matrix(1 0 0 1 -87.95 -61.51)"  d="M269.43 424.19C 269.43 424.19 292.53 425.78 298.9 421C 290.51685 427.42105 280.61047 431.55588 270.15 433L270.15 433L269.43 424.19z" stroke="none" fill="#000000" fill-rule="nonzero" fill-opacity="0.09803922" />
    <path transform="matrix(1 0 0 1 -87.95 -61.51)"  d="M369 373.22C 369 373.22 380.95 409.86 380.15 415.43C 379.34998 421 377.75998 482.33 377.75998 482.33L377.75998 482.33L375.36996 481.53L376.16995 414.63L369 373.22z" stroke="none" fill="#000000" fill-rule="nonzero" fill-opacity="0.09803922" />
    <path transform="matrix(1 0 0 1 -87.95 -61.51)"  d="M872.12 476.83C 872.12 476.83 889.62 511.18 875.36 529.97C 861.1 548.75995 876.66 599.97 876.66 599.97" stroke="#6C63FF" stroke-width="1" fill="none" />
    <path transform="matrix(1 0 0 1 -87.95 -61.51)"  d="M877.3 466.14C 877.3 472.76 872.44 478.14 872.44 478.14C 872.44 478.14 867.58 472.77002 867.58 466.14C 867.58 459.51 872.44 454.14 872.44 454.14C 872.44 454.14 877.3 459.52 877.3 466.14z" stroke="none" fill="#3B82F6" fill-rule="nonzero" />
    <path transform="matrix(1 0 0 1 -87.95 -61.51)"  d="M881.19 476.83C 881.19 476.83 863.69 511.18 877.95 529.97C 892.21 548.75995 876.65 599.97 876.65 599.97" stroke="#6C63FF" stroke-width="1" fill="none" />
    <path transform="matrix(1 0 0 1 -87.95 -61.51)"  d="M876 466.14C 876 472.76 880.86 478.14 880.86 478.14C 880.86 478.14 885.72 472.77002 885.72 466.14C 885.72 459.51 880.86 454.14 880.86 454.14C 880.86 454.14 876 459.52 876 466.14z" stroke="none" fill="#3B82F6" fill-rule="nonzero" />
    <path transform="matrix(1 0 0 1 -87.95 -61.51)"  d="M876 466.14C 876 472.76 880.86 478.14 880.86 478.14C 880.86 478.14 885.72 472.77002 885.72 466.14C 885.72 459.51 880.86 454.14 880.86 454.14C 880.86 454.14 876 459.52 876 466.14z" stroke="none" fill="#000000" fill-rule="nonzero" fill-opacity="0.09803922" />
    <path transform="matrix(1 0 0 1 -87.95 -61.51)"  d="M888.32 476.83C 888.32 476.83 905.82 511.18 891.56 529.97C 877.3 548.75995 892.86 599.97 892.86 599.97" stroke="#6C63FF" stroke-width="1" fill="none" />
    <path transform="matrix(1 0 0 1 -87.95 -61.51)"  d="M893.5 466.14C 893.5 472.76 888.64 478.14 888.64 478.14C 888.64 478.14 883.78 472.77002 883.78 466.14C 883.78 459.51 888.64 454.14 888.64 454.14C 888.64 454.14 893.5 459.52 893.5 466.14z" stroke="none" fill="#3B82F6" fill-rule="nonzero" />
    <path transform="matrix(1 0 0 1 -87.95 -61.51)"  d="M890.78 493.66C 886.19 498.43 878.96 498.93 878.96 498.93C 878.96 498.93 879.18 491.69 883.77 486.93C 888.36005 482.16998 895.59 481.66 895.59 481.66C 895.59 481.66 895.37 488.89 890.78 493.66z" stroke="none" fill="#3B82F6" fill-rule="nonzero" />
    <path transform="matrix(1 0 0 1 -87.95 -61.51)"  d="M891.23 517.36C 886.63995 522.13 879.41 522.63 879.41 522.63C 879.41 522.63 879.62994 515.39 884.22 510.63C 888.81 505.87 896 505.35 896 505.35C 896 505.35 895.82 512.58 891.23 517.36z" stroke="none" fill="#3B82F6" fill-rule="nonzero" />
    <path transform="matrix(1 0 0 1 -87.95 -61.51)"  d="M866.34 530.39C 870.68005 535.39 870.53 542.63 870.53 542.63C 870.53 542.63 863.34 541.76 859 536.76C 854.66 531.76 854.81 524.52 854.81 524.52C 854.81 524.52 862 525.39 866.34 530.39z" stroke="none" fill="#3B82F6" fill-rule="nonzero" />
    <path transform="matrix(1 0 0 1 -87.95 -61.51)"  d="M870.37 479.86C 875.89 483.52 877.68 490.53998 877.68 490.53998C 877.68 490.53998 870.51 491.62 865 488C 859.49 484.38 857.69 477.32 857.69 477.32C 857.69 477.32 864.85 476.2 870.37 479.86z" stroke="none" fill="#3B82F6" fill-rule="nonzero" />
    <path transform="matrix(1 0 0 1 -87.95 -61.51)"  d="M870.37 479.86C 875.89 483.52 877.68 490.53998 877.68 490.53998C 877.68 490.53998 870.51 491.62 865 488C 859.49 484.38 857.69 477.32 857.69 477.32C 857.69 477.32 864.85 476.2 870.37 479.86z" stroke="none" fill="#000000" fill-rule="nonzero" fill-opacity="0.09803922" />
    <path transform="matrix(1 0 0 1 -87.95 -61.51)"  d="M897.39 476.83C 897.39 476.83 879.89 511.18 894.15 529.97C 908.41003 548.75995 892.85004 599.97 892.85004 599.97" stroke="#6C63FF" stroke-width="1" fill="none" />
    <path transform="matrix(1 0 0 1 -87.95 -61.51)"  d="M892.21 466.14C 892.21 472.76 897.07 478.14 897.07 478.14C 897.07 478.14 901.93 472.77002 901.93 466.14C 901.93 459.51 897.07 454.14 897.07 454.14C 897.07 454.14 892.21 459.52 892.21 466.14z" stroke="none" fill="#3B82F6" fill-rule="nonzero" />
    <path transform="matrix(1 0 0 1 -87.95 -61.51)"  d="M892.21 466.14C 892.21 472.76 897.07 478.14 897.07 478.14C 897.07 478.14 901.93 472.77002 901.93 466.14C 901.93 459.51 897.07 454.14 897.07 454.14C 897.07 454.14 892.21 459.52 892.21 466.14z" stroke="none" fill="#000000" fill-rule="nonzero" fill-opacity="0.09803922" />
    <path transform="matrix(1 0 0 1 -87.95 -61.51)"  d="M893.61 494.17C 888.95996 498.89 888.61 506.17 888.61 506.17C 888.61 506.17 895.83997 505.76 900.49 501.04C 905.14 496.32 905.49 489.04 905.49 489.04C 905.49 489.04 898.25 489.45 893.61 494.17z" stroke="none" fill="#3B82F6" fill-rule="nonzero" />
    <path transform="matrix(1 0 0 1 -87.95 -61.51)"  d="M893.61 494.17C 888.95996 498.89 888.61 506.17 888.61 506.17C 888.61 506.17 895.83997 505.76 900.49 501.04C 905.14 496.32 905.49 489.04 905.49 489.04C 905.49 489.04 898.25 489.45 893.61 494.17z" stroke="none" fill="#000000" fill-rule="nonzero" fill-opacity="0.09803922" />
    <path transform="matrix(1 0 0 1 -87.95 -61.51)"  d="M902.72 527C 898.06995 531.72 897.72 539 897.72 539C 897.72 539 904.94995 538.59 909.6 533.87C 914.25 529.14996 914.6 521.87 914.6 521.87C 914.6 521.87 907.37 522.26 902.72 527z" stroke="none" fill="#3B82F6" fill-rule="nonzero" />
    <path transform="matrix(1 0 0 1 -87.95 -61.51)"  d="M889.31 519.77C 889.31 519.77 899.84 503.17 914.63 502.77002" stroke="#6C63FF" stroke-width="1" fill="none" />
    <path transform="matrix(1 0 0 1 -87.95 -61.51)"  d="M881.11 509.74C 881.11 509.74 870.57996 493.13998 855.79 492.74" stroke="#6C63FF" stroke-width="1" fill="none" />
    <path transform="matrix(1 0 0 1 -87.95 -61.51)"  d="M879.74 533.44C 879.74 533.44 890.27 516.84 905.06 516.44" stroke="#6C63FF" stroke-width="1" fill="none" />
    <path d="M828.92 441.17C 828.92004 441.9239 828.6535 442.56735 828.1204 443.1004C 827.5874 443.63348 826.9439 443.90002 826.19 443.90002C 825.43616 443.90002 824.7927 443.63348 824.2596 443.1004C 823.72656 442.56735 823.4601 441.9239 823.46 441.17C 823.4601 440.41617 823.72656 439.7727 824.2596 439.23962C 824.7927 438.70654 825.43616 438.44 826.19 438.44C 826.9439 438.44 827.5874 438.70654 828.1204 439.23962C 828.6535 439.7727 828.92004 440.41617 828.92 441.17C 828.92004 441.20178 828.91943 441.23355 828.91833 441.2653" stroke="none" fill="#3B82F6" fill-rule="nonzero" />
    <path d="M770.82 431.37C 770.82 432.12387 770.55347 432.76733 770.02045 433.30038C 769.4874 433.8335 768.84393 434.10004 768.09 434.1C 767.3362 434.10004 766.6927 433.8335 766.1596 433.30038C 765.6266 432.76733 765.3601 432.12387 765.36005 431.37C 765.3601 430.61615 765.6266 429.9727 766.1596 429.4396C 766.6927 428.90656 767.3362 428.64 768.09 428.63998C 768.84393 428.64 769.4874 428.90656 770.02045 429.4396C 770.55347 429.9727 770.82 430.61615 770.82 431.37C 770.82 431.40176 770.81946 431.43353 770.81836 431.46527" stroke="none" fill="#3B82F6" fill-rule="nonzero" />
    <path transform="matrix(1 0 0 1 -87.95 -61.51)"  d="M887.49 538.91C 887.49 538.91 876.95996 522.31 862.17 521.91" stroke="#6C63FF" stroke-width="1" fill="none" />
    <path d="M777.19995 460.54C 777.19995 461.29388 776.9335 461.93735 776.4004 462.4704C 775.8673 463.00348 775.2239 463.27002 774.47 463.27002C 773.7161 463.27002 773.07263 463.00348 772.53955 462.4704C 772.00653 461.93735 771.74 461.29388 771.74 460.54C 771.74 459.78616 772.00653 459.1427 772.53955 458.60962C 773.07263 458.07654 773.7161 457.81 774.47 457.81C 775.2239 457.81 775.8673 458.07654 776.4004 458.60962C 776.9335 459.1427 777.19995 459.78616 777.19995 460.54C 777.19995 460.57178 777.1994 460.60355 777.1983 460.63528" stroke="none" fill="#3B82F6" fill-rule="nonzero" />
    <path d="M820.04 455.07C 820.04004 455.82388 819.7735 456.46735 819.2404 457.0004C 818.70734 457.53348 818.06384 457.80002 817.31 457.80002C 816.55615 457.80002 815.9127 457.53348 815.3796 457.0004C 814.84656 456.46735 814.58 455.82388 814.58 455.07C 814.58 454.31616 814.84656 453.6727 815.3796 453.13962C 815.9127 452.60654 816.55615 452.34 817.31 452.34C 818.06384 452.34 818.70734 452.60654 819.2404 453.13962C 819.7735 453.6727 820.04004 454.31616 820.04 455.07C 820.04004 455.10178 820.0395 455.13354 820.0383 455.16528" stroke="none" fill="#3B82F6" fill-rule="nonzero" />
    <path transform="matrix(1 0 0 1 -87.95 -61.51)"  d="M945.71 580C 945.71 580 920.33 574.92 913.56 568.15C 906.79 561.38007 876.33 549.57 872.95 558C 869.57 566.43 827.26 595.26 856 600.33C 884.74 605.4 923.69 607.10004 932.15 603.71C 940.61005 600.32 945.71 580 945.71 580z" stroke="none" fill="#A8A8A8" fill-rule="nonzero" />
    <path transform="matrix(1 0 0 1 -87.95 -61.51)"  d="M856 597.19C 884.77 602.27 923.69 603.96 932.15 600.57C 938.59 597.99 943.07 585.57 944.84 579.85004L944.84 579.85004L945.69 580.03C 945.69 580.03 940.61 600.34 932.15 603.72003C 923.69006 607.10004 884.77 605.41003 856 600.34C 847.7 598.87006 845.32 595.43005 846.22 591.08C 846.95 593.91 849.84 596.1 856 597.19z" stroke="none" fill="#000000" fill-rule="nonzero" fill-opacity="0.2" />
    <path transform="matrix(1 0 0 1 -87.95 -61.51)"  d="M201.27 664.66C 201.27 664.66 209.65001 675.66 197.40001 692.16C 185.15001 708.66 175.05 722.67 179.14 733C 179.14 733 197.62 702.27 212.66 701.84C 227.70001 701.41003 217.81 683.14 201.27 664.66z" stroke="none" fill="#3B82F6" fill-rule="nonzero" />
    <path transform="matrix(1 0 0 1 -87.95 -61.51)"  d="M201.27 664.66C 202.00024 665.7198 202.57602 666.87805 202.98001 668.1C 217.66 685.33997 225.47002 701.43 211.37001 701.83997C 198.23001 702.22 182.47002 725.70996 178.69 731.64996C 178.81474 732.108 178.96498 732.55865 179.14 732.99994C 179.14 732.99994 197.62 702.26996 212.66 701.83997C 227.70001 701.41 217.81 683.14 201.27 664.66z" stroke="none" fill="#000000" fill-rule="nonzero" fill-opacity="0.09803922" />
    <path transform="matrix(1 0 0 1 -87.95 -61.51)"  d="M216.85 678.62C 216.85 682.48 216.42001 685.62 215.85 685.62C 215.28 685.62 214.85 682.49 214.85 678.62C 214.85 674.75 215.39 676.62 215.92001 676.62C 216.45003 676.62 216.85 674.77 216.85 678.62z" stroke="none" fill="#FFD037" fill-rule="nonzero" />
    <path transform="matrix(1 0 0 1 -87.95 -61.51)"  d="M222.19 683.23C 218.8 685.07996 215.85 686.23 215.6 685.72C 215.35 685.20996 217.88 683.37 221.27 681.52997C 224.66 679.68994 223.32 681.02997 223.58 681.52997C 223.84 682.02997 225.58 681.38 222.19 683.23z" stroke="none" fill="#FFD037" fill-rule="nonzero" />
    <path transform="matrix(1 0 0 1 -87.95 -61.51)"  d="M157 664.66C 157 664.66 148.62 675.66 160.87 692.16C 173.12 708.66 183.22 722.67 179.12999 732.99C 179.12999 732.99 160.65 702.26 145.60999 701.83C 130.56998 701.4 140.46 683.14 157 664.66z" stroke="none" fill="#3B82F6" fill-rule="nonzero" />
    <path transform="matrix(1 0 0 1 -87.95 -61.51)"  d="M157 664.66C 156.26974 665.7198 155.69397 666.87805 155.29 668.1C 140.60999 685.33997 132.79999 701.43 146.9 701.83997C 160.04 702.22 175.79999 725.70996 179.57999 731.64996C 179.45525 732.108 179.30501 732.55865 179.12999 732.99994C 179.12999 732.99994 160.65 702.26996 145.60999 701.83997C 130.56998 701.41 140.46 683.14 157 664.66z" stroke="none" fill="#000000" fill-rule="nonzero" fill-opacity="0.09803922" />
    <path transform="matrix(1 0 0 1 -87.95 -61.51)"  d="M141.42 678.62C 141.42 682.48 141.84999 685.62 142.42 685.62C 142.99 685.62 143.42 682.49 143.42 678.62C 143.42 674.75 142.88 676.62 142.34999 676.62C 141.81998 676.62 141.42 674.77 141.42 678.62z" stroke="none" fill="#FFD037" fill-rule="nonzero" />
    <path transform="matrix(1 0 0 1 -87.95 -61.51)"  d="M136.08 683.23C 139.47 685.07996 142.42 686.23 142.67 685.72C 142.92 685.20996 140.39 683.37 137 681.52997C 133.61 679.68994 134.95 681.02997 134.69 681.52997C 134.43001 682.02997 132.69 681.38 136.08 683.23z" stroke="none" fill="#FFD037" fill-rule="nonzero" />
    <path transform="matrix(1 0 0 1 -87.95 -61.51)"  d="M144.09 731.55C 144.09 731.55 167.51999 730.83 174.58 725.8C 181.64001 720.76996 210.58 714.8 212.37 722.8C 214.15999 730.8 247.57999 762.91 221.12999 763.12C 194.68 763.33 159.66998 759 152.62 754.71C 145.57 750.42004 144.09 731.55 144.09 731.55z" stroke="none" fill="#A8A8A8" fill-rule="nonzero" />
    <path transform="matrix(1 0 0 1 -87.95 -61.51)"  d="M221.61 760.35C 195.16 760.56 160.15 756.23 153.1 751.94C 147.73001 748.67 145.59001 736.94 144.88 731.53L144.88 731.53L144.1 731.53C 144.1 731.53 145.58 750.43005 152.63 754.72003C 159.68001 759.01 194.69 763.35004 221.14001 763.13C 228.78001 763.07 231.41002 760.35 231.27002 756.33C 230.2 758.79 227.29 760.3 221.61 760.35z" stroke="none" fill="#000000" fill-rule="nonzero" fill-opacity="0.2" />
</g>
</svg>