<?xml version="1.0" encoding="UTF-8"?>
<svg xmlns="http://www.w3.org/2000/svg" xmlns:xlink="http://www.w3.org/1999/xlink" width="226px" height="80px" viewBox="0 0 120 80" version="1.1">
<g id="surface1">
<path style="fill-rule:evenodd;fill:rgb(0%,0%,0%);fill-opacity:1;stroke-width:0.036;stroke-linecap:butt;stroke-linejoin:miter;stroke:rgb(0%,0%,0%);stroke-opacity:1;stroke-miterlimit:10;" d="M 94.684668 136.196744 C 87.168475 135.408954 79.530562 135.151408 71.253621 135.045359 C 63.00711 134.893861 51.991475 135.151408 45.403396 135.802849 C 38.632736 136.408841 34.144321 137.423878 31.359983 138.81766 C 30.781814 138.211668 30.24929 137.635976 29.747196 137.484478 C 29.138598 137.242081 28.743009 137.242081 28.16484 137.484478 L 27.875756 133.742476 C 29.960206 134.000022 31.405628 133.742476 32.72933 132.984986 C 33.961742 132.121447 36.335276 130.439818 35.148509 129.030887 C 33.855237 127.561355 28.301775 124.637443 25.167492 124.319297 C 21.896274 123.925402 16.997056 125.576731 16.023298 126.940213 C 15.01911 128.303696 16.099373 130.030774 19.264085 132.409293 C 18.518552 133.37888 18.153393 134.393917 18.183823 135.439254 C 18.229468 136.408841 18.625057 137.423878 19.52274 138.469215 C 16.023298 138.529814 13.467184 141.090131 11.702248 145.983518 C 9.982957 150.952654 9.404788 156.815628 9.009199 167.874986 C 8.43103 178.858594 8.248451 193.190309 8.46146 211.430674 C 4.581644 213.203201 2.208109 216.293762 0.945267 220.869003 C -0.348005 225.398794 -0.317575 233.064595 1.203922 238.579124 C 2.634129 243.942155 5.190243 249.638482 9.830807 253.304734 C 14.380082 256.970987 22.976537 259.788851 28.697364 260.470592 C 34.418191 261.046285 39.317409 259.894899 43.790609 256.864938 C 44.034049 257.304283 44.764367 257.592129 45.951134 257.879975 C 47.168331 258.092073 48.644183 258.27387 50.774278 258.410219 C 50.150465 263.818699 51.595886 270.045269 55.627852 277.105078 C 59.583743 284.195186 65.745804 296.360479 74.235754 300.678174 C 82.58877 304.81407 96.023585 306.147253 105.487293 302.193154 C 114.920571 298.087557 122.954073 289.664266 130.257256 276.529385 C 141.531545 278.604908 152.790619 279.877492 164.749582 280.695581 C 176.738975 281.392472 189.519545 280.983428 201.143779 281.059177 C 212.585432 281.028877 224.072731 281.240974 232.684401 280.877379 C 240.991772 280.559233 247.184263 279.725994 251.246659 278.786706 C 249.816452 284.770879 251.216229 290.239958 255.750289 295.209094 C 260.223488 300.132781 270.265365 306.116954 278.116287 308.419724 C 285.951994 310.616446 295.065758 311.04064 302.368942 308.601521 C 309.53519 305.965455 316.518859 298.66325 320.702975 293.330518 C 324.73494 287.937188 326.560736 282.528708 326.347727 276.741482 C 331.672965 276.302138 338.230615 276.92328 346.294546 278.43826 C 354.312833 279.98354 363.563532 282.286311 374.335727 285.770766 C 372.388211 281.498521 371.642678 277.968616 371.642678 274.650809 C 371.673108 271.378451 372.616436 268.606037 374.594381 266.333566 L 362.741923 265.212481 C 367.610712 261.076584 371.064509 256.289246 373.803203 250.714118 C 376.389747 244.957192 378.839357 236.670249 378.367693 231.852611 C 377.759094 227.065273 375.096475 224.292858 370.805855 222.414283 C 366.454375 220.429658 360.581398 219.687318 352.776121 220.141812 C 354.464982 218.308686 355.545245 215.142376 356.016909 210.506536 C 356.442928 205.779797 356.260348 199.886523 355.46917 192.38737 C 359.075117 190.342146 361.84424 187.069788 364.08084 182.570296 C 366.19572 177.889007 368.295386 169.965659 368.40189 165.20862 C 368.325816 160.497031 366.880394 156.64898 364.369925 154.482558 C 361.813811 152.285837 358.177434 151.422298 353.308645 152.02829 C 352.121878 150.376961 349.748343 149.119528 346.035892 148.255989 C 342.338655 147.36215 337.439436 146.847057 331.201301 146.741008 C 333.544405 142.680861 333.544405 139.681199 331.201301 137.484478 C 328.766906 135.257456 323.396024 133.318281 316.914448 133.742476 C 310.295939 134.18182 300.177987 138.575263 292.40314 139.969046 C 284.552218 141.16588 275.195014 140.726536 270.58488 141.453726 C 265.944315 142.165767 263.96637 143.180804 264.651043 144.468537 C 261.121171 144.438238 250.714135 144.362489 232.851766 144.25644 C 214.822032 144.150392 190.310723 143.968594 157.933278 143.862545 C 156.213987 139.332754 154.555555 135.7271 152.821049 132.924386 C 151.071328 130.076223 149.260748 128.137048 147.434952 127.091712 C 149.230318 116.683796 150.995254 108.002958 152.57761 100.518954 C 154.083891 92.989501 155.559743 87.202276 156.853015 82.596735 C 149.991066 81.733196 144.072444 82.127091 138.853711 83.929918 C 133.574118 85.687295 132.99595 84.323813 125.616692 93.140999 C 118.161359 101.958186 108.043407 116.032354 94.684668 136.196744 Z M 94.684668 136.196744 " transform="matrix(0.256737,0,0,0.257842,0.104971,0)"/>
<path style="fill-rule:evenodd;fill:rgb(81.568627%,80%,78.431373%);fill-opacity:1;stroke-width:0.036;stroke-linecap:butt;stroke-linejoin:miter;stroke:rgb(0%,0%,0%);stroke-opacity:1;stroke-miterlimit:10;" d="M 152.288526 84.672258 C 147.754466 84.323813 143.90508 84.748007 140.055694 85.975142 C 136.160663 87.096227 135.23255 86.08119 129.755162 91.838116 C 124.17127 97.534443 112.334027 112.896345 107.282659 120.319749 C 102.17043 127.728003 99.614316 132.818338 99.477382 135.939197 C 99.218727 136.227044 100.664149 136.802736 103.798432 137.666275 C 106.963144 138.469215 111.542849 139.575151 118.054854 140.878034 C 119.089472 136.090696 121.036987 130.864013 124.277775 124.819241 C 127.442488 118.66842 132.128697 111.532862 136.921411 104.836648 C 141.592405 98.110135 146.674203 91.474521 152.288526 84.672258 Z M 152.288526 84.672258 " transform="matrix(0.256737,0,0,0.257842,0.104971,0)"/>
<path style="fill-rule:evenodd;fill:rgb(81.568627%,80%,78.431373%);fill-opacity:1;stroke-width:0.036;stroke-linecap:butt;stroke-linejoin:miter;stroke:rgb(0%,0%,0%);stroke-opacity:1;stroke-miterlimit:10;" d="M 124.277775 140.120544 C 126.514375 140.090244 128.52275 140.332641 130.181181 140.878034 C 131.809183 141.347678 133.208959 142.135468 134.258792 143.105055 L 123.456167 143.49895 C 123.699606 142.393014 123.98869 141.271929 124.277775 140.120544 Z M 124.277775 140.120544 " transform="matrix(0.256737,0,0,0.257842,0.104971,0)"/>
<path style="fill-rule:evenodd;fill:rgb(75.294118%,75.294118%,75.294118%);fill-opacity:1;stroke-width:0.036;stroke-linecap:butt;stroke-linejoin:miter;stroke:rgb(0%,0%,0%);stroke-opacity:1;stroke-miterlimit:10;" d="M 143.93551 132.924386 L 136.130233 139.150956 C 134.000138 138.81766 132.022192 138.575263 130.181181 138.393466 C 128.203236 138.135919 126.544805 138.06017 124.825514 138.029871 C 127.229478 128.455194 130.333331 120.137951 134.258792 112.941794 C 138.032103 105.594139 146.491624 92.853153 147.967476 94.822628 C 149.367252 96.913301 147.724036 106.775823 142.855247 125.001038 C 140.846872 124.379896 139.036291 124.89499 136.921411 126.909914 C 134.760886 128.74304 130.94193 134.99991 130.470266 136.51489 C 129.937742 137.923822 132.81337 136.848186 134.258792 135.7574 C 135.734644 134.545415 137.240925 130.970062 139.081936 129.924725 C 140.740367 128.924838 142.535733 128.849089 144.483248 129.712628 C 144.300669 130.757964 144.118089 131.8336 143.93551 132.924386 Z M 143.93551 132.924386 " transform="matrix(0.256737,0,0,0.257842,0.104971,0)"/>
<path style="fill-rule:evenodd;fill:rgb(7.058824%,50.196078%,50.196078%);fill-opacity:1;stroke-width:0.036;stroke-linecap:butt;stroke-linejoin:miter;stroke:rgb(0%,0%,0%);stroke-opacity:1;stroke-miterlimit:10;" d="M 269.504617 144.832133 C 269.032953 144.074643 271.528207 143.574699 275.149369 143.317152 C 278.755316 142.999006 285.160816 143.392901 291.064223 142.559662 C 296.861124 141.484026 304.316457 138.393466 309.930779 137.454178 C 315.469027 136.439141 320.870339 135.984647 324.187202 136.878485 C 327.351914 137.742024 329.29943 140.938633 329.040776 142.74146 C 328.614757 144.407938 327.397559 146.847057 322.315761 147.468199 C 317.020953 147.998442 306.157468 146.483462 298.59563 146.528911 C 291.033793 146.483462 282.467767 148.074191 277.598978 147.816644 C 272.60847 147.468199 269.900206 145.589623 269.504617 144.832133 Z M 269.504617 144.832133 " transform="matrix(0.256737,0,0,0.257842,0.104971,0)"/>
<path style="fill-rule:evenodd;fill:rgb(17.254902%,69.019608%,81.176471%);fill-opacity:1;stroke-width:0.036;stroke-linecap:butt;stroke-linejoin:miter;stroke:rgb(0%,0%,0%);stroke-opacity:1;stroke-miterlimit:10;" d="M 96.997342 137.772324 C 89.17685 137.590526 81.584583 137.529927 73.809735 137.423878 C 65.958813 137.242081 57.864452 136.954234 50.622129 137.242081 C 43.318945 137.529927 36.913445 138.10562 30.720954 139.105507 L 31.253478 147.210652 C 32.881479 147.786345 34.889855 148.968029 37.445969 150.634508 C 40.002083 152.149488 44.216628 153.255424 46.346723 157.042875 C 48.324669 160.860626 49.252782 166.072159 49.298427 173.238017 C 50.622129 170.6171 53.543402 168.193132 58.183966 165.708564 C 62.900605 163.193696 70.203789 159.557743 77.050523 158.557856 C 83.775538 157.542819 92.919732 158.118512 98.077605 159.300196 C 103.037683 160.421282 107.723893 164.526879 106.67406 164.951073 C 105.456863 165.23892 96.951697 161.390869 91.048291 161.178772 C 85.00795 160.815177 77.978636 160.678829 71.390556 163.269445 C 64.741616 165.829762 57.575368 170.6474 51.991475 176.616423 C 46.407583 182.600596 41.082345 192.826714 38.237147 198.689688 C 35.331089 204.446614 34.205181 208.415863 34.75292 210.96103 C 38.237147 210.718633 41.15842 211.067079 43.63846 212.188164 C 46.118499 213.263801 47.98994 214.718182 49.541866 217.475446 C 51.124222 220.187261 51.991475 223.38387 52.539214 228.216658 C 52.828299 232.958547 52.676149 241.457587 51.702391 245.926779 C 50.698203 250.320223 49.039772 253.153236 46.590163 254.592468 C 47.853005 255.895351 49.465791 256.289246 51.458952 255.925651 C 53.391252 255.501456 56.57118 255.531756 58.183966 252.153349 C 59.659818 248.471947 59.948902 241.533336 60.603146 235.200718 C 61.10524 228.928699 60.131482 220.793254 61.972493 214.82423 C 63.798288 208.703709 66.932571 203.007383 71.938295 199.159332 C 77.020093 195.235533 85.981708 191.811677 91.885114 191.811677 C 97.636371 191.857127 103.189833 194.508342 106.430621 198.977535 C 109.488829 203.340679 109.199744 209.41575 110.99511 217.657244 C 112.760046 225.762389 115.742179 240.669797 117.187601 247.653857 C 118.450443 254.531869 117.689695 255.425707 119.089472 259.243458 C 120.534893 263.015759 121.432576 267.454652 125.540617 270.181617 C 129.542153 272.711634 131.596173 273.923619 143.068257 275.256801 C 154.555555 276.635434 178.610415 277.786819 193.97753 278.286762 C 209.23814 278.544309 223.935796 278.029216 234.160253 277.347474 C 244.20213 276.696033 248.76662 276.635434 254.091857 274.499311 C 259.31059 272.166241 262.307939 269.075681 265.396576 263.955047 C 268.31785 258.743514 269.869776 251.28981 272.136806 243.942155 C 274.327761 236.5642 276.518716 226.913775 279.150905 220.399359 C 281.752664 213.778894 283.36545 208.340114 287.762575 204.916258 C 292.06841 201.492402 300.467071 198.432142 305.290215 200.022871 C 310.067714 201.568151 314.2214 208.552211 316.594934 214.172789 C 318.816319 219.641868 318.57288 226.125985 319.287983 232.640401 C 320.018301 239.003319 320.261741 247.032715 321.159424 252.259398 C 322.102752 257.304283 322.346191 260.894787 324.689296 263.197557 C 327.00197 265.394279 333.331396 266.182068 334.381228 266.015421 C 335.172407 265.651825 331.246946 264.106545 329.801524 262.046172 C 328.249597 260.106997 326.210792 258.622316 325.739128 254.122824 C 325.191389 249.441534 324.73494 239.518412 327.108475 234.322029 C 329.45158 229.065047 336.252669 225.292746 340.02598 222.838477 C 343.708002 220.32361 347.085724 220.975051 349.215819 219.247973 C 351.254625 217.445147 351.543709 217.1876 352.167523 212.082116 C 352.700046 206.794834 352.274027 196.099072 352.410962 188.327222 C 352.487037 180.434174 352.806551 171.647287 352.410962 165.708564 C 351.878438 159.739541 352.852196 156.027838 349.215819 153.073627 C 345.457723 150.058815 339.128297 148.392337 330.060178 147.968142 C 328.432177 149.513422 325.708698 150.225463 321.707162 150.407261 C 317.599122 150.48301 312.197809 148.725633 306.081393 148.725633 C 299.888902 148.619584 292.327065 150.558759 285.343396 150.225463 C 278.329297 149.831568 271.406488 148.680183 264.316314 146.63496 C 235.301375 146.301664 209.846739 146.135016 186.704777 146.089567 C 163.48674 145.953218 142.855247 145.953218 126.620879 146.089567 C 110.310437 146.059267 101.561832 146.347113 90.257113 146.559211 C 78.845889 146.816757 67.434665 147.134903 59.522883 147.680296 C 51.641531 148.14994 45.220816 149.619471 43.349375 149.589171 C 41.37143 149.331625 41.554009 147.892393 48.218164 146.922806 C 54.912749 145.80172 71.542706 144.574586 82.984359 143.938294 C 94.365153 143.286853 105.091704 143.286853 115.863899 143.544399 C 109.595333 141.635524 103.296338 139.726649 96.997342 137.772324 Z M 96.997342 137.772324 " transform="matrix(0.256737,0,0,0.257842,0.104971,0)"/>
<path style="fill-rule:evenodd;fill:rgb(17.254902%,69.019608%,81.176471%);fill-opacity:1;stroke-width:0.036;stroke-linecap:butt;stroke-linejoin:miter;stroke:rgb(0%,0%,0%);stroke-opacity:1;stroke-miterlimit:10;" d="M 34.996359 195.023436 C 34.463836 197.689801 33.733517 200.280418 33.124919 202.931634 C 32.440245 205.491951 31.725142 208.128017 30.964394 210.673184 L 26.932428 210.491386 C 27.221512 208.915807 27.404092 207.037231 27.191082 205.022307 C 27.038933 202.931634 26.506409 200.568264 25.852165 198.038247 C 26.475979 199.189632 27.556241 199.416879 29.092953 198.977535 C 30.675309 198.401842 32.51632 197.174708 34.996359 195.023436 Z M 34.996359 195.023436 " transform="matrix(0.256737,0,0,0.257842,0.104971,0)"/>
<path style="fill-rule:evenodd;fill:rgb(75.294118%,75.294118%,75.294118%);fill-opacity:1;stroke-width:0.036;stroke-linecap:butt;stroke-linejoin:miter;stroke:rgb(0%,0%,0%);stroke-opacity:1;stroke-miterlimit:10;" d="M 18.838066 209.915694 L 23.950295 210.097491 C 24.269809 207.400826 24.452389 204.916258 24.482818 202.355941 C 24.452389 199.841074 24.269809 197.401955 23.950295 195.023436 C 23.189546 195.235533 22.261434 194.977986 21.287676 194.265946 C 20.237843 193.478156 19.020646 192.205572 17.757804 190.478494 C 16.997056 192.750965 16.784046 195.523379 16.966626 198.795737 C 17.149205 202.113544 17.727374 205.643449 18.838066 209.915694 Z M 18.838066 209.915694 " transform="matrix(0.256737,0,0,0.257842,0.104971,0)"/>
<path style="fill-rule:evenodd;fill:rgb(75.294118%,75.294118%,75.294118%);fill-opacity:1;stroke-width:0.036;stroke-linecap:butt;stroke-linejoin:miter;stroke:rgb(0%,0%,0%);stroke-opacity:1;stroke-miterlimit:10;" d="M 32.592395 194.447743 C 36.289631 191.857127 39.210905 188.721117 41.477935 184.64582 C 43.790609 180.540222 45.768555 174.934795 46.057639 170.329254 C 46.118499 165.602515 44.536143 160.163735 42.269113 156.936827 C 39.971653 153.649319 36.654791 151.634395 32.33374 150.876905 C 33.961742 157.042875 34.889855 163.011898 35.285444 168.814274 C 35.650603 174.601499 34.81378 180.979567 34.463836 185.40331 C 33.992172 189.660405 33.414003 192.720665 32.592395 194.447743 Z M 32.592395 194.447743 " transform="matrix(0.256737,0,0,0.257842,0.104971,0)"/>
<path style="fill-rule:evenodd;fill:rgb(75.294118%,75.294118%,75.294118%);fill-opacity:1;stroke-width:0.036;stroke-linecap:butt;stroke-linejoin:miter;stroke:rgb(0%,0%,0%);stroke-opacity:1;stroke-miterlimit:10;" d="M 22.900462 148.831681 C 22.763527 150.876905 24.665398 155.134 25.319642 160.890926 C 25.852165 166.617552 26.08039 177.343614 26.399904 182.782394 C 26.643343 188.069675 26.688988 190.372446 26.932428 192.750965 C 27.038933 195.053735 26.901998 196.386918 27.480167 196.356619 C 28.119195 196.099072 29.382037 196.417218 30.43187 191.629879 C 31.329553 186.630444 32.72933 173.889458 32.835834 167.299293 C 32.774974 160.709128 31.831647 155.679393 30.720954 152.573683 C 29.488542 149.483123 27.404092 149.195277 26.11082 148.649884 C 24.741473 147.892393 22.976537 146.847057 22.900462 148.831681 Z M 22.900462 148.831681 " transform="matrix(0.256737,0,0,0.257842,0.104971,0)"/>
<path style="fill-rule:evenodd;fill:rgb(96.862745%,96.470588%,9.803922%);fill-opacity:1;stroke-width:0.036;stroke-linecap:butt;stroke-linejoin:miter;stroke:rgb(0%,0%,0%);stroke-opacity:1;stroke-miterlimit:10;" d="M 20.998591 150.710257 C 19.629245 150.589059 17.727374 157.179224 16.677541 162.405906 C 15.597279 167.587139 13.908418 176.04073 14.806101 181.267413 C 15.703784 186.372897 20.161768 191.59958 21.8202 192.750965 C 23.265621 193.720553 23.554706 192.175272 23.950295 187.281886 C 24.239379 182.130952 24.421959 169.177869 23.950295 162.981599 C 23.448201 156.755029 22.185359 150.846605 20.998591 150.710257 Z M 20.998591 150.710257 " transform="matrix(0.256737,0,0,0.257842,0.104971,0)"/>
<path style="fill-rule:evenodd;fill:rgb(75.294118%,75.294118%,75.294118%);fill-opacity:1;stroke-width:0.036;stroke-linecap:butt;stroke-linejoin:miter;stroke:rgb(0%,0%,0%);stroke-opacity:1;stroke-miterlimit:10;" d="M 21.287676 139.393353 L 21.531115 146.559211 C 22.109284 146.195615 23.235191 145.877469 24.482818 145.983518 C 25.745661 145.983518 27.373662 146.241065 29.351607 146.741008 C 29.929776 143.392901 29.564617 141.226479 28.271345 139.969046 C 26.825923 138.787361 24.634968 138.499514 21.287676 139.393353 Z M 21.287676 139.393353 " transform="matrix(0.256737,0,0,0.257842,0.104971,0)"/>
<path style="fill-rule:evenodd;fill:rgb(75.294118%,75.294118%,75.294118%);fill-opacity:1;stroke-width:0.036;stroke-linecap:butt;stroke-linejoin:miter;stroke:rgb(0%,0%,0%);stroke-opacity:1;stroke-miterlimit:10;" d="M 21.531115 133.166783 C 20.968162 134.000022 20.785582 134.757513 20.998591 135.439254 C 21.181171 136.045246 22.215789 136.802736 22.611378 137.136032 C 22.870032 137.378429 22.870032 137.378429 22.611378 137.136032 L 26.399904 137.136032 L 25.852165 133.742476 C 24.421959 133.560678 22.976537 133.37888 21.531115 133.166783 Z M 21.531115 133.166783 " transform="matrix(0.256737,0,0,0.257842,0.104971,0)"/>
<path style="fill-rule:evenodd;fill:rgb(75.294118%,75.294118%,75.294118%);fill-opacity:1;stroke-width:0.036;stroke-linecap:butt;stroke-linejoin:miter;stroke:rgb(0%,0%,0%);stroke-opacity:1;stroke-miterlimit:10;" d="M 22.367938 131.07611 C 23.84379 131.545754 27.510597 131.545754 28.803869 131.07611 C 30.066711 130.500418 30.903534 128.955137 29.884131 128.091599 C 28.743009 127.152311 23.737285 125.758529 22.078854 125.834278 C 20.344348 125.834278 19.598815 127.334108 19.659675 128.273396 C 19.659675 129.136935 20.739937 130.545867 22.367938 131.07611 Z M 22.367938 131.07611 " transform="matrix(0.256737,0,0,0.257842,0.104971,0)"/>
<path style="fill-rule:evenodd;fill:rgb(75.294118%,75.294118%,75.294118%);fill-opacity:1;stroke-width:0.036;stroke-linecap:butt;stroke-linejoin:miter;stroke:rgb(0%,0%,0%);stroke-opacity:1;stroke-miterlimit:10;" d="M 19.811824 142.241516 L 17.575224 140.650787 C 16.281952 141.226479 15.338624 141.877921 14.912605 142.453613 C 14.380082 142.999006 14.304007 143.604999 14.699596 144.150392 L 19.203226 144.150392 C 19.37059 143.544399 19.598815 142.892958 19.811824 142.241516 Z M 19.811824 142.241516 " transform="matrix(0.256737,0,0,0.257842,0.104971,0)"/>
<path style="fill-rule:evenodd;fill:rgb(75.294118%,75.294118%,75.294118%);fill-opacity:1;stroke-width:0.036;stroke-linecap:butt;stroke-linejoin:miter;stroke:rgb(0%,0%,0%);stroke-opacity:1;stroke-miterlimit:10;" d="M 11.352304 154.558307 C 11.382733 154.952202 11.382733 155.527895 11.352304 156.133887 C 11.306659 156.70958 11.245799 157.330722 11.139294 158.118512 C 13.543259 158.148811 15.17126 157.906414 16.129803 157.512519 C 16.966626 156.997426 17.544794 155.89149 16.753616 155.421846 C 15.855933 154.876453 14.197502 154.588607 11.352304 154.558307 Z M 11.352304 154.558307 " transform="matrix(0.256737,0,0,0.257842,0.104971,0)"/>
<path style="fill-rule:evenodd;fill:rgb(75.294118%,75.294118%,75.294118%);fill-opacity:1;stroke-width:0.036;stroke-linecap:butt;stroke-linejoin:miter;stroke:rgb(0%,0%,0%);stroke-opacity:1;stroke-miterlimit:10;" d="M 11.017574 159.557743 C 10.956714 159.845589 10.85021 160.451581 10.85021 160.996974 C 10.774135 161.648416 10.743705 162.224109 10.743705 163.117947 L 13.984493 163.405793 C 14.775671 162.618004 15.17126 161.860513 15.308194 161.284821 C 15.338624 160.603079 15.125615 160.103136 14.517016 159.633492 C 13.360679 159.633492 12.219557 159.588043 11.017574 159.557743 Z M 11.017574 159.557743 " transform="matrix(0.256737,0,0,0.257842,0.104971,0)"/>
<path style="fill-rule:evenodd;fill:rgb(75.294118%,75.294118%,75.294118%);fill-opacity:1;stroke-width:0.036;stroke-linecap:butt;stroke-linejoin:miter;stroke:rgb(0%,0%,0%);stroke-opacity:1;stroke-miterlimit:10;" d="M 10.774135 166.102459 C 10.774135 166.405455 10.591555 167.011447 10.621985 167.55684 C 10.561125 168.193132 10.51548 168.768824 10.51548 169.677812 L 13.178099 169.965659 C 13.862773 169.162719 14.197502 168.420379 14.304007 167.844686 C 14.334437 167.147795 14.151857 166.647852 13.619333 166.178208 C 12.676006 166.178208 11.747893 166.147908 10.774135 166.102459 Z M 10.774135 166.102459 " transform="matrix(0.256737,0,0,0.257842,0.104971,0)"/>
<path style="fill-rule:evenodd;fill:rgb(75.294118%,75.294118%,75.294118%);fill-opacity:1;stroke-width:0.036;stroke-linecap:butt;stroke-linejoin:miter;stroke:rgb(0%,0%,0%);stroke-opacity:1;stroke-miterlimit:10;" d="M 10.454621 171.541238 C 10.348116 171.874534 10.348116 172.344178 10.302471 172.95017 C 10.272041 173.525863 10.195966 174.253054 10.226396 175.116592 L 12.615146 175.404439 C 13.178099 174.5409 13.512829 173.813709 13.573688 173.238017 C 13.573688 172.556275 13.467184 172.010882 12.96509 171.616987 C 12.143482 171.616987 11.306659 171.586688 10.454621 171.541238 Z M 10.454621 171.541238 " transform="matrix(0.256737,0,0,0.257842,0.104971,0)"/>
<path style="fill-rule:evenodd;fill:rgb(75.294118%,75.294118%,75.294118%);fill-opacity:1;stroke-width:0.036;stroke-linecap:butt;stroke-linejoin:miter;stroke:rgb(0%,0%,0%);stroke-opacity:1;stroke-miterlimit:10;" d="M 11.960902 150.558759 C 11.991332 150.952654 11.991332 151.528346 11.960902 152.149488 C 11.930472 152.725181 11.854397 153.331173 11.747893 154.118963 C 14.151857 154.164412 15.779858 153.906866 16.753616 153.512971 C 17.575224 153.013027 18.153393 151.891942 17.362215 151.422298 C 16.464532 150.876905 14.806101 150.589059 11.960902 150.558759 Z M 11.960902 150.558759 " transform="matrix(0.256737,0,0,0.257842,0.104971,0)"/>
<path style="fill-rule:evenodd;fill:rgb(75.294118%,75.294118%,75.294118%);fill-opacity:1;stroke-width:0.036;stroke-linecap:butt;stroke-linejoin:miter;stroke:rgb(0%,0%,0%);stroke-opacity:1;stroke-miterlimit:10;" d="M 12.96509 145.589623 C 13.010735 146.028967 13.010735 146.483462 12.96509 147.134903 C 12.93466 147.680296 12.828155 148.392337 12.78251 149.149827 C 15.23212 149.119528 16.707971 148.90743 17.757804 148.513535 C 18.579412 147.998442 19.157581 146.847057 18.366402 146.453162 C 17.46872 145.907769 15.810288 145.619923 12.96509 145.589623 Z M 12.96509 145.589623 " transform="matrix(0.256737,0,0,0.257842,0.104971,0)"/>
<path style="fill-rule:evenodd;fill:rgb(75.294118%,75.294118%,75.294118%);fill-opacity:1;stroke-width:0.036;stroke-linecap:butt;stroke-linejoin:miter;stroke:rgb(0%,0%,0%);stroke-opacity:1;stroke-miterlimit:10;" d="M 9.876452 176.434625 C 9.800377 176.798221 9.693872 177.237565 9.693872 177.889007 C 9.663442 178.449549 9.587368 179.17674 9.617798 180.040279 L 12.280416 180.297826 C 12.90423 179.494886 13.254174 178.752546 13.360679 178.176853 C 13.406324 177.479962 13.178099 176.949719 12.72165 176.555824 Z M 9.876452 176.434625 " transform="matrix(0.256737,0,0,0.257842,0.104971,0)"/>
<path style="fill-rule:evenodd;fill:rgb(75.294118%,75.294118%,75.294118%);fill-opacity:1;stroke-width:0.036;stroke-linecap:butt;stroke-linejoin:miter;stroke:rgb(0%,0%,0%);stroke-opacity:1;stroke-miterlimit:10;" d="M 9.906882 181.52496 C 9.830807 181.812806 9.724302 182.418798 9.724302 182.964191 C 9.663442 183.600483 9.617798 184.176176 9.617798 185.085164 L 12.858585 185.37301 C 13.649763 184.58522 14.045352 183.82773 14.197502 183.252038 C 14.258362 182.555146 13.938848 182.055203 13.360679 181.585559 C 12.219557 181.585559 11.063219 181.555259 9.906882 181.52496 Z M 9.906882 181.52496 " transform="matrix(0.256737,0,0,0.257842,0.104971,0)"/>
<path style="fill-rule:evenodd;fill:rgb(75.294118%,75.294118%,75.294118%);fill-opacity:1;stroke-width:0.036;stroke-linecap:butt;stroke-linejoin:miter;stroke:rgb(0%,0%,0%);stroke-opacity:1;stroke-miterlimit:10;" d="M 9.876452 186.660744 C 9.724302 186.994039 9.693872 187.463683 9.617798 188.069675 C 9.541723 188.645368 9.511293 189.372559 9.511293 190.236097 L 13.254174 190.523944 C 14.197502 189.660405 14.653951 188.933214 14.806101 188.357522 C 14.912605 187.67578 14.547446 187.130387 13.862773 186.736493 C 12.539071 186.736493 11.200154 186.706193 9.876452 186.660744 Z M 9.876452 186.660744 " transform="matrix(0.256737,0,0,0.257842,0.104971,0)"/>
<path style="fill-rule:evenodd;fill:rgb(75.294118%,75.294118%,75.294118%);fill-opacity:1;stroke-width:0.036;stroke-linecap:butt;stroke-linejoin:miter;stroke:rgb(0%,0%,0%);stroke-opacity:1;stroke-miterlimit:10;" d="M 9.952527 192.644916 C 9.830807 192.932763 9.769947 193.538755 9.724302 194.084148 C 9.663442 194.735589 9.617798 195.311282 9.617798 196.205121 L 13.360679 196.492967 C 14.304007 195.705177 14.775671 194.947687 14.912605 194.371994 C 14.98868 193.690253 14.653951 193.17516 13.938848 192.720665 C 12.615146 192.720665 11.276229 192.675216 9.952527 192.644916 Z M 9.952527 192.644916 " transform="matrix(0.256737,0,0,0.257842,0.104971,0)"/>
<path style="fill-rule:evenodd;fill:rgb(75.294118%,75.294118%,75.294118%);fill-opacity:1;stroke-width:0.036;stroke-linecap:butt;stroke-linejoin:miter;stroke:rgb(0%,0%,0%);stroke-opacity:1;stroke-miterlimit:10;" d="M 9.769947 198.083696 C 9.617798 198.401842 9.587368 198.871486 9.511293 199.477478 C 9.435218 200.053171 9.404788 200.780362 9.404788 201.6439 L 13.147669 201.931747 C 14.090997 201.068208 14.547446 200.341017 14.699596 199.765325 C 14.806101 199.083583 14.440941 198.55334 13.756268 198.144296 C 12.432566 198.144296 11.093649 198.113996 9.769947 198.083696 Z M 9.769947 198.083696 " transform="matrix(0.256737,0,0,0.257842,0.104971,0)"/>
<path style="fill-rule:evenodd;fill:rgb(75.294118%,75.294118%,75.294118%);fill-opacity:1;stroke-width:0.036;stroke-linecap:butt;stroke-linejoin:miter;stroke:rgb(0%,0%,0%);stroke-opacity:1;stroke-miterlimit:10;" d="M 10.485051 203.552776 C 10.348116 203.840622 10.302471 204.446614 10.226396 204.992007 C 10.165536 205.643449 10.119891 206.219141 10.119891 207.11298 L 13.862773 207.400826 C 14.806101 206.613036 15.277765 205.855546 15.414699 205.279854 C 15.521204 204.598112 15.17126 204.083019 14.486586 203.628525 C 13.147669 203.628525 11.823967 203.583075 10.485051 203.552776 Z M 10.485051 203.552776 " transform="matrix(0.256737,0,0,0.257842,0.104971,0)"/>
<path style="fill-rule:evenodd;fill:rgb(75.294118%,75.294118%,75.294118%);fill-opacity:1;stroke-width:0.036;stroke-linecap:butt;stroke-linejoin:miter;stroke:rgb(0%,0%,0%);stroke-opacity:1;stroke-miterlimit:10;" d="M 13.862773 212.369962 C 9.404788 212.809306 9.039629 213.809194 7.396413 216.505859 C 5.555402 219.141925 2.999288 222.338534 3.607886 228.216658 C 4.216485 233.973584 5.920561 246.320674 11.169724 251.214061 C 16.312382 255.9711 28.666934 257.698178 34.60077 257.077036 C 40.397672 256.395295 43.897114 253.047188 46.194574 247.44176 C 48.355099 241.487887 50.089605 228.640852 48.066014 222.914226 C 45.875059 217.1876 39.499989 215.460522 33.809592 213.703145 C 27.951831 211.900318 18.335973 211.824569 13.862773 212.369962 Z M 13.862773 212.369962 " transform="matrix(0.256737,0,0,0.257842,0.104971,0)"/>
<path style="fill-rule:evenodd;fill:rgb(75.294118%,75.294118%,75.294118%);fill-opacity:1;stroke-width:0.036;stroke-linecap:butt;stroke-linejoin:miter;stroke:rgb(0%,0%,0%);stroke-opacity:1;stroke-miterlimit:10;" d="M 338.808783 227.125872 C 336.146164 228.79235 333.939994 230.701226 332.357638 234.109932 C 330.699207 237.609537 329.345075 243.154365 329.375505 247.684157 C 329.405935 252.047301 329.664589 257.51638 332.905377 260.500892 C 336.176594 263.409654 343.418918 265.363979 348.774585 265.212481 C 354.145468 264.970084 360.048875 264.167144 364.400355 259.379806 C 368.6149 254.41067 373.14896 241.563636 373.833633 235.988508 C 374.335727 230.36793 372.327351 227.959111 367.930227 225.974487 C 363.502672 223.929263 352.593542 223.459619 347.694323 223.747465 C 342.764674 224.005012 341.319252 225.216996 338.808783 227.125872 Z M 338.808783 227.125872 " transform="matrix(0.256737,0,0,0.257842,0.104971,0)"/>
<path style="fill-rule:evenodd;fill:rgb(75.294118%,75.294118%,75.294118%);fill-opacity:1;stroke-width:0.036;stroke-linecap:butt;stroke-linejoin:miter;stroke:rgb(0%,0%,0%);stroke-opacity:1;stroke-miterlimit:10;" d="M 328.827766 268.060644 C 337.728521 268.499988 345.351218 268.681786 352.015373 268.606037 C 358.603453 268.530288 364.035195 268.166693 368.46275 267.666749 C 367.108618 271.302702 366.56088 274.075117 366.849964 276.529385 C 367.108618 278.862455 368.188881 280.513784 370.090752 281.634869 C 364.187345 279.544196 357.842705 277.892867 350.691671 276.529385 C 343.449348 275.196202 335.781005 274.150866 327.24541 273.529724 C 327.747504 271.726897 328.295242 269.893771 328.827766 268.060644 Z M 328.827766 268.060644 " transform="matrix(0.256737,0,0,0.257842,0.104971,0)"/>
<path style="fill-rule:evenodd;fill:rgb(0%,0%,0%);fill-opacity:1;stroke-width:0.036;stroke-linecap:butt;stroke-linejoin:miter;stroke:rgb(0%,0%,0%);stroke-opacity:1;stroke-miterlimit:10;" d="M 391.619927 256.364995 C 387.907476 256.213497 385.168782 256.652841 383.266911 258.046623 C 381.288966 259.349506 379.737039 262.440067 380.269563 264.288343 C 380.786872 266.015421 382.901752 267.454652 386.507699 268.606037 C 381.288966 274.756858 379.660965 279.150301 381.63891 281.634869 C 383.616856 284.119437 388.957308 284.69513 398.055857 283.513445 C 403.822329 287.937188 408.006445 289.512768 410.729923 288.406832 C 413.392542 287.209997 414.624955 283.255898 414.259795 276.529385 C 418.946005 274.726558 422.034643 272.484387 423.951728 269.545325 C 425.823169 266.485064 426.386123 260.65239 425.27543 258.985911 C 423.982158 257.334582 421.060885 257.592129 416.38989 259.743401 C 419.052509 256.895238 420.665296 254.092524 421.243464 251.471608 C 421.639053 248.759793 420.95438 244.835994 419.630678 243.730058 C 418.291761 242.578673 416.283386 242.942268 413.438187 244.669346 C 411.414597 243.290713 409.223642 242.715021 407.245696 243.336163 C 405.222106 243.836106 403.031151 245.351087 401.053206 247.865954 C 397.203819 245.926779 394.099967 245.275338 391.619927 245.775281 C 389.033383 246.320674 386.249045 248.941591 386.218615 250.895915 C 386.218615 252.683592 388.01398 254.41067 391.619927 256.364995 Z M 391.619927 256.364995 " transform="matrix(0.256737,0,0,0.257842,0.104971,0)"/>
<path style="fill-rule:evenodd;fill:rgb(75.294118%,75.294118%,75.294118%);fill-opacity:1;stroke-width:0.036;stroke-linecap:butt;stroke-linejoin:miter;stroke:rgb(0%,0%,0%);stroke-opacity:1;stroke-miterlimit:10;" d="M 396.473501 258.228421 C 391.726432 257.364882 388.272635 257.470931 385.95996 258.410219 C 383.555996 259.349506 382.004069 262.046172 382.719173 263.894448 C 383.479921 265.621526 386.036035 267.197105 390.539665 268.787835 C 385.138352 274.393262 383.297341 278.104965 384.879698 280.301686 C 386.477269 282.468108 391.589497 282.710505 400.216383 281.453071 C 404.978667 285.301122 408.386819 286.497956 410.486484 285.42232 C 412.540504 284.225486 413.255608 280.619832 412.647009 274.469012 C 416.6029 272.711634 419.341594 270.939107 421.000025 268.787835 C 422.536736 266.515364 423.769149 263.091508 422.323727 261.834074 C 420.7718 260.60694 417.500583 260.440292 412.09927 261.440179 C 414.183721 259.970648 415.659572 258.016324 416.678975 255.607505 C 417.531013 253.047188 418.398266 248.017453 417.759237 246.744869 C 417.074564 245.487435 415.416133 246.002529 412.647009 248.259849 C 411.810186 246.426723 410.775568 245.775281 409.117137 246.184326 C 407.458706 246.63882 405.450331 247.972003 402.924646 250.714118 C 398.451447 248.017453 395.180229 246.926667 392.943629 246.926667 C 390.646169 247.032715 389.094243 249.01734 389.718057 251.077713 C 390.326655 252.941139 392.48718 255.289359 396.473501 258.228421 Z M 396.473501 258.228421 " transform="matrix(0.256737,0,0,0.257842,0.104971,0)"/>
<path style="fill-rule:evenodd;fill:rgb(25.098039%,25.098039%,25.098039%);fill-opacity:1;stroke-width:0.036;stroke-linecap:butt;stroke-linejoin:miter;stroke:rgb(0%,0%,0%);stroke-opacity:1;stroke-miterlimit:10;" d="M 54.806244 258.167822 C 54.228075 259.561604 54.699739 262.621864 56.342955 267.484952 C 57.818807 272.302589 59.735893 281.134926 64.452532 286.861552 C 69.230031 292.512429 77.187458 299.496489 84.82537 301.284166 C 92.463283 302.950644 102.033496 301.223567 109.382324 296.936172 C 116.426853 292.512429 122.451979 285.376871 127.412058 275.150753 C 122.010745 272.090492 118.237434 268.272741 115.924759 263.273306 C 113.657729 258.27387 114.631487 253.047188 113.551224 245.381387 C 112.257952 237.639836 110.416942 224.823102 108.591146 217.233049 C 106.64363 209.521799 105.852452 203.295229 102.32258 199.659276 C 98.610129 196.068772 91.991619 194.735589 87.168475 195.265833 C 82.375761 195.629428 77.522187 198.401842 73.840165 202.037795 C 70.097284 205.5374 66.673917 210.036892 64.985056 216.657357 C 63.22012 223.308121 63.585279 235.306766 63.15926 241.351538 C 62.535446 247.184213 62.931035 249.093089 61.561688 251.941252 C 60.085837 254.698516 57.970957 256.834639 54.806244 258.167822 Z M 54.806244 258.167822 " transform="matrix(0.256737,0,0,0.257842,0.104971,0)"/>
<path style="fill-rule:evenodd;fill:rgb(0%,0%,0%);fill-opacity:1;stroke-width:0.036;stroke-linecap:butt;stroke-linejoin:miter;stroke:rgb(0%,0%,0%);stroke-opacity:1;stroke-miterlimit:10;" d="M 81.949742 242.063579 C 81.478078 245.699532 81.478078 245.775281 82.238826 248.653744 C 82.9235 251.501908 83.060434 256.75889 86.118642 258.879863 C 89.039916 260.864487 95.871435 262.440067 99.979475 260.712989 C 104.041871 258.879863 109.199744 253.66833 110.416942 248.123501 C 111.466774 242.472624 109.701838 232.064708 106.780565 227.459168 C 103.798432 222.732429 96.814763 220.656905 93.178386 220.505407 C 89.465935 220.399359 86.955465 223.020275 85.084025 226.731977 C 83.212584 230.292181 82.299686 238.321578 81.949742 242.063579 Z M 81.949742 242.063579 " transform="matrix(0.256737,0,0,0.257842,0.104971,0)"/>
<path style="fill-rule:evenodd;fill:rgb(75.294118%,75.294118%,75.294118%);fill-opacity:1;stroke-width:0.036;stroke-linecap:butt;stroke-linejoin:miter;stroke:rgb(0%,0%,0%);stroke-opacity:1;stroke-miterlimit:10;" d="M 84.277631 242.03328 C 83.775538 245.351087 83.851612 245.381387 84.505856 247.972003 C 85.084025 250.486871 85.433969 255.577205 88.066158 257.228534 C 90.652702 258.743514 96.525678 259.243458 99.979475 257.622429 C 103.372413 255.925651 107.176154 252.289697 108.073837 247.547809 C 108.72808 242.608972 106.67406 233.352442 104.40703 229.110496 C 102.033496 224.823102 97.316857 222.62638 94.441228 222.520331 C 91.38302 222.383983 88.887766 224.717053 87.12283 228.140909 C 85.403539 231.307218 84.688435 238.715472 84.277631 242.03328 Z M 84.277631 242.03328 " transform="matrix(0.256737,0,0,0.257842,0.104971,0)"/>
<path style="fill-rule:evenodd;fill:rgb(25.098039%,25.098039%,25.098039%);fill-opacity:1;stroke-width:0.036;stroke-linecap:butt;stroke-linejoin:miter;stroke:rgb(0%,0%,0%);stroke-opacity:1;stroke-miterlimit:10;" d="M 254.563521 278.104965 C 253.635408 278.650358 253.483259 280.089589 254.274437 282.816554 C 254.852606 285.48292 256.328457 290.633853 258.991076 293.98196 C 261.7602 297.148269 266.187755 299.996432 270.721814 302.223454 C 275.118939 304.389876 279.729074 306.616897 285.373826 306.980492 C 291.033793 307.222889 298.413051 307.056241 304.179523 304.05658 C 309.824275 300.859971 315.590746 294.996997 319.074973 288.694678 C 322.422266 282.392359 324.111127 275.120453 324.293706 266.591113 C 321.737592 265.833623 320.048731 263.561152 318.785889 259.637353 C 317.523047 255.577205 317.355682 248.729493 316.990523 243.002867 C 316.594934 237.245941 316.884018 231.12542 316.199345 225.610891 C 315.408167 220.035763 314.327904 213.778894 312.273884 209.885394 C 310.006854 205.931295 306.766067 203.295229 303.373129 202.401391 C 299.995407 201.492402 295.567852 202.643787 292.433569 204.598112 C 289.268857 206.431239 287.245266 207.840171 284.582647 213.384999 C 281.813524 218.778329 278.618381 229.61044 276.488286 237.139893 C 274.358191 244.593597 274.175611 251.865503 271.771647 257.986024 C 269.185103 263.924747 264.209809 269.318078 261.334181 272.772233 C 258.458552 276.16579 256.145878 277.892867 254.563521 278.104965 Z M 254.563521 278.104965 " transform="matrix(0.256737,0,0,0.257842,0.104971,0)"/>
<path style="fill-rule:evenodd;fill:rgb(0%,0%,0%);fill-opacity:1;stroke-width:0.036;stroke-linecap:butt;stroke-linejoin:miter;stroke:rgb(0%,0%,0%);stroke-opacity:1;stroke-miterlimit:10;" d="M 279.150905 244.093653 C 278.572736 247.729606 278.724886 247.790205 279.439989 250.668668 C 280.094233 253.516832 280.383317 258.773814 283.36545 260.894787 C 286.317154 262.879411 293.042168 264.47014 297.195854 262.727913 C 301.258249 260.894787 306.400907 255.683254 307.63332 250.138425 C 308.667937 244.487548 306.903001 234.079632 303.996943 229.474092 C 300.999595 224.762502 294.015926 222.671829 290.379549 222.520331 C 286.636668 222.444582 284.232703 224.9746 282.315618 228.716601 C 280.337672 232.246506 279.652999 240.412251 279.150905 244.093653 Z M 279.150905 244.093653 " transform="matrix(0.256737,0,0,0.257842,0.104971,0)"/>
<path style="fill-rule:evenodd;fill:rgb(75.294118%,75.294118%,75.294118%);fill-opacity:1;stroke-width:0.036;stroke-linecap:butt;stroke-linejoin:miter;stroke:rgb(0%,0%,0%);stroke-opacity:1;stroke-miterlimit:10;" d="M 281.49401 244.048204 C 280.991916 247.366011 281.052776 247.396311 281.707019 249.986927 C 282.285188 252.516945 282.650347 257.592129 285.267321 259.243458 C 287.86908 260.758438 293.726842 261.258382 297.195854 259.637353 C 300.573576 257.940575 304.392532 254.304621 305.290215 249.562733 C 305.944459 244.623896 303.890438 235.367366 301.623408 231.12542 C 299.234659 226.838026 294.51802 224.641304 291.642391 224.535255 C 288.584183 224.398907 286.104144 226.731977 284.339208 230.155833 C 282.604702 233.322142 281.889599 240.745546 281.49401 244.048204 Z M 281.49401 244.048204 " transform="matrix(0.256737,0,0,0.257842,0.104971,0)"/>
<path style="fill-rule:evenodd;fill:rgb(0%,0%,0%);fill-opacity:1;stroke-width:0.036;stroke-linecap:butt;stroke-linejoin:miter;stroke:rgb(0%,0%,0%);stroke-opacity:1;stroke-miterlimit:10;" d="M 144.985342 113.365988 C 143.220406 112.941794 141.774985 112.653948 140.268703 112.896345 C 138.640702 112.972094 137.16485 112.941794 136.236737 114.335576 C 135.339054 115.744508 134.943465 117.971529 135.04997 121.183288 C 134.106642 121.00149 133.498044 121.365085 132.919875 122.122576 C 132.235202 122.880066 131.657033 124.455646 131.733108 125.894877 C 131.839612 127.334108 132.341706 128.712741 133.391539 130.394369 C 131.337519 130.439818 130.363761 131.197309 130.074677 132.530491 C 129.785592 133.893974 129.648657 137.31783 131.991762 138.469215 C 134.289222 139.469102 138.184253 139.544851 143.798575 138.681312 C 143.93551 135.333205 144.042015 132.303244 144.255024 129.212684 C 144.437604 126.046375 144.726688 122.804317 144.985342 120.456097 C 145.122277 118.123027 145.380931 116.395949 145.441791 115.274864 C 145.487436 114.01743 145.228782 113.517487 144.985342 113.365988 Z M 144.985342 113.365988 " transform="matrix(0.256737,0,0,0.257842,0.104971,0)"/>
<path style="fill-rule:evenodd;fill:rgb(88.627451%,71.764706%,61.176471%);fill-opacity:1;stroke-width:0.036;stroke-linecap:butt;stroke-linejoin:miter;stroke:rgb(0%,0%,0%);stroke-opacity:1;stroke-miterlimit:10;" d="M 133.345894 132.697139 C 134.365297 133.060735 135.506419 135.181707 137.10399 135.575602 C 138.534197 135.908898 140.953377 134.651464 141.85106 134.99991 C 142.642238 135.257456 142.961752 136.954234 141.85106 137.454178 C 140.618647 137.848073 136.525822 137.999571 134.791316 137.742024 C 132.8438 137.378429 131.657033 136.196744 131.078864 135.439254 C 130.57677 134.499966 131.078864 133.318281 131.626603 132.848637 C 131.946117 132.348694 132.387351 132.197196 133.345894 132.697139 Z M 133.345894 132.697139 " transform="matrix(0.256737,0,0,0.257842,0.104971,0)"/>
<path style="fill-rule:evenodd;fill:rgb(0%,0%,0%);fill-opacity:1;stroke-width:0.036;stroke-linecap:butt;stroke-linejoin:miter;stroke:rgb(0%,0%,0%);stroke-opacity:1;stroke-miterlimit:10;" d="M 147.145867 116.653496 C 148.28699 116.577747 149.306392 117.001942 150.31058 117.941229 C 151.238693 118.804768 152.42546 119.986453 153.049274 122.077126 C 153.581798 124.167799 153.764377 126.728116 153.581798 130.151972 L 158.907035 133.560678 C 159.698214 131.045811 160.565467 128.137048 161.645729 124.955589 C 162.649917 121.577183 163.851899 117.289788 165.206031 114.199228 C 166.621023 111.108668 168.051229 107.972658 169.816165 106.897022 C 171.398522 105.806236 173.133028 106.094082 175.004469 107.760561 C 180.877445 104.291255 185.913599 100.367456 190.523733 96.125511 C 195.133867 91.807816 198.876749 87.156826 202.300116 82.051342 L 204.445426 80.324264 C 204.201987 79.672823 204.780155 75.930821 206.332082 69.234607 C 207.838363 62.432345 210.181468 52.675871 213.483115 39.828837 C 210.866141 38.707751 209.101205 36.980673 207.914438 34.783952 C 206.727671 32.375133 205.784343 27.830191 206.469016 26.315211 C 207.077615 24.84568 210.135823 25.027477 211.763824 26.027364 C 213.239676 26.966652 214.532948 28.845228 215.64364 31.79944 C 215.248051 27.466596 215.400201 23.088302 215.932725 18.61911 C 216.434819 14.043869 217.484651 7.787 218.930073 4.832788 C 220.29942 1.696778 223.464133 -1.393782 224.392245 0.696891 C 225.259498 2.878463 225.259498 8.423291 224.255311 17.755571 C 226.522341 12.316791 228.393781 8.680838 230.265222 6.847712 C 232.030158 5.014585 234.434122 5.332731 235.012291 6.696214 C 235.34702 7.923348 234.297188 10.559414 233.14085 14.301416 C 232.030158 18.043417 230.554306 22.800456 228.576361 28.951277 C 231.26941 24.088189 233.749449 20.891581 235.727394 19.331151 C 237.720555 17.679822 239.805005 18.513061 240.626613 19.482649 C 241.356932 20.421937 241.417791 22.648958 240.444034 24.921429 C 239.409416 27.072701 237.507545 29.526969 234.586272 32.405432 C 237.61405 30.9965 239.94194 30.572306 241.752521 30.814703 C 243.623961 31.102549 244.947663 32.723578 245.206318 34.13251 C 245.206318 35.435393 243.867401 37.056422 242.041605 38.556253 C 239.987585 39.889436 236.244703 40.040934 233.719019 42.449753 C 231.193335 44.904021 229.656623 47.100743 226.841855 52.933418 C 223.890152 58.644894 218.275829 70.385993 216.221809 76.476214 C 214.061284 82.445237 213.346181 86.399336 214.061284 88.641507 C 215.82622 88.535459 216.693473 89.111151 216.799978 90.504933 C 216.876053 91.807816 215.506706 93.792441 214.639453 96.852701 C 213.665695 99.837213 212.844087 103.109571 211.32259 108.760448 C 209.664159 114.411325 207.00154 124.501095 205.419184 130.682215 C 203.882472 136.848186 202.80221 141.635524 202.178396 145.453275 L 158.481016 145.453275 C 156.290061 145.741121 154.525125 145.195728 152.790619 143.832246 C 151.177833 142.347565 149.732411 139.257005 148.469569 137.166332 C 147.069793 135.121108 145.776521 133.242532 144.437604 131.545754 C 145.335287 126.576618 146.248184 121.607482 147.145867 116.653496 Z M 147.145867 116.653496 " transform="matrix(0.256737,0,0,0.257842,0.104971,0)"/>
<path style="fill-rule:evenodd;fill:rgb(88.627451%,71.764706%,61.176471%);fill-opacity:1;stroke-width:0.036;stroke-linecap:butt;stroke-linejoin:miter;stroke:rgb(0%,0%,0%);stroke-opacity:1;stroke-miterlimit:10;" d="M 138.245113 114.911269 C 137.317 115.199115 137.210495 116.683796 137.10399 118.229076 C 136.845336 119.774356 136.191092 122.516471 137.10399 123.955702 C 137.895169 125.182836 140.953377 127.379558 141.987994 126.106974 C 142.855247 124.667743 143.463846 118.092728 142.855247 116.214152 C 142.094499 114.305276 139.218871 114.517374 138.245113 114.911269 Z M 138.245113 114.911269 " transform="matrix(0.256737,0,0,0.257842,0.104971,0)"/>
<path style="fill-rule:evenodd;fill:rgb(88.627451%,71.764706%,61.176471%);fill-opacity:1;stroke-width:0.036;stroke-linecap:butt;stroke-linejoin:miter;stroke:rgb(0%,0%,0%);stroke-opacity:1;stroke-miterlimit:10;" d="M 135.23255 123.804204 C 136.023728 124.349597 136.556252 126.152424 137.666944 127.273509 C 138.747207 128.243097 141.014236 128.77334 141.409826 129.712628 C 141.69891 130.545867 140.481713 132.742589 139.40145 132.560791 C 138.062533 132.227495 135.369484 129.636879 134.213147 128.273396 C 133.02638 126.803865 132.448211 125.182836 132.630791 124.379896 C 132.78294 123.592107 134.289222 123.273961 135.23255 123.804204 Z M 135.23255 123.804204 " transform="matrix(0.256737,0,0,0.257842,0.104971,0)"/>
<path style="fill-rule:evenodd;fill:rgb(88.627451%,71.764706%,61.176471%);fill-opacity:1;stroke-width:0.036;stroke-linecap:butt;stroke-linejoin:miter;stroke:rgb(0%,0%,0%);stroke-opacity:1;stroke-miterlimit:10;" d="M 149.336822 119.380461 C 149.625907 118.880517 150.52359 120.137951 151.071328 121.365085 C 151.466917 122.471021 152.39503 124.561694 152.3646 126.106974 C 152.182021 127.667404 151.284338 129.424781 150.630094 130.151972 C 149.838916 130.682215 148.652149 130.545867 148.332635 129.576279 C 147.967476 128.455194 148.576074 126.076675 148.758654 124.379896 C 148.834729 122.54677 148.971663 119.956154 149.336822 119.380461 Z M 149.336822 119.380461 " transform="matrix(0.256737,0,0,0.257842,0.104971,0)"/>
<path style="fill-rule:evenodd;fill:rgb(88.627451%,71.764706%,61.176471%);fill-opacity:1;stroke-width:0.036;stroke-linecap:butt;stroke-linejoin:miter;stroke:rgb(0%,0%,0%);stroke-opacity:1;stroke-miterlimit:10;" d="M 153.231853 132.409293 C 154.66206 132.954686 155.711893 133.712176 156.503071 134.287869 C 157.218174 134.833262 157.659408 135.575602 157.796343 136.166445 C 157.507259 139.075207 157.218174 141.241629 156.792155 142.347565 C 156.320491 143.438351 155.848827 143.756497 155.240229 143.029306 C 154.63163 143.574699 153.946957 143.392901 153.338358 142.499063 C 152.653685 141.484026 152.029871 139.938746 151.360413 137.454178 C 151.603852 136.878485 151.892937 136.302793 152.212451 135.439254 C 152.54718 134.575715 152.836264 133.560678 153.231853 132.409293 Z M 153.231853 132.409293 " transform="matrix(0.256737,0,0,0.257842,0.104971,0)"/>
<path style="fill-rule:evenodd;fill:rgb(96.862745%,96.470588%,9.803922%);fill-opacity:1;stroke-width:0.036;stroke-linecap:butt;stroke-linejoin:miter;stroke:rgb(0%,0%,0%);stroke-opacity:1;stroke-miterlimit:10;" d="M 158.663596 143.211104 C 158.846176 140.938633 159.424344 137.923822 160.535037 133.712176 C 161.539224 129.455081 163.66932 122.410422 165.099526 118.229076 C 166.468873 114.01743 167.762145 110.487526 168.994557 108.911946 C 170.181325 107.245467 171.048578 108.215055 172.15927 108.336253 C 173.163458 108.366553 174.21329 108.654399 175.293553 109.199792 C 175.552207 109.411889 177.271498 108.442302 180.618791 105.730487 C 183.935653 102.973222 191.603996 96.95875 195.270802 93.383396 C 198.937609 89.97469 201.098134 87.020478 202.300116 84.929805 C 202.80221 86.293287 204.095482 87.490122 206.179932 88.490009 C 208.264382 89.292949 213.483115 89.535346 214.639453 90.792779 C 215.582781 92.171412 213.239676 93.85304 212.341993 96.701203 C 211.47474 99.473618 211.109581 99.685715 209.314215 107.472714 C 207.366699 115.244564 204.567146 126.803865 200.74819 142.817209 C 193.292857 142.999006 186.126608 143.180804 179.112509 143.211104 C 172.052765 143.256553 165.282106 143.256553 158.663596 143.211104 Z M 158.663596 143.211104 " transform="matrix(0.256737,0,0,0.257842,0.104971,0)"/>
<path style="fill-rule:evenodd;fill:rgb(0%,0%,0%);fill-opacity:1;stroke-width:0.036;stroke-linecap:butt;stroke-linejoin:miter;stroke:rgb(0%,0%,0%);stroke-opacity:1;stroke-miterlimit:10;" d="M 207.18412 118.516922 C 205.601763 119.562259 204.278061 119.713757 203.593388 118.956266 C 202.86307 118.123027 202.406621 116.532298 202.573985 113.911381 C 200.093946 113.25994 199.089758 112.108555 199.409273 110.745072 C 199.667927 109.33614 201.387218 107.427265 204.445426 105.306292 C 202.695705 103.033822 202.117536 101.170396 202.437051 99.685715 C 202.80221 98.110135 205.023595 96.095211 206.605951 96.277009 C 208.157878 96.413357 209.785879 97.898038 211.611675 100.700752 Z M 207.18412 118.516922 " transform="matrix(0.256737,0,0,0.257842,0.104971,0)"/>
<path style="fill-rule:evenodd;fill:rgb(98.431373%,5.882353%,4.705882%);fill-opacity:1;stroke-width:0.036;stroke-linecap:butt;stroke-linejoin:miter;stroke:rgb(0%,0%,0%);stroke-opacity:1;stroke-miterlimit:10;" d="M 207.579709 116.062654 C 206.392942 117.259488 205.495259 117.835181 204.88666 117.804881 C 204.171557 117.653383 203.699893 116.608047 203.882472 115.638459 C 203.988977 114.593123 204.704081 113.441737 205.890848 111.896457 C 203.593388 112.366101 202.300116 112.214603 202.011032 111.608611 C 201.676302 110.851121 202.908715 108.502901 203.882472 107.896909 C 204.704081 107.290917 205.860418 107.139419 207.18412 107.760561 C 205.1301 104.760899 204.125912 102.609627 204.019407 101.124946 C 203.943332 99.625116 205.464829 98.579779 206.605951 98.973674 C 207.625354 99.216071 208.812121 100.518954 210.181468 102.852024 C 209.314215 107.245467 208.446962 111.638911 207.579709 116.062654 Z M 207.579709 116.062654 " transform="matrix(0.256737,0,0,0.257842,0.104971,0)"/>
<path style="fill-rule:evenodd;fill:rgb(0%,0%,0%);fill-opacity:1;stroke-width:0.036;stroke-linecap:butt;stroke-linejoin:miter;stroke:rgb(0%,0%,0%);stroke-opacity:1;stroke-miterlimit:10;" d="M 168.0208 82.127091 C 167.701285 87.338624 167.83822 92.27746 168.598968 96.913301 C 169.283642 101.488542 169.314072 106.487977 172.1897 109.699736 C 175.004469 112.896345 181.303464 116.895893 185.411505 115.850556 C 189.397826 114.562823 193.551511 108.260504 196.168485 102.639927 C 198.724599 96.852701 199.378843 86.626583 200.459105 82.263439 C 201.280713 77.976045 200.930769 79.12743 201.752377 77.264004 C 202.61963 75.24908 204.567146 72.90086 205.358324 70.931386 C 206.042997 68.840712 206.179932 66.613691 205.647408 65.341108 C 204.91709 64.053374 202.80221 63.507981 201.752377 63.326184 C 200.74819 63.083787 200.017871 63.371633 199.591852 64.053374 L 199.744002 62.03845 C 201.356788 60.735567 202.80221 59.73568 204.201987 59.008489 C 205.525689 58.296448 206.682026 57.857104 207.807933 57.720756 L 201.463293 57.145063 C 202.224041 56.205775 203.228229 55.296787 204.491071 54.584746 C 205.753913 53.796956 207.047185 53.069766 208.766476 52.418324 C 207.518849 51.736583 206.332082 51.312388 205.06924 51.130591 C 203.699893 50.842745 202.543555 50.842745 201.174209 50.979093 C 203.730323 50.373101 205.601763 49.797408 206.94068 49.539861 C 208.233952 49.221715 208.994701 49.070217 209.055561 49.115667 C 207.12326 48.570274 205.358324 48.282428 203.623818 48.252128 C 201.858882 48.10063 199.957011 48.433926 198.724599 48.539974 C 197.431327 48.570274 196.533644 48.570274 196.03155 48.539974 C 196.716224 47.782484 197.902991 47.34314 199.744002 46.949245 C 201.569798 46.631099 203.882472 46.343253 206.94068 46.373552 L 201.752377 45.373665 L 206.651596 43.813235 L 200.170021 41.661963 C 199.515777 40.752975 198.192075 40.040934 196.320635 39.647039 C 194.403549 39.177395 191.817005 39.025897 188.682722 39.071346 C 187.998049 37.556366 186.522197 37.117021 184.255167 37.480617 C 181.851203 37.874512 177.484508 39.359193 174.928394 41.374117 C 172.448354 43.237543 170.439979 46.237204 169.177137 48.676322 C 167.731715 51.024542 166.544948 53.327312 166.727528 55.584633 C 166.834032 57.720756 167.83822 59.765979 169.89224 61.750604 C 167.762145 62.144499 166.331938 63.189835 165.72334 64.477569 C 165.038666 65.780452 165.358181 68.189271 165.860275 69.78 C 166.286294 71.279831 167.016612 72.446366 168.157734 73.370504 C 168.127304 76.294416 168.096874 79.203179 168.0208 82.127091 Z M 168.0208 82.127091 " transform="matrix(0.256737,0,0,0.257842,0.104971,0)"/>
<path style="fill-rule:evenodd;fill:rgb(88.627451%,71.764706%,61.176471%);fill-opacity:1;stroke-width:0.036;stroke-linecap:butt;stroke-linejoin:miter;stroke:rgb(0%,0%,0%);stroke-opacity:1;stroke-miterlimit:10;" d="M 170.181325 75.097582 C 169.89224 77.370053 169.755306 79.12743 169.89224 80.536362 C 169.89224 81.793796 169.86181 82.520986 170.759493 83.126978 C 171.520242 83.672371 172.813514 84.429862 175.080543 84.142015 C 177.301928 83.74812 181.01438 83.066379 184.255167 81.112054 C 187.495955 79.021381 192.319099 72.734212 194.00796 72.370617 C 195.453382 71.931273 194.342689 74.779436 193.718876 78.960782 C 193.079847 83.126978 191.786575 92.777404 190.417228 97.201147 C 189.002236 101.458242 187.252515 104.594252 185.259355 104.806349 C 183.09883 104.912397 180.192772 101.412793 178.062677 98.352532 C 175.902152 95.231672 174.137216 91.307873 172.630934 86.444786 L 169.314072 86.444786 C 169.527081 91.807816 170.10525 96.337608 171.185512 100.04931 C 172.15927 103.715563 173.635122 106.457678 175.476132 108.396853 C 177.195424 110.351177 179.036434 111.396514 181.805558 111.532862 C 184.650756 111.502562 189.62605 110.457226 191.999585 108.396853 C 194.236184 106.351629 193.901455 103.654964 195.316447 99.185771 C 196.716224 94.504482 198.51159 85.141902 199.880937 80.975706 C 201.098134 76.79436 201.934957 76.536813 202.756565 74.521889 C 203.547743 72.476666 204.125912 69.992098 204.338921 68.628615 C 204.384566 67.007586 203.912902 66.098598 203.334734 65.780452 C 202.756565 65.492606 201.904527 65.810752 200.885124 66.901537 L 198.587665 63.765528 L 192.425604 63.61403 C 192.577753 65.341108 192.136519 66.825788 191.284481 67.901425 C 190.310723 68.977061 188.545788 69.704251 187.100366 70.067847 C 185.518009 70.416292 183.859578 70.59809 182.535876 69.916349 C 181.196959 69.098259 180.192772 67.613578 179.355949 65.341108 L 177.195424 65.341108 C 177.423648 67.113635 177.271498 68.583166 176.63247 69.916349 C 175.947796 71.173782 174.897964 72.188819 173.346037 72.94631 C 172.843944 74.203743 172.843944 75.067282 173.346037 75.673274 C 173.787271 76.188368 174.821889 76.79436 176.343385 76.400465 C 177.697517 76.00657 180.877445 73.370504 181.957708 73.370504 C 183.03797 73.264455 183.494419 74.597638 182.672811 75.824772 C 181.562119 77.006457 178.108321 79.597074 176.343385 80.248515 C 174.608879 80.748459 173.422112 79.854621 172.630934 78.960782 C 171.733251 77.976045 171.474597 76.506514 171.474597 74.521889 C 171.048578 74.703687 170.607344 74.885485 170.181325 75.097582 Z M 170.181325 75.097582 " transform="matrix(0.256737,0,0,0.257842,0.104971,0)"/>
<path style="fill-rule:evenodd;fill:rgb(100%,100%,100%);fill-opacity:1;stroke-width:0.036;stroke-linecap:butt;stroke-linejoin:miter;stroke:rgb(0%,0%,0%);stroke-opacity:1;stroke-miterlimit:10;" d="M 175.187048 86.86898 C 175.293553 88.853604 176.008656 90.868529 177.347573 93.322797 C 178.640845 95.655867 181.166529 100.412905 182.961895 101.064347 C 184.574682 101.488542 185.883169 100.670452 187.38945 96.776952 C 188.865302 92.807704 190.310723 86.732632 191.847435 77.945745 C 187.785039 81.44535 184.437747 83.884469 181.668623 85.429749 C 178.77778 86.914429 176.769405 87.338624 175.187048 86.86898 Z M 175.187048 86.86898 " transform="matrix(0.256737,0,0,0.257842,0.104971,0)"/>
<path style="fill-rule:evenodd;fill:rgb(88.627451%,71.764706%,61.176471%);fill-opacity:1;stroke-width:0.036;stroke-linecap:butt;stroke-linejoin:miter;stroke:rgb(0%,0%,0%);stroke-opacity:1;stroke-miterlimit:10;" d="M 172.052765 60.599219 C 173.026523 60.311372 173.711197 60.447721 174.502375 60.735567 C 175.187048 61.023413 175.795647 61.599106 176.343385 62.462645 L 179.066864 62.462645 C 178.8995 60.811316 179.325519 59.659931 180.375351 58.872141 C 181.333894 58.069201 183.387914 57.645007 185.12242 57.569258 C 186.704777 57.281412 188.971807 57.099614 190.128144 57.569258 C 191.208406 57.963153 191.786575 58.826692 191.847435 60.159874 L 196.03155 60.023526 C 194.875213 58.902441 194.297044 58.038902 194.297044 57.43291 C 194.266614 56.705719 195.848971 56.736019 195.742466 56.130026 C 195.453382 55.296787 193.429791 54.584746 193.155922 53.569709 C 192.821193 52.600122 194.266614 51.085141 193.871025 50.691246 C 193.262427 50.297352 191.132332 50.948793 190.128144 50.842745 C 189.002236 50.554898 188.941377 49.176266 187.815469 49.115667 C 186.598272 48.933869 184.148663 50.191303 183.387914 50.115554 C 182.642381 49.903457 183.753074 48.358177 183.25098 48.252128 C 182.414157 48.07033 181.120885 48.85812 179.508098 49.115667 C 177.925742 49.252015 175.369628 48.752071 174.21329 49.252015 C 173.133028 49.721659 173.346037 51.054842 172.630934 51.842632 C 171.626746 52.418324 169.177137 51.888081 169.024987 53.281863 C 168.994557 54.796844 169.816165 57.099614 172.052765 60.599219 Z M 172.052765 60.599219 " transform="matrix(0.256737,0,0,0.257842,0.104971,0)"/>
<path style="fill-rule:evenodd;fill:rgb(0%,0%,0%);fill-opacity:1;stroke-width:0.036;stroke-linecap:butt;stroke-linejoin:miter;stroke:rgb(0%,0%,0%);stroke-opacity:1;stroke-miterlimit:10;" d="M 170.04439 56.857217 C 171.155082 56.493622 172.31142 56.160326 173.498187 56.281524 C 174.715384 56.281524 176.875909 56.569371 177.058489 56.993565 C 177.058489 57.38746 175.034898 58.14495 173.924206 58.584295 C 172.707009 58.902441 171.398522 59.053939 170.04439 59.008489 Z M 170.04439 56.857217 " transform="matrix(0.256737,0,0,0.257842,0.104971,0)"/>
<path style="fill-rule:evenodd;fill:rgb(0%,0%,0%);fill-opacity:1;stroke-width:0.036;stroke-linecap:butt;stroke-linejoin:miter;stroke:rgb(0%,0%,0%);stroke-opacity:1;stroke-miterlimit:10;" d="M 181.957708 54.584746 C 182.383727 54.039353 185.624514 53.751507 187.252515 53.721207 C 188.682722 53.675758 191.603996 53.963604 191.132332 54.433248 C 190.554163 54.872593 185.913599 55.993678 184.407317 56.130026 C 182.809746 56.099727 181.455614 54.978641 181.957708 54.584746 Z M 181.957708 54.584746 " transform="matrix(0.256737,0,0,0.257842,0.104971,0)"/>
<path style="fill-rule:evenodd;fill:rgb(92.941176%,93.72549%,0.392157%);fill-opacity:1;stroke-width:0.036;stroke-linecap:butt;stroke-linejoin:miter;stroke:rgb(0%,0%,0%);stroke-opacity:1;stroke-miterlimit:10;" d="M 169.755306 50.842745 C 170.150895 50.948793 170.759493 50.948793 171.185512 50.554898 C 171.581101 50.115554 172.022335 49.070217 172.630934 48.676322 C 173.163458 48.282428 173.741626 48.130929 174.502375 48.252128 C 175.110973 46.085706 176.44989 44.17683 178.503911 42.813348 C 180.542716 41.404416 183.174905 40.253031 186.674347 39.647039 C 185.989673 38.889549 184.970271 38.601702 183.25098 38.919848 C 181.516474 39.071346 178.53434 39.965185 176.63247 41.222619 C 174.57845 42.63155 172.478784 45.040369 171.337662 46.812896 C 170.181325 48.388476 169.603156 49.691359 169.755306 50.842745 Z M 169.755306 50.842745 " transform="matrix(0.256737,0,0,0.257842,0.104971,0)"/>
<path style="fill-rule:evenodd;fill:rgb(92.941176%,93.72549%,0.392157%);fill-opacity:1;stroke-width:0.036;stroke-linecap:butt;stroke-linejoin:miter;stroke:rgb(0%,0%,0%);stroke-opacity:1;stroke-miterlimit:10;" d="M 176.48032 48.252128 C 176.404245 46.767447 177.423648 45.434264 179.355949 44.252579 C 181.273034 42.843648 185.015916 41.374117 188.256703 40.934772 C 191.421416 40.540877 194.905643 40.980222 198.587665 42.086157 C 194.114465 41.510465 190.341153 41.798311 187.252515 42.813348 C 184.072588 43.858685 181.592548 45.616062 179.797183 48.252128 Z M 176.48032 48.252128 " transform="matrix(0.256737,0,0,0.257842,0.104971,0)"/>
<path style="fill-rule:evenodd;fill:rgb(92.941176%,93.72549%,0.392157%);fill-opacity:1;stroke-width:0.036;stroke-linecap:butt;stroke-linejoin:miter;stroke:rgb(0%,0%,0%);stroke-opacity:1;stroke-miterlimit:10;" d="M 183.09883 47.388589 C 183.783503 46.343253 184.970271 45.434264 186.674347 44.828272 C 188.256703 44.17683 191.056257 43.570838 193.155922 43.389041 C 195.240372 43.101194 197.142243 43.101194 199.013684 43.237543 C 200.702545 43.313292 202.147966 43.46479 203.334734 43.813235 C 202.071892 44.282879 201.219853 44.616175 200.59604 44.934321 C 199.957011 45.222167 199.667927 45.510013 199.744002 45.661511 C 198.435515 45.691811 197.111813 46.116005 195.742466 46.812896 C 194.342689 47.449188 192.897268 48.464225 191.421416 49.827708 C 190.554163 48.88842 189.68691 48.312727 188.682722 48.10063 C 187.57203 47.812784 186.522197 48.418776 185.548439 48.388476 C 184.544252 48.312727 183.859578 47.858233 183.09883 47.388589 Z M 183.09883 47.388589 " transform="matrix(0.256737,0,0,0.257842,0.104971,0)"/>
<path style="fill-rule:evenodd;fill:rgb(92.941176%,93.72549%,0.392157%);fill-opacity:1;stroke-width:0.036;stroke-linecap:butt;stroke-linejoin:miter;stroke:rgb(0%,0%,0%);stroke-opacity:1;stroke-miterlimit:10;" d="M 195.742466 50.115554 C 198.831104 49.358064 200.59604 49.070217 201.174209 49.252015 C 201.645873 49.327764 199.957011 50.085254 198.876749 50.842745 C 197.689982 51.524486 196.381495 52.388025 194.586129 53.433361 C 194.510054 52.812219 194.510054 52.236527 194.738278 51.706283 C 194.951288 51.16089 195.240372 50.585198 195.742466 50.115554 Z M 195.742466 50.115554 " transform="matrix(0.256737,0,0,0.257842,0.104971,0)"/>
<path style="fill-rule:evenodd;fill:rgb(92.941176%,93.72549%,0.392157%);fill-opacity:1;stroke-width:0.036;stroke-linecap:butt;stroke-linejoin:miter;stroke:rgb(0%,0%,0%);stroke-opacity:1;stroke-miterlimit:10;" d="M 196.168485 53.569709 C 197.720412 52.994017 199.196263 52.569822 200.59604 52.418324 C 201.965387 52.175927 203.258659 52.175927 204.491071 52.418324 C 202.83264 53.100065 201.539368 53.963604 200.74819 54.872593 C 199.804862 55.81188 199.059328 57.023865 199.454918 57.720756 C 199.774432 58.220699 200.930769 58.357048 202.908715 58.14495 L 199.302768 60.887065 L 197.005308 60.159874 C 196.168485 59.266036 195.712036 58.402497 195.742466 57.720756 C 195.666391 57.023865 196.929233 56.448172 197.005308 55.84218 C 197.066168 55.130139 196.746654 54.372649 196.168485 53.569709 Z M 196.168485 53.569709 " transform="matrix(0.256737,0,0,0.257842,0.104971,0)"/>
<path style="fill-rule:evenodd;fill:rgb(63.137255%,38.039216%,12.941176%);fill-opacity:1;stroke-width:0.036;stroke-linecap:butt;stroke-linejoin:miter;stroke:rgb(0%,0%,0%);stroke-opacity:1;stroke-miterlimit:10;" d="M 180.664436 61.174911 C 180.086267 62.174798 180.694866 63.795828 181.227389 65.053261 C 181.699053 66.204646 182.246792 67.583279 183.676999 68.052923 C 185.09199 68.371069 188.439283 68.734664 189.549975 67.325732 C 190.554163 65.810752 190.706313 60.599219 189.83906 59.296336 C 188.865302 57.932853 186.126608 58.750943 184.544252 59.159987 C 182.961895 59.447834 181.166529 60.159874 180.664436 61.174911 Z M 180.664436 61.174911 " transform="matrix(0.256737,0,0,0.257842,0.104971,0)"/>
<path style="fill-rule:evenodd;fill:rgb(63.137255%,38.039216%,12.941176%);fill-opacity:1;stroke-width:0.036;stroke-linecap:butt;stroke-linejoin:miter;stroke:rgb(0%,0%,0%);stroke-opacity:1;stroke-miterlimit:10;" d="M 172.630934 62.750491 C 171.398522 62.79594 169.92267 63.220135 169.024987 63.901876 C 168.051229 64.553318 167.336126 65.098711 167.153547 66.356145 C 166.940537 67.537829 167.077472 69.658802 167.731715 70.779888 C 168.203379 71.794924 169.207567 72.370617 170.318259 72.370617 C 171.474597 72.188819 173.269963 70.961685 174.350225 70.067847 C 175.217478 69.05281 175.826077 68.052923 176.054301 66.901537 C 176.267311 65.674403 176.115161 64.007925 175.613067 63.326184 C 174.867534 62.568693 173.817701 62.614143 172.630934 62.750491 Z M 172.630934 62.750491 " transform="matrix(0.256737,0,0,0.257842,0.104971,0)"/>
<path style="fill-rule:evenodd;fill:rgb(0%,0%,0%);fill-opacity:1;stroke-width:0.036;stroke-linecap:butt;stroke-linejoin:miter;stroke:rgb(0%,0%,0%);stroke-opacity:1;stroke-miterlimit:10;" d="M 188.834872 118.229076 C 188.576217 116.532298 188.576217 115.274864 189.123956 114.04773 C 189.62605 112.790296 190.478088 111.457113 191.7105 111.169267 C 192.821193 110.745072 195.088223 111.032919 195.590316 112.032806 C 195.925046 113.047843 195.483812 114.77492 194.00796 117.229189 C 195.270802 116.608047 196.24456 116.608047 197.324822 117.365537 C 198.374655 118.016979 200.246096 119.986453 200.017871 121.501434 C 199.622282 122.880066 198.146431 124.455646 195.316447 125.970626 C 196.168485 127.515906 196.609719 128.818789 196.457569 130.000474 C 196.24456 131.07611 195.377307 132.803188 194.449194 132.848637 C 193.505866 132.742589 192.212594 131.87905 190.706313 129.864126 C 189.762985 131.87905 188.941377 133.060735 187.815469 133.42433 C 186.674347 133.666727 184.833336 132.454742 184.255167 131.697252 C 183.570494 130.757964 183.890008 129.394482 184.255167 128.424894 C 184.544252 127.409857 185.259355 126.546319 186.278758 125.819128 C 184.072588 124.243548 182.642381 122.804317 181.805558 121.501434 C 180.98395 120.168251 180.8318 118.66842 181.379539 117.941229 C 181.957708 117.10799 183.616139 116.501998 184.970271 116.653496 C 186.233113 116.714095 187.41988 117.15344 188.834872 118.229076 Z M 188.834872 118.229076 " transform="matrix(0.256737,0,0,0.257842,0.104971,0)"/>
<path style="fill-rule:evenodd;fill:rgb(98.431373%,5.882353%,4.705882%);fill-opacity:1;stroke-width:0.036;stroke-linecap:butt;stroke-linejoin:miter;stroke:rgb(0%,0%,0%);stroke-opacity:1;stroke-miterlimit:10;" d="M 190.128144 120.637895 C 190.052069 118.850218 190.204219 117.365537 190.417228 116.077804 C 190.630238 114.77492 190.660668 113.153891 191.497491 112.866045 C 192.182164 112.320652 194.510054 112.578199 194.768708 113.623535 C 194.981718 114.668872 194.16011 116.532298 192.577753 119.244113 C 194.053605 118.092728 195.133867 117.653383 196.21413 118.092728 C 197.187888 118.441173 198.876749 120.456097 198.51159 121.607482 C 198.009496 122.652819 196.640149 123.637556 193.871025 124.531395 C 194.905643 126.288772 195.453382 127.515906 195.483812 128.74304 C 195.377307 129.818676 194.631774 131.333657 193.794951 131.197309 C 192.973342 130.939762 191.89308 129.818676 190.554163 127.561355 C 189.83906 130.045923 188.971807 131.515454 188.104554 132.121447 C 187.130796 132.66684 185.441935 131.515454 185.12242 131.015511 C 184.696401 130.394369 185.441935 129.50053 185.989673 128.712741 C 186.522197 127.849202 187.100366 126.985663 188.104554 125.970626 C 185.624514 124.243548 184.011728 122.834616 183.09883 121.607482 C 182.170717 120.350048 182.246792 119.198663 182.748886 118.592671 C 183.22055 117.86548 184.513822 117.077691 185.807094 117.471586 C 186.993861 117.804881 188.439283 118.804768 190.128144 120.637895 Z M 190.128144 120.637895 " transform="matrix(0.256737,0,0,0.257842,0.104971,0)"/>
<path style="fill-rule:evenodd;fill:rgb(0%,0%,0%);fill-opacity:1;stroke-width:0.036;stroke-linecap:butt;stroke-linejoin:miter;stroke:rgb(0%,0%,0%);stroke-opacity:1;stroke-miterlimit:10;" d="M 171.550671 126.076675 C 171.231157 127.409857 170.607344 128.530943 169.86181 129.288433 C 169.024987 129.924725 167.731715 130.757964 166.803602 130.651916 C 165.75377 130.439818 163.958404 129.576279 164.019264 128.636992 C 163.988834 127.697704 165.145171 126.516019 167.077472 125.076787 C 165.860275 125.107087 164.993021 124.667743 164.490928 123.773904 C 163.882329 122.834616 163.045506 120.501546 163.806254 119.531959 C 164.597432 118.441173 166.331938 117.86548 169.131492 117.653383 C 168.918483 116.077804 169.131492 114.926418 169.633586 114.04773 C 170.10525 113.123592 171.444167 112.078255 172.235345 112.47215 C 173.026523 112.835745 173.528617 114.01743 174.137216 116.183852 C 175.506562 114.850669 176.69333 114.093179 177.697517 114.305276 C 178.71692 114.305276 179.645033 116.108103 179.934117 116.941342 C 180.010192 117.729132 179.432023 118.880517 178.77778 119.562259 C 178.138751 120.289449 177.347573 120.607595 176.267311 120.925741 C 177.423648 122.940665 178.108321 124.561694 178.321331 125.940326 C 178.53434 127.303809 177.986602 128.349145 177.378003 128.924838 C 176.63247 129.242984 175.004469 129.182385 174.061141 128.712741 C 173.056953 128.197647 172.265775 127.379558 171.550671 126.076675 Z M 171.550671 126.076675 " transform="matrix(0.256737,0,0,0.257842,0.104971,0)"/>
<path style="fill-rule:evenodd;fill:rgb(98.431373%,5.882353%,4.705882%);fill-opacity:1;stroke-width:0.036;stroke-linecap:butt;stroke-linejoin:miter;stroke:rgb(0%,0%,0%);stroke-opacity:1;stroke-miterlimit:10;" d="M 171.581101 123.879953 C 170.942073 125.243435 170.318259 126.44027 169.755306 127.440157 C 169.070632 128.303696 168.446819 129.50053 167.762145 129.606579 C 166.970967 129.53083 165.175601 128.818789 165.434255 127.879501 C 165.677695 126.940213 166.864462 125.758529 169.131492 124.167799 C 167.594781 124.501095 166.438443 124.501095 165.829845 123.773904 C 165.145171 123.092163 164.490928 120.819692 165.251676 120.168251 C 165.890704 119.48651 167.518706 119.168364 169.968315 119.48651 C 169.633586 117.804881 169.755306 116.3505 170.150895 115.56271 C 170.546484 114.623422 171.657176 113.729584 172.37228 114.229527 C 172.950448 114.744621 173.391682 115.896006 173.665552 118.229076 C 175.034898 116.532298 176.267311 115.56271 177.195424 115.456662 C 178.138751 115.350613 179.006004 116.759545 179.219014 117.441286 C 179.219014 117.91093 178.382191 118.410873 177.697517 118.956266 C 177.028059 119.380461 176.084731 119.850105 175.034898 120.350048 C 176.44989 122.54677 177.134564 124.243548 177.484508 125.576731 C 177.697517 126.834165 177.271498 127.728003 176.738975 128.137048 C 176.054301 128.561243 174.791459 128.485494 173.924206 127.909801 C 173.056953 127.152311 172.235345 125.864577 171.581101 123.879953 Z M 171.581101 123.879953 " transform="matrix(0.256737,0,0,0.257842,0.104971,0)"/>
<path style="fill-rule:evenodd;fill:rgb(0%,0%,0%);fill-opacity:1;stroke-width:0.036;stroke-linecap:butt;stroke-linejoin:miter;stroke:rgb(0%,0%,0%);stroke-opacity:1;stroke-miterlimit:10;" d="M 160.322027 144.620036 C 158.511446 141.92337 157.872418 139.969046 158.374512 138.499514 C 158.800531 137.029983 160.382887 136.196744 163.121581 135.863448 C 163.27373 132.454742 164.095339 130.833713 165.60162 130.864013 C 167.123117 130.864013 169.101062 132.66684 171.946261 136.120995 C 173.787271 133.272832 175.430488 131.909349 177.058489 132.015398 C 178.610415 132.015398 181.01438 134.545415 181.227389 136.666388 C 181.379539 138.787361 180.192772 141.271929 177.819237 144.513987 Z M 160.322027 144.620036 " transform="matrix(0.256737,0,0,0.257842,0.104971,0)"/>
<path style="fill-rule:evenodd;fill:rgb(98.431373%,5.882353%,4.705882%);fill-opacity:1;stroke-width:0.036;stroke-linecap:butt;stroke-linejoin:miter;stroke:rgb(0%,0%,0%);stroke-opacity:1;stroke-miterlimit:10;" d="M 162.330403 143.786796 C 160.671971 142.105168 159.819933 140.953783 159.743859 139.938746 C 159.561279 138.893409 160.671971 138.06017 161.691374 138.029871 C 162.695562 137.999571 163.988834 138.575263 165.72334 139.756948 C 164.856087 136.802736 164.567002 135.151408 165.251676 134.499966 C 165.829845 133.848524 168.416389 134.96961 169.283642 136.045246 C 169.998745 137.060283 170.394334 138.469215 170.07482 140.40839 C 172.600504 136.954234 174.502375 134.96961 175.947796 134.469666 C 177.271498 133.893974 178.610415 135.7271 178.53434 137.348129 C 178.427836 138.923709 177.271498 140.984082 175.217478 143.786796 Z M 162.330403 143.786796 " transform="matrix(0.256737,0,0,0.257842,0.104971,0)"/>
<path style="fill-rule:evenodd;fill:rgb(0%,0%,0%);fill-opacity:1;stroke-width:0.036;stroke-linecap:butt;stroke-linejoin:miter;stroke:rgb(0%,0%,0%);stroke-opacity:1;stroke-miterlimit:10;" d="M 201.387218 134.575715 C 200.702545 132.772888 199.804862 131.303357 198.54202 130.000474 C 197.218318 128.712741 194.981718 126.394821 193.9471 126.970513 C 192.897268 127.409857 192.319099 129.424781 192.349529 132.878937 C 190.995397 131.87905 189.793415 131.591204 188.789227 131.87905 C 187.754609 132.166896 186.050533 133.37888 186.202683 134.575715 C 186.278758 135.651351 187.130796 136.802736 189.078311 138.181369 C 189.580405 138.135919 189.580405 138.135919 189.078311 138.181369 C 188.439283 138.10562 186.628702 137.923822 185.913599 138.317717 C 185.198495 138.681312 184.726831 139.575151 184.909411 140.620487 C 185.046346 141.529475 185.441935 142.847508 186.491767 144.226141 L 199.120188 144.226141 C 199.880937 141.014382 200.641685 137.817773 201.387218 134.575715 Z M 201.387218 134.575715 " transform="matrix(0.256737,0,0,0.257842,0.104971,0)"/>
<path style="fill-rule:evenodd;fill:rgb(98.431373%,5.882353%,4.705882%);fill-opacity:1;stroke-width:0.036;stroke-linecap:butt;stroke-linejoin:miter;stroke:rgb(0%,0%,0%);stroke-opacity:1;stroke-miterlimit:10;" d="M 199.987441 134.99991 L 198.26815 142.786909 L 187.921974 143.211104 C 187.35902 142.105168 187.206871 141.226479 187.206871 140.620487 C 187.206871 139.908446 187.176441 139.6206 188.074124 139.332754 C 188.834872 138.969158 190.158574 138.81766 192.075659 138.757061 C 189.945564 137.560227 188.758797 136.560339 188.363208 135.575602 C 187.998049 134.545415 188.789227 132.984986 189.762985 132.878937 C 190.660668 132.772888 191.817005 133.37888 193.505866 134.863561 C 193.399361 132.515342 193.688446 131.045811 194.236184 130.28832 C 194.738278 129.576279 195.772896 129.576279 196.822729 130.439818 C 197.796486 131.227608 198.800674 132.697139 199.987441 134.99991 Z M 199.987441 134.99991 " transform="matrix(0.256737,0,0,0.257842,0.104971,0)"/>
<path style="fill-rule:evenodd;fill:rgb(88.627451%,71.764706%,61.176471%);fill-opacity:1;stroke-width:0.036;stroke-linecap:butt;stroke-linejoin:miter;stroke:rgb(0%,0%,0%);stroke-opacity:1;stroke-miterlimit:10;" d="M 204.095482 84.354112 C 204.85623 85.369149 205.860418 86.08119 207.12326 86.808381 C 208.340457 87.384073 209.816309 87.959766 211.550815 88.247612 C 211.976834 83.80872 212.981022 79.021381 214.852462 73.870448 C 216.663043 68.507417 219.782111 62.220248 222.307795 57.205662 C 224.68133 52.100178 227.176584 47.055293 229.215389 44.17683 C 231.02597 41.404416 232.167093 41.555914 234.084178 40.434829 C 236.031694 39.177395 239.652855 38.02601 240.961342 36.829175 C 242.14811 35.541442 242.14811 33.556817 241.539511 32.981125 C 240.778763 32.329683 238.983397 32.981125 237.111956 33.420469 C 235.088366 33.844664 230.691241 36.223183 230.341297 35.541442 C 229.945708 34.738502 233.642944 30.935901 235.225301 28.799779 C 236.746797 26.542458 239.333341 23.830643 239.6985 22.51261 C 239.94194 21.027929 238.755172 20.13409 237.248891 20.785532 C 235.696964 21.467273 232.425747 24.345736 230.919465 26.497008 C 229.291464 28.481633 228.713295 32.58723 228.074267 32.981125 C 227.343949 33.299271 226.415836 31.360096 226.91793 28.66343 C 227.389594 25.815267 229.839203 19.482649 230.767316 16.31634 C 231.634569 12.968233 232.060588 10.165519 231.923653 9.28683 C 231.634569 8.392992 230.584736 9.120182 229.367539 11.165406 C 228.104697 13.18033 225.548583 19.952293 224.46832 21.209727 C 223.311983 22.224763 222.916394 21.073378 222.733814 18.179766 C 222.38387 15.271003 223.494562 6.090221 223.022899 4.105597 C 222.459945 2.196722 220.618934 3.757152 219.858186 6.408367 C 219.067008 8.968684 218.747493 14.149918 218.306259 19.194803 C 217.773736 24.05789 217.347717 29.602718 216.876053 35.829288 C 215.430631 33.602267 214.137359 32.011537 213.133171 30.526856 C 212.083339 29.027026 211.216086 27.693843 210.531412 27.360547 C 209.709804 27.012102 208.340457 27.299948 208.233952 28.66343 C 208.081803 29.996613 208.523037 33.162922 209.679374 35.102097 C 210.820496 36.935224 212.402853 38.374455 214.852462 39.57129 C 214.396013 42.66185 213.376611 47.888533 211.550815 55.372536 C 209.740234 62.901989 207.260195 72.370617 204.095482 84.354112 Z M 204.095482 84.354112 " transform="matrix(0.256737,0,0,0.257842,0.104971,0)"/>
<path style="fill-rule:evenodd;fill:rgb(0%,0%,0%);fill-opacity:1;stroke-width:0.036;stroke-linecap:butt;stroke-linejoin:miter;stroke:rgb(0%,0%,0%);stroke-opacity:1;stroke-miterlimit:10;" d="M 219.432167 42.889097 C 218.777923 44.328329 218.306259 45.903908 218.03239 48.024881 C 217.667231 50.085254 217.515081 52.388025 217.454221 55.08469 C 216.084874 54.827143 215.217621 53.963604 215.004612 52.494073 C 214.669883 50.903344 215.111117 47.782484 215.871865 46.161455 C 216.586968 44.494976 217.773736 43.46479 219.432167 42.889097 Z M 219.432167 42.889097 " transform="matrix(0.256737,0,0,0.257842,0.104971,0)"/>
<path style="fill-rule:evenodd;fill:rgb(0%,0%,0%);fill-opacity:1;stroke-width:0.036;stroke-linecap:butt;stroke-linejoin:miter;stroke:rgb(0%,0%,0%);stroke-opacity:1;stroke-miterlimit:10;" d="M 436.686654 238.260978 C 431.726575 236.852046 429.672555 234.837122 430.098574 232.488903 C 430.539808 230.125533 433.734951 227.125872 439.562282 223.823214 C 439.638357 218.884378 440.399105 215.930166 441.844527 214.960579 C 443.244304 213.915242 445.252679 214.930279 448.021803 217.839042 C 447.169765 213.809194 447.413204 210.930731 449.071636 209.203653 C 450.699637 207.431126 455.233696 205.885846 457.531156 207.325077 C 459.722111 208.809758 461.669627 213.672845 462.247795 217.445147 C 462.689029 221.111399 462.065216 224.823102 460.406785 228.974148 C 460.878449 234.625025 460.23942 238.973019 458.322334 242.578673 C 456.344389 246.032828 453.392686 248.441647 449.071636 249.805129 C 447.27627 253.592581 445.115745 255.456007 442.453126 255.577205 C 439.714432 255.637804 433.91753 253.016888 432.974202 250.199024 C 432.04609 247.214513 433.232857 243.366462 436.686654 238.260978 Z M 436.686654 238.260978 " transform="matrix(0.256737,0,0,0.257842,0.104971,0)"/>
<path style="fill-rule:evenodd;fill:rgb(75.294118%,75.294118%,75.294118%);fill-opacity:1;stroke-width:0.036;stroke-linecap:butt;stroke-linejoin:miter;stroke:rgb(0%,0%,0%);stroke-opacity:1;stroke-miterlimit:10;" d="M 440.186096 237.639836 C 434.419624 235.594613 431.787435 233.867535 432.152594 232.064708 C 432.548183 230.231582 435.788971 228.716601 442.270546 227.125872 C 441.007704 221.293197 440.977274 218.066289 442.453126 217.020952 C 443.883332 215.930166 446.561166 217.445147 450.730067 221.156849 C 449.33029 215.718069 449.17814 212.112415 450.304048 210.21869 C 451.41474 208.264365 455.553211 208.082567 457.318147 209.809645 C 459.007008 211.582172 460.011196 217.308798 460.193775 220.32361 C 460.163345 223.277821 459.372167 225.368495 457.531156 227.125872 C 458.504914 233.943284 458.109325 238.836671 456.496539 241.957531 C 454.792462 245.063241 451.779899 246.244925 447.413204 245.669233 C 447.458849 249.74453 446.561166 252.001851 444.720156 252.471495 C 442.848715 252.88054 436.975738 250.850466 436.291065 248.365898 C 435.499887 245.85103 436.793159 242.321126 440.186096 237.639836 Z M 440.186096 237.639836 " transform="matrix(0.256737,0,0,0.257842,0.104971,0)"/>
<path style="fill-rule:evenodd;fill:rgb(0%,0%,0%);fill-opacity:1;stroke-width:0.036;stroke-linecap:butt;stroke-linejoin:miter;stroke:rgb(0%,0%,0%);stroke-opacity:1;stroke-miterlimit:10;" d="M 447.200195 265.25793 C 446.515521 262.621864 446.515521 260.500892 447.200195 258.879863 C 447.778364 257.152785 449.5433 255.607505 451.125656 255.349958 C 452.631937 255.107561 454.472948 255.743853 456.481324 257.440631 C 459.007008 256.183197 461.137103 256.031699 462.856394 257.016437 C 464.514825 257.940575 466.173256 259.894899 466.568845 262.98546 C 466.751425 266.04572 465.884172 272.635885 464.956059 274.968955 C 464.012731 277.211126 462.749889 277.559572 461.030598 276.196089 C 461.350112 279.801743 460.802374 282.574157 458.976578 284.66483 C 457.029062 286.740353 452.099414 289.482468 450.288833 288.54318 C 448.539112 287.437244 448.021803 284.043688 448.645617 278.256463 C 442.118397 277.68077 438.816749 276.302138 438.558095 274.150866 C 438.26901 271.908695 441.144639 268.999932 447.200195 265.25793 Z M 447.200195 265.25793 " transform="matrix(0.256737,0,0,0.257842,0.104971,0)"/>
<path style="fill-rule:evenodd;fill:rgb(75.294118%,75.294118%,75.294118%);fill-opacity:1;stroke-width:0.036;stroke-linecap:butt;stroke-linejoin:miter;stroke:rgb(0%,0%,0%);stroke-opacity:1;stroke-miterlimit:10;" d="M 448.599972 265.621526 C 448.021803 263.349055 448.021803 261.728026 448.599972 260.319094 C 449.17814 258.849563 450.410553 257.698178 451.840759 257.440631 C 453.073171 257.304283 454.549023 257.728477 456.268314 259.137409 C 458.398409 258.092073 460.163345 258.016324 461.563122 258.773814 C 462.932469 259.531304 464.225741 261.182633 464.62133 263.74295 C 464.910414 266.197218 463.906227 271.696597 463.251983 273.605473 C 462.460805 275.408299 461.380542 275.802194 460.011196 274.650809 C 460.08727 278.317062 459.509102 281.059177 458.139755 282.998352 C 456.770408 284.831478 453.286181 287.209997 451.947264 286.104062 C 450.547487 284.952676 449.832384 281.740918 449.786739 276.347587 C 444.400641 275.771895 441.661948 274.756858 441.448938 272.923731 C 441.266358 271.045156 443.609463 268.742385 448.599972 265.621526 Z M 448.599972 265.621526 " transform="matrix(0.256737,0,0,0.257842,0.104971,0)"/>
<path style="fill-rule:evenodd;fill:rgb(98.431373%,5.882353%,4.705882%);fill-opacity:1;stroke-width:0.036;stroke-linecap:butt;stroke-linejoin:miter;stroke:rgb(0%,0%,0%);stroke-opacity:1;stroke-miterlimit:10;" d="M 354.936646 169.571764 C 354.936646 176.525524 356.868947 182.130952 359.242481 182.130952 C 361.661661 182.130952 363.609176 176.525524 363.609176 169.571764 C 363.609176 162.618004 361.661661 157.012576 359.242481 157.012576 C 356.868947 157.012576 354.936646 162.618004 354.936646 169.571764 Z M 354.936646 169.571764 " transform="matrix(0.256737,0,0,0.257842,0.104971,0)"/>
</g>
</svg>
